<svg width="133" height="41" viewBox="0 0 133 41" fill="none" xmlns="http://www.w3.org/2000/svg">
<g clip-path="url(#clip0_3240_1755)">
<path d="M19.2828 0C18.8466 0 18.4047 0.0569444 17.9685 0.15375C17.3715 0.284722 16.8033 0.495417 16.3671 0.9225C15.3627 1.90764 15.0527 3.11486 15.2995 4.47583C15.4028 5.04528 15.5923 5.59764 15.6669 6.17278C15.7243 6.61694 15.6898 6.70805 15.2881 6.89028C14.5247 7.23194 13.8302 7.67042 13.2447 8.26264C12.6249 8.89472 12.1829 9.635 11.9878 10.5062C11.7237 11.5597 11.6606 12.6303 11.6491 13.7122C11.5516 13.7236 11.5114 13.6496 11.4597 13.5926C11.2818 13.4047 11.1096 13.2168 10.9432 13.0289C10.22 12.2203 9.49102 11.4117 8.76783 10.6031C8.21109 9.97667 7.64286 9.36167 7.1263 8.70111C6.7073 8.16583 6.2137 7.72167 5.52494 7.56222C4.73861 7.38 3.99246 7.43694 3.42998 8.0918C3.28075 8.26264 3.18317 8.27403 2.98229 8.1943C1.94341 7.80139 0.898801 8.39361 0.824186 9.44708C0.75531 10.4265 0.669216 11.4003 0.583121 12.374C0.508506 13.1712 0.456849 13.9742 0.387974 14.7714C0.2904 15.8647 0.215785 16.9581 0.146909 18.0514C0.123951 18.4215 0.123951 18.7917 0.100992 19.1618C0.0321167 20.1356 -0.00232109 21.1093 0.301879 22.0546C0.491287 22.6525 0.680695 23.2447 0.950457 23.8142C1.01359 24.116 1.16856 24.3893 1.28336 24.674C1.90324 26.2457 2.58051 27.7889 3.28075 29.3207C3.55051 29.9129 3.76861 30.5279 4.14743 31.0632C4.25074 31.2625 4.38276 31.4447 4.53199 31.6099C5.28962 32.4469 6.27109 32.9537 7.26979 33.4321C8.37754 33.9674 9.52546 34.4172 10.6504 34.9126C11.6376 35.3511 12.6306 35.7953 13.6178 36.2337C14.6854 36.7861 15.7702 37.31 16.8263 37.8794C18.5539 38.8133 20.2528 39.7871 21.8599 40.9203C21.9805 41.0057 22.0723 41.0057 22.1928 40.9203C23.3178 40.1686 24.4542 39.4283 25.6309 38.7507C26.4401 38.2837 27.2552 37.8339 28.0817 37.4011C28.5753 37.1449 29.0689 36.8886 29.5682 36.6324C29.5912 36.6324 29.6199 36.6324 29.6371 36.6267C31.1581 35.8864 32.6791 35.1518 34.2288 34.4742C34.7224 34.2578 35.1988 33.9958 35.7154 33.8364C36.628 33.4378 37.575 33.1189 38.4647 32.6747C39.4863 32.1679 40.1464 31.3593 40.4506 30.266C40.4506 30.1407 40.4621 30.0211 40.5826 29.9414C40.5826 29.9129 40.5941 29.8844 40.5941 29.856C40.6228 29.7933 40.6572 29.7307 40.6802 29.6681C41.1623 28.4153 41.6846 27.1739 42.27 25.9667C42.6661 25.1524 43.1195 24.3722 43.4581 23.5294C43.4581 23.4383 43.4409 23.3415 43.5442 23.2903C43.5615 23.2618 43.5729 23.2276 43.5902 23.1992C43.969 22.2653 44.1469 21.2744 44.1354 20.2779C44.1239 19.2643 44.1182 18.2507 44.078 17.2371C44.0264 16.0526 44.0149 14.8682 43.9805 13.6837C43.946 12.5676 43.946 11.4515 43.9231 10.3354C43.9173 9.96528 43.814 9.61792 43.6246 9.29903C43.2286 8.64417 42.5226 8.38222 41.8396 8.64986C41.5526 8.76375 41.3402 8.70681 41.1106 8.51889C40.4965 8.01208 39.779 7.86403 39.0042 8.01778C38.3269 8.15444 37.7989 8.55305 37.3225 9.02C35.9507 10.3582 34.5904 11.7021 33.2187 13.0403C33.1785 13.0801 33.144 13.1257 33.0981 13.1485C33.0407 13.1826 33.0407 13.1257 33.0292 13.0915C33.1383 12.6303 33.2072 12.169 33.1785 11.6964C33.2072 10.9333 33.035 10.2044 32.7308 9.50972C32.3233 8.57583 31.669 7.84125 30.8482 7.24333C30.7391 7.16361 30.6588 7.08389 30.6473 6.94722C30.6071 6.42333 30.4349 5.93361 30.1996 5.46667C29.4936 4.04306 28.4088 2.96681 27.0658 2.13542C26.796 1.96458 26.4918 1.87917 26.1589 1.87347C25.4357 1.85639 24.7929 2.07847 24.2074 2.48847C23.5589 2.94403 23.1284 3.54764 23.0538 4.34486C22.9677 5.23889 23.1284 6.10444 23.49 6.93014C23.8057 7.64764 24.3394 8.16014 25.0626 8.48472C25.252 8.57014 25.4185 8.55305 25.5275 8.35944C25.6596 8.12028 25.5907 7.84125 25.3668 7.6818C25.275 7.61347 25.1774 7.55083 25.1086 7.45403C24.6609 6.80486 24.5289 6.07597 24.569 5.31292C24.592 4.91431 24.879 4.6125 25.1832 4.58403C25.539 4.54986 25.8662 4.63528 26.1589 4.84028C26.532 5.10222 26.8247 5.44389 27.0772 5.81972C27.7316 6.78778 28.2137 7.84694 28.759 8.87764C29.0459 9.43 29.4477 9.84569 30.0045 10.1247C30.3087 10.2728 30.5612 10.4835 30.7678 10.7625C30.9974 11.0757 31.095 11.4401 31.2213 11.7989C31.2672 12.1178 31.3361 12.4367 31.3533 12.7612C31.4164 14.0311 31.3188 15.2953 31.2098 16.5594C31.1352 17.4592 31.0089 18.3589 30.94 19.2586C30.8998 19.7711 30.785 20.1925 30.234 20.3633C29.1665 20.9556 28.0817 21.5193 26.9854 22.066C26.3713 22.3735 25.7686 22.6924 25.1602 23.0112C24.7527 23.1821 24.3624 23.3757 23.9893 23.6149C23.9549 23.6319 23.9205 23.649 23.8803 23.6604C23.754 23.6946 23.622 23.8142 23.49 23.7003C23.3637 23.5921 23.3809 23.444 23.4096 23.2903C23.4498 23.1024 23.4728 22.9087 23.5129 22.7208C23.622 22.2197 23.9778 21.9236 24.4944 21.8439C24.8216 21.7926 25.143 21.8154 25.4702 21.8097C25.6136 21.8097 25.6883 21.7642 25.6825 21.6104C25.6768 21.0979 25.671 20.5911 25.6653 20.0786C25.6653 19.475 25.6825 18.8714 25.6653 18.2678C25.6538 17.9318 25.6481 17.5901 25.5677 17.2542C25.4242 16.6164 25.0626 16.1153 24.6092 15.6597C24.5059 15.5572 24.4715 15.4946 24.6322 15.4035C25.3841 14.9593 25.9752 14.3329 26.5779 13.7179C27.0313 13.2737 27.4561 12.8011 27.8062 12.2658C28.0702 11.8615 28.0358 11.4003 27.7488 11.0871C27.4101 10.7112 26.9395 10.5575 26.4688 10.7967C26.0613 11.0074 25.6309 11.1782 25.1889 11.3035C24.8618 11.4003 24.8618 11.4003 24.7929 11.0871C24.7699 10.9732 24.7355 10.865 24.7068 10.7511C24.4887 9.97097 24.1615 9.225 23.9836 8.43347C23.9205 8.14875 23.7368 7.91528 23.4555 7.79C22.9505 7.55653 22.4109 7.51667 21.8599 7.54514C21.5557 7.56222 21.2458 7.67611 20.9473 7.51667C20.8957 7.44833 20.8498 7.3743 20.7981 7.30597C20.7235 7.20347 20.7522 7.11805 20.844 7.04403C20.999 6.91305 21.1654 6.79347 21.3089 6.65681C21.5902 6.38347 21.9345 6.15 22.0321 5.7343C22.0838 5.50653 22.1067 5.27875 22.1125 5.04528C22.1182 4.72639 22.101 4.4075 22.1297 4.09431C22.1928 3.39389 22.2502 2.69347 22.1699 1.98736C22.0666 1.10472 21.4639 0.392917 20.6029 0.165139C20.161 0.0455556 19.7248 0 19.2828 0ZM19.191 2.46569C19.8166 2.44861 20.4996 2.69347 20.7694 3.42236C20.999 4.04875 20.9932 4.66944 20.6948 5.27305C20.4021 5.86528 19.9831 6.36639 19.4837 6.79917C19.4091 6.8675 19.3173 6.92444 19.3115 7.03833C19.3001 7.18639 19.5526 7.52805 19.7248 7.61347C19.7133 7.80708 19.6215 7.96083 19.5182 8.12028C19.214 8.59292 19.0303 9.09972 19.0016 9.66917C18.9672 10.4322 19.2484 11.0814 19.7076 11.6679C19.8625 11.8672 19.8798 12.0267 19.7535 12.2317C19.5354 12.579 19.3632 12.9549 19.2025 13.3364C19.1566 13.4446 19.0762 13.5471 19.1221 13.6781C19.0475 13.7122 19.0188 13.7806 18.9901 13.8489C18.5941 14.8682 18.4965 15.9103 18.7892 16.9694C18.8925 17.3339 19.059 17.6756 19.3345 17.9546C19.9085 18.5354 20.4767 18.5753 21.1195 18.0685C21.3874 17.8597 21.659 17.8407 21.9345 18.0115C22.3306 18.2564 22.6348 18.1539 22.8012 17.7154C22.8701 17.5332 22.9218 17.3453 23.0308 17.1801C23.203 16.9068 23.4268 16.8442 23.7081 16.9979C24.0123 17.1631 24.2591 17.4022 24.4657 17.6812C24.5863 17.8464 24.6264 18.0229 24.569 18.2108C24.3509 18.9511 24.4829 19.7028 24.4542 20.4544C24.4542 20.5171 24.437 20.6082 24.5231 20.6367C24.5231 20.6367 24.5231 20.6367 24.5231 20.6424C24.1271 20.6936 23.7253 20.6651 23.3293 20.6708C22.8529 20.6708 22.675 20.8075 22.5142 21.2517C22.3937 21.5762 22.3822 21.9179 22.3421 22.2596C22.3191 22.4532 22.256 22.624 22.1182 22.755C21.9116 22.9543 21.7164 22.9087 21.6131 22.6468C21.5615 22.5158 21.5328 22.3792 21.5328 22.2368C21.5328 22.0261 21.5155 21.8211 21.5098 21.6104C21.4983 21.0011 21.682 20.4886 22.2445 20.1526C22.52 19.9875 22.7955 19.8337 23.0997 19.7256C23.467 19.5946 23.6909 19.3383 23.7827 18.9625C23.8286 18.7689 23.8229 18.581 23.8229 18.3874C23.8229 18.1026 23.7597 17.9774 23.6048 17.9546C23.4613 17.9318 23.3121 18.0628 23.226 18.2792C23.2202 18.2962 23.2145 18.3076 23.2087 18.3247C23.1686 18.7233 22.8873 18.8771 22.5487 18.991C22.1412 19.1219 21.7222 19.2244 21.3147 19.3497C20.6776 19.5433 20.316 19.9761 20.1782 20.6196C20.0692 21.1492 20.0749 21.6844 20.0921 22.2197C20.1208 22.9714 20.448 23.5294 21.1482 23.8711C21.6303 24.1103 22.101 24.3665 22.5946 24.5829C22.6635 24.6114 22.7323 24.6569 22.807 24.6114C22.807 24.7025 22.7668 24.7651 22.6979 24.8164C22.5946 24.8961 22.4913 24.9815 22.388 25.0612C22.0953 25.3004 22.0953 25.3004 21.8484 25.0214C21.8083 24.9758 21.7624 24.9303 21.7164 24.8904C21.0277 24.2356 20.3045 23.6206 19.5182 23.0853C19.455 23.0454 19.3976 22.9885 19.3173 23.0169C19.3288 22.9429 19.2599 22.9031 19.2082 22.8689C19.0016 22.7208 18.7777 22.6012 18.5596 22.476C18.4965 22.4418 18.4334 22.4304 18.3702 22.4589C18.3415 22.4475 18.3186 22.4304 18.2899 22.419C18.2899 22.3222 18.1923 22.2881 18.1234 22.2539C17.67 22.0147 17.2051 21.804 16.7287 21.6161C16.0801 21.3542 15.4143 21.1321 14.7944 20.8132C14.6567 20.7449 14.5362 20.6424 14.3812 20.6139C14.341 20.5228 14.2492 20.4829 14.1746 20.426C13.7843 20.1242 13.5432 19.754 13.5145 19.2472C13.4973 18.9853 13.4858 18.7233 13.4628 18.4614C13.394 17.6357 13.3538 16.81 13.3366 15.9843C13.3136 15.0219 13.3595 14.0653 13.4801 13.1143C13.5776 12.3683 13.7039 11.6281 14.0253 10.9333C14.0712 10.8365 14.1344 10.7397 14.1172 10.6201C14.209 10.6201 14.2434 10.5347 14.2894 10.4664C14.7083 9.79444 15.2766 9.27055 15.9309 8.83208C16.2236 8.63847 16.5221 8.45625 16.8205 8.27403C17.3543 7.94944 17.5495 7.45972 17.4806 6.8618C17.4175 6.31514 17.3256 5.76847 17.1133 5.25597C17.0386 5.06806 17.0788 4.95986 17.2567 4.85736C18.0833 4.36194 18.6285 3.67292 18.749 2.69917C18.7663 2.57958 18.8179 2.51694 18.9327 2.49986C19.0188 2.48847 19.1049 2.47708 19.1967 2.47708L19.191 2.46569ZM22.761 9.5268C22.9275 9.50403 23.2489 9.65208 23.2891 9.78875C23.3465 9.98805 23.3809 10.1987 23.4383 10.3981C23.5187 10.6543 23.4842 10.8365 23.2719 11.0358C23.0079 11.2807 22.8529 11.6167 22.9849 11.9868C23.1169 12.3512 23.4326 12.4708 23.7942 12.5221C24.4657 12.6189 25.12 12.5449 25.7629 12.3456C25.826 12.3285 25.8834 12.2715 25.9695 12.3285C25.8547 12.6132 25.6997 12.8637 25.5103 13.1029C25.4587 13.1712 25.3668 13.2339 25.3898 13.3364C25.2865 13.3136 25.2291 13.3933 25.1602 13.4503C24.8675 13.7122 24.5231 13.8318 24.1328 13.8261C23.9836 13.8261 23.8344 13.8261 23.6851 13.8261C23.0538 13.8489 22.6577 14.2532 22.652 14.8796C22.652 15.3693 22.652 15.859 22.652 16.3431C22.652 16.4911 22.6233 16.6164 22.4396 16.6107C21.8312 16.6107 21.2228 16.6562 20.6144 16.5367C20.3332 16.4797 20.1323 16.3317 20.0003 16.0811C19.6387 15.3921 19.6789 14.7087 20.0577 14.0368C20.1151 13.94 20.2069 13.8489 20.184 13.7236C20.2701 13.7065 20.3102 13.6382 20.3504 13.5756C20.712 13.0403 21.0506 12.4879 21.3491 11.9185C21.5098 11.6167 21.6074 11.2978 21.5328 10.9561C21.4926 10.7739 21.5672 10.7283 21.7222 10.6942C22.2617 10.5689 22.5831 10.2443 22.6348 9.68625C22.6348 9.635 22.6348 9.57236 22.6922 9.54389C22.7094 9.5325 22.7323 9.5268 22.7553 9.5268H22.761ZM6.04725 11.554C6.31127 11.554 6.54086 11.6907 6.61547 12.021C6.95985 13.5642 7.28127 15.1131 7.60843 16.6562C7.63139 16.7531 7.60843 16.8556 7.60843 16.9581C7.60843 16.9581 7.60843 16.9581 7.61417 16.9581C7.61417 17.0264 7.61417 17.0947 7.61417 17.1687C7.59695 17.4762 7.43624 17.7097 7.20665 17.7496C6.8508 17.8122 6.53512 17.6642 6.41458 17.3624C6.29979 17.0719 6.25387 16.7644 6.20796 16.4626C6.10464 15.7793 6.00707 15.0903 5.89802 14.4012C5.77175 13.5869 5.63973 12.7726 5.51346 11.9583C5.48476 11.7704 5.59382 11.6281 5.76027 11.5882C5.8521 11.5654 5.94393 11.5483 6.03577 11.554H6.04725ZM38.2695 11.6167C38.3269 11.6167 38.3843 11.6281 38.4475 11.6622C38.6139 11.7476 38.5795 11.9128 38.6196 12.0494C38.5278 12.6303 38.4417 13.2054 38.3441 13.7862C38.1777 14.7657 38.0055 15.7451 37.8276 16.7246C37.7759 17.0093 37.7587 17.3168 37.5004 17.5218C37.334 17.6528 37.1618 17.7894 36.9322 17.6699C36.7715 17.5901 36.6854 17.3225 36.7313 17.089C37.024 15.5572 37.311 14.0311 37.6037 12.505C37.6611 12.2089 37.73 11.9071 38.0112 11.7249C38.0973 11.6736 38.1834 11.6281 38.2753 11.6281L38.2695 11.6167ZM41.1279 11.6907C41.3402 11.6964 41.5239 11.8501 41.587 12.1292C41.6272 12.2943 41.6559 12.4651 41.6559 12.636C41.6559 13.4958 41.7363 14.3557 41.7076 15.2156C41.6731 16.3317 41.7535 17.4478 41.7535 18.5582C41.7535 18.6436 41.7764 18.729 41.7764 18.8144C41.7937 19.4693 41.8683 20.1242 41.7764 20.7847C41.6789 21.4908 41.4435 22.1514 41.1336 22.7949C41.0877 22.8974 41.0131 22.9942 41.0532 23.1194C40.9671 23.1194 40.9499 23.1878 40.927 23.2447C40.6687 23.7743 40.4276 24.3153 40.1866 24.8506C39.6757 25.9781 39.1706 27.1169 38.5967 28.216C38.3154 28.7626 37.9424 29.2353 37.4373 29.594C37.3914 29.6282 37.3282 29.6567 37.3167 29.7193C37.0412 29.8047 36.8117 29.9869 36.5591 30.1122C34.3494 31.2283 32.0879 32.2419 29.8265 33.2442C29.6142 33.341 29.3961 33.4264 29.1894 33.5346C29.1263 33.5687 29.0345 33.6029 29.0574 33.6769C28.9541 33.6143 28.8795 33.6883 28.7991 33.7225C28.1965 33.9787 27.6225 34.2862 27.0313 34.5767C25.9351 35.1119 24.8618 35.7042 23.8344 36.3647C23.7712 36.4046 23.6851 36.4331 23.6679 36.5128C23.5761 36.5299 23.4957 36.5811 23.4154 36.6324C23.0595 36.8601 22.7151 37.0993 22.3765 37.3442C22.1986 37.4751 22.0608 37.4808 21.8771 37.3442C21.2687 36.8943 20.6259 36.4957 19.9831 36.0971C19.8912 36.0401 19.8109 35.9604 19.6846 36.0003C19.7305 35.8807 19.5813 35.8579 19.5124 35.8181C18.7605 35.3568 17.9857 34.9354 17.1993 34.5425C15.9596 33.9218 14.6854 33.3694 13.4227 32.8C12.0739 32.1907 10.7193 31.5985 9.38771 30.9436C9.31884 30.9094 9.24422 30.881 9.16387 30.8753C9.13517 30.7899 9.03759 30.7728 8.96872 30.7386C8.4005 30.4539 7.82653 30.1692 7.26405 29.8674C6.77618 29.6054 6.33997 29.2922 6.02429 28.831C5.74879 28.4267 5.51346 27.9939 5.3011 27.5611C4.72713 26.3767 4.19909 25.1694 3.64808 23.9736C3.60791 23.8882 3.59069 23.7743 3.46441 23.7572C3.46441 23.7572 3.46441 23.7572 3.45868 23.7572C3.52755 23.6661 3.46441 23.5807 3.42998 23.501C3.28649 23.165 3.12004 22.8404 2.97081 22.5101C2.67235 21.861 2.4772 21.1947 2.48868 20.4658C2.50016 19.4921 2.70678 18.5411 2.7527 17.5731C2.7814 16.9011 2.84453 16.2292 2.86175 15.5572C2.88471 14.7144 2.95933 13.8717 2.97081 13.0289C2.97081 12.8808 2.9995 12.7328 3.03394 12.5904C3.09134 12.3342 3.18317 12.1007 3.40702 11.9412C3.64808 11.7647 3.87767 11.7932 4.06134 12.0267C4.21631 12.226 4.3024 12.4594 4.3311 12.71C4.42867 13.4958 4.51477 14.2817 4.61808 15.0618C4.87062 17.0093 5.09447 18.9568 5.45607 20.8872C5.70287 22.2254 6.28257 23.3814 7.25831 24.3437C7.87245 24.9531 8.56694 25.4428 9.32458 25.8585C10.1224 26.2969 10.903 26.7753 11.7639 27.0999C12.0911 27.2194 12.424 27.3049 12.7741 27.265C13.107 27.2308 13.3423 27.0543 13.4628 26.7411C13.5834 26.4222 13.5202 26.1318 13.2677 25.8869C13.1127 25.7389 12.9405 25.6193 12.7626 25.5111C12.0681 25.1068 11.3679 24.7139 10.6734 24.3096C9.97889 23.9053 9.27292 23.5181 8.65304 22.9999C8.27996 22.6867 7.99872 22.3108 7.86097 21.8439C7.75192 21.4737 7.67156 21.0922 7.62565 20.705C7.57973 20.3235 7.78062 20.1469 8.15369 20.2267C8.49233 20.3007 8.80227 20.4544 9.10647 20.6139C10.4036 21.2972 11.741 21.9065 13.0668 22.5386C13.4915 22.7379 13.9105 22.9486 14.3353 23.1422C14.4156 23.1764 14.5017 23.2675 14.5936 23.1935C14.6395 23.296 14.7428 23.3187 14.8346 23.3643C15.9194 23.8996 16.9985 24.4406 18.0546 25.0271C18.9327 25.5168 19.7018 26.1147 20.2586 26.9632C21.1367 28.2957 21.6648 29.7592 21.946 31.3137C22.0034 31.644 22.0264 31.9743 22.0895 32.3046C22.101 32.3501 22.1067 32.4071 22.1584 32.4128C22.233 32.4128 22.233 32.3444 22.2387 32.2989C22.256 32.1679 22.2387 32.0369 22.256 31.906C22.4454 30.471 22.8529 29.1043 23.5187 27.8174C24.0812 26.724 24.8618 25.8186 25.9408 25.2036C27.083 24.5487 28.2424 23.9281 29.4362 23.3643C29.5051 23.3301 29.5912 23.3187 29.5969 23.2162C29.6371 23.2561 29.7003 23.2333 29.7577 23.2162C29.8667 23.1935 29.9585 23.1365 30.0561 23.0853C30.8884 22.6696 31.7321 22.2881 32.5643 21.8837C33.3679 21.4908 34.1944 21.1378 34.975 20.6993C35.3481 20.4943 35.7383 20.3064 36.1631 20.2267C36.473 20.1697 36.605 20.2779 36.6108 20.5854C36.6165 21.0865 36.5075 21.5649 36.3238 22.0318C36.2951 22.1058 36.232 22.1912 36.3008 22.271C36.3008 22.271 36.2951 22.271 36.2894 22.271C36.0024 22.7949 35.5489 23.1593 35.0668 23.4782C34.2231 24.0362 33.3277 24.5089 32.461 25.0328C31.9846 25.3175 31.4508 25.5282 31.0433 25.9211C30.7965 26.1603 30.7277 26.4393 30.8482 26.7183C30.9859 27.0315 31.2213 27.1967 31.5771 27.2081C31.8239 27.2137 32.0592 27.1739 32.2888 27.0999C33.1096 26.8265 33.8443 26.3881 34.5962 25.9724C35.2562 25.6079 35.9048 25.2264 36.473 24.7253C37.2249 24.059 37.8677 23.3017 38.2695 22.3678C38.2695 22.3678 38.2753 22.3735 38.281 22.3735C38.3901 22.345 38.4073 22.2425 38.4417 22.1628C38.5278 21.9521 38.5967 21.7414 38.6483 21.5193C39.1075 19.5946 39.4461 17.6471 39.7905 15.7053C39.957 14.7771 40.0832 13.8375 40.2153 12.9036C40.2727 12.4993 40.4219 12.1235 40.749 11.8444C40.8811 11.7362 41.0188 11.685 41.1451 11.6907H41.1279ZM35.5834 14.0311C35.6121 14.0311 35.6465 14.0311 35.681 14.0482C35.8015 14.0881 35.8531 14.2076 35.8589 14.3272C35.8646 14.4411 35.8589 14.5607 35.8589 14.6746C35.8589 14.6746 35.8589 14.6746 35.8646 14.6746C35.8015 15.6085 35.7383 16.5367 35.6637 17.4706C35.6465 17.6983 35.5547 17.909 35.3825 18.0685C35.239 18.2051 35.084 18.3247 34.8659 18.2279C34.6536 18.1368 34.5962 17.9546 34.5962 17.7553C34.5962 17.4079 34.6823 17.0662 34.7339 16.7246C34.8372 16.064 34.9176 15.3978 35.0611 14.7372C35.107 14.5208 35.2046 14.3272 35.3423 14.1564C35.4054 14.0824 35.4858 14.0254 35.5776 14.0254L35.5834 14.0311ZM8.52103 14.1393C8.65878 14.1393 8.80801 14.2076 8.91132 14.3272C9.10073 14.5436 9.07777 14.8226 9.11221 15.0732C9.23848 15.9331 9.36475 16.7986 9.57138 17.6414C9.5886 17.7097 9.5886 17.7781 9.59434 17.8464C9.62304 18.0343 9.53694 18.171 9.37049 18.245C9.20978 18.319 9.07203 18.2393 8.94576 18.1311C8.75061 17.9603 8.68748 17.7325 8.6473 17.4933C8.50381 16.5367 8.36032 15.5743 8.20535 14.6176C8.17091 14.4183 8.19961 14.2646 8.38328 14.1678C8.42345 14.145 8.46363 14.1393 8.50955 14.1336L8.52103 14.1393ZM10.8398 16.0526C11.0465 16.0526 11.1613 16.2007 11.2301 16.3772C11.3736 16.7531 11.4138 17.1574 11.4999 17.5446C11.5975 17.966 11.6778 18.3874 11.7582 18.7575C11.7582 19.0536 11.6663 19.1732 11.4597 19.2017C11.1957 19.2358 10.9833 19.1219 10.9202 18.8714C10.8398 18.5639 10.7824 18.2564 10.725 17.9432C10.6447 17.5218 10.5701 17.0947 10.4955 16.6733C10.484 16.6221 10.484 16.5651 10.484 16.5139C10.484 16.2861 10.6275 16.064 10.7939 16.0469C10.8111 16.0469 10.8226 16.0469 10.8341 16.0469L10.8398 16.0526ZM33.2875 16.121C33.3047 16.121 33.3277 16.121 33.3507 16.121C33.5343 16.1551 33.4999 16.3203 33.4942 16.4456C33.454 17.2029 33.3794 17.9546 33.3449 18.7119C33.3449 18.8144 33.299 18.9056 33.2416 18.991C33.0866 19.2244 32.8398 19.2358 32.6619 19.0137C32.6102 18.9511 32.5988 18.8543 32.5069 18.8144C32.4955 18.8144 32.4955 18.8258 32.4897 18.8258C32.4897 18.8258 32.4897 18.8201 32.4897 18.8144C32.5356 18.7746 32.5471 18.7233 32.5471 18.6664C32.5471 18.3247 32.6045 18.0001 32.6676 17.6642C32.6791 17.5958 32.6849 17.5275 32.6275 17.4706C32.6275 17.4649 32.6275 17.4592 32.6275 17.4478C32.7136 17.4706 32.7193 17.3851 32.7365 17.3339C32.7997 17.1175 32.8398 16.8954 32.8858 16.679C32.9087 16.5594 32.9374 16.4342 33.0005 16.326C33.0694 16.2121 33.1555 16.1096 33.2933 16.1039L33.2875 16.121Z" fill="white"/>
<path fill-rule="evenodd" clip-rule="evenodd" d="M122.005 18.9964C119.968 18.9964 117.924 18.9964 115.887 18.9964C115.68 18.9964 115.577 18.9508 115.554 18.7344C115.531 18.5066 115.473 18.2789 115.41 18.0511C115.37 17.903 115.393 17.8404 115.554 17.7948C116.059 17.6582 116.553 17.4816 117.058 17.3507C117.264 17.2994 117.327 17.2026 117.339 17.0033C117.385 16.0751 117.436 15.1469 117.442 14.2187C117.454 12.5104 117.465 10.8078 117.454 9.09942C117.448 8.11428 117.459 7.12914 117.304 6.15539C117.264 5.89345 117.138 5.72261 116.903 5.59734C116.472 5.37525 116.007 5.23859 115.542 5.10192C115.405 5.06206 115.37 5.0165 115.41 4.87984C115.479 4.62358 115.525 4.36734 115.571 4.10539C115.6 3.95734 115.663 3.91747 115.818 3.91747C117.942 3.92317 120.071 3.92886 122.195 3.91747C124.02 3.90609 125.851 3.889 127.67 3.75234C127.796 3.74095 127.883 3.76942 127.946 3.87761C127.946 3.88331 127.957 3.889 127.957 3.8947C128.271 4.2971 128.37 4.82859 128.256 5.48914C128.106 6.34331 127.951 7.19747 127.808 8.05164C127.785 8.18261 127.751 8.23386 127.607 8.23386C127.113 8.23386 126.626 8.22817 126.132 8.17122C125.994 8.15414 125.937 8.11997 125.908 7.97192C125.782 7.25442 125.627 6.54261 125.512 5.82511C125.483 5.6315 125.397 5.58595 125.231 5.56886C124.198 5.44928 123.159 5.41511 122.12 5.44928C121.678 5.46067 121.23 5.42081 120.8 5.57456C120.668 5.62011 120.616 5.66567 120.61 5.80803C120.49 7.41956 120.478 9.03109 120.478 10.6426C120.478 10.8248 120.587 10.7907 120.691 10.785C122.149 10.7223 123.607 10.654 125.064 10.5857C125.334 10.5743 125.644 10.9273 125.598 11.195C125.535 11.5708 125.46 11.9409 125.403 12.3168C125.374 12.4819 125.3 12.5389 125.128 12.5332C123.698 12.4819 122.269 12.4364 120.846 12.3908C120.777 12.3908 120.702 12.3965 120.633 12.3908C120.501 12.3737 120.478 12.4307 120.478 12.5503C120.484 13.8372 120.455 15.1241 120.576 16.4054C120.639 17.1115 120.794 17.2823 121.512 17.3734C122.608 17.5101 123.71 17.4873 124.812 17.4019C125.082 17.3791 125.357 17.345 125.627 17.3222C125.747 17.3108 125.811 17.2596 125.839 17.1286C126.011 16.3712 126.207 15.6253 126.379 14.8679C126.413 14.7198 126.471 14.6572 126.62 14.6572C127.154 14.6572 127.682 14.6629 128.21 14.7141C128.353 14.7255 128.399 14.7825 128.399 14.9078C128.416 15.8132 128.457 16.7186 128.428 17.6297C128.416 17.9941 128.405 18.3586 128.405 18.723C128.405 18.9223 128.353 18.9964 128.129 18.9964C126.086 18.985 124.048 18.9964 122.005 18.9964Z" fill="white"/>
<path fill-rule="evenodd" clip-rule="evenodd" d="M87.0508 16.2803C87.0508 15.7849 87.0508 15.2895 87.0508 14.7941C87.0508 14.646 87.0967 14.572 87.2574 14.5549C87.8256 14.498 88.3939 14.4866 88.9678 14.4923C89.0826 14.4923 89.1343 14.5378 89.1515 14.646C89.272 15.3749 89.4614 16.081 89.6566 16.7928C89.7025 16.9637 89.7886 17.0719 89.9493 17.1516C90.7988 17.573 91.7056 17.6869 92.6355 17.6584C93.1979 17.6413 93.7547 17.5673 94.2827 17.3452C94.4147 17.2882 94.5238 17.2085 94.5984 17.0832C95.0461 16.343 95.2011 15.5742 94.8223 14.7599C94.6214 14.3328 94.2483 14.0481 93.8523 13.8032C93.1118 13.3477 92.2968 13.0516 91.499 12.727C90.6495 12.3796 89.8058 12.0095 89.0252 11.5198C86.4539 9.89116 86.4826 6.42894 89.0138 4.73769C90.0928 4.01449 91.2924 3.65574 92.5723 3.58172C94.2426 3.49061 95.8324 3.8038 97.319 4.58394C97.7437 4.80602 97.9561 5.22172 97.8815 5.68297C97.7322 6.61686 97.5371 7.53936 97.3534 8.46755C97.3305 8.58144 97.3018 8.65547 97.1468 8.64977C96.6245 8.63838 96.1022 8.6213 95.5799 8.58713C95.4364 8.57575 95.402 8.51311 95.3905 8.38783C95.2929 7.5963 95.1781 6.80477 94.9887 6.03033C94.9543 5.89936 94.8911 5.81394 94.7821 5.74561C94.3172 5.44949 93.8006 5.30713 93.2611 5.25588C92.6125 5.19324 91.9697 5.26727 91.3383 5.43241C90.7299 5.58616 90.4659 5.99616 90.3396 6.55991C90.0756 7.72727 90.4085 8.66686 91.4014 9.36727C92.1017 9.86269 92.888 10.1816 93.6686 10.5119C94.5984 10.9048 95.5454 11.2806 96.3834 11.8557C97.2157 12.4252 97.8356 13.1427 98.0766 14.1392C98.5128 15.9899 97.6921 17.7096 95.9702 18.5866C94.9657 19.0991 93.8867 19.3155 92.7675 19.3439C91.1259 19.3895 89.5303 19.1788 88.0151 18.5126C87.7281 18.3873 87.4583 18.2335 87.1943 18.0741C87.068 17.9944 87.0164 17.8976 87.0164 17.7495C87.0221 17.2598 87.0164 16.7757 87.0164 16.286H87.068L87.0508 16.2803Z" fill="white"/>
<path fill-rule="evenodd" clip-rule="evenodd" d="M73.2643 16.2852C73.2643 15.7898 73.2643 15.2943 73.2643 14.7989C73.2643 14.6167 73.3504 14.5654 73.5111 14.5484C74.0564 14.4971 74.6016 14.4857 75.1469 14.4914C75.2732 14.4914 75.3363 14.5256 75.3593 14.6679C75.4798 15.3911 75.6692 16.1029 75.8701 16.8148C75.916 16.9799 76.0021 17.0767 76.1513 17.1507C77.0926 17.612 78.0913 17.7145 79.1187 17.6461C79.5894 17.6177 80.0485 17.5323 80.4848 17.35C80.611 17.2931 80.7143 17.2248 80.789 17.1109C81.3514 16.251 81.5925 14.8103 80.2667 13.9391C79.5435 13.4664 78.7514 13.1532 77.9536 12.8286C77.0525 12.4642 76.1456 12.1054 75.3248 11.5702C74.3319 10.9267 73.5972 10.0896 73.3963 8.89378C73.1208 7.27086 73.6718 5.94975 74.9575 4.93614C75.9332 4.16739 77.0639 3.76309 78.2865 3.62642C80.1346 3.41572 81.891 3.72322 83.544 4.58878C83.9687 4.81086 84.1639 5.22656 84.0892 5.6992C83.94 6.6217 83.7449 7.5385 83.5669 8.461C83.5382 8.62045 83.4694 8.65461 83.3201 8.64892C82.8208 8.63753 82.3214 8.62045 81.8221 8.59197C81.6614 8.58059 81.6097 8.52364 81.5982 8.36989C81.5179 7.60684 81.3859 6.84947 81.2252 6.1035C81.185 5.91559 81.0874 5.79031 80.921 5.6992C80.1404 5.25503 79.2967 5.181 78.4242 5.26642C77.9478 5.31197 77.4887 5.42017 77.0582 5.64795C76.9434 5.71059 76.8631 5.79031 76.7999 5.9042C76.2833 6.91211 76.226 8.36989 77.5288 9.30378C78.275 9.83906 79.1187 10.1864 79.9567 10.5395C80.8521 10.921 81.759 11.2854 82.5682 11.8321C83.4751 12.4471 84.1352 13.2273 84.3246 14.332C84.6345 16.1485 83.8884 17.6575 82.2411 18.5459C81.2252 19.0925 80.1174 19.3089 78.9752 19.3431C77.2878 19.3886 75.6405 19.1666 74.0908 18.4548C73.8497 18.3466 73.6259 18.1985 73.3963 18.0732C73.2586 17.9992 73.2069 17.8853 73.2069 17.7259C73.2126 17.2475 73.2069 16.7635 73.2069 16.2852H73.27H73.2643Z" fill="white"/>
<path fill-rule="evenodd" clip-rule="evenodd" d="M59.426 16.3155C59.4547 15.7973 59.4432 15.2791 59.4834 14.761C59.4949 14.6186 59.5523 14.5787 59.6728 14.5616C60.241 14.5047 60.8093 14.4933 61.3832 14.499C61.5038 14.499 61.5497 14.5389 61.5726 14.6698C61.6989 15.393 61.8826 16.1048 62.0835 16.8166C62.1294 16.9818 62.2097 17.0843 62.3647 17.1583C63.3003 17.6196 64.3047 17.7221 65.3264 17.6537C65.7626 17.6253 66.193 17.5512 66.6063 17.3918C66.8014 17.3178 66.9622 17.2096 67.0655 17.016C67.4672 16.2871 67.6165 15.5354 67.2377 14.7496C67.0425 14.3396 66.6867 14.0605 66.3078 13.8214C65.4985 13.3146 64.5974 13.0014 63.7193 12.6426C62.8755 12.2953 62.0433 11.9308 61.2914 11.4012C60.0574 10.5243 59.449 9.34553 59.5523 7.83651C59.6384 6.56095 60.287 5.5872 61.2971 4.84123C62.3877 4.03262 63.6446 3.65678 64.9877 3.58276C66.7039 3.48595 68.3397 3.81623 69.8607 4.64762C70.1476 4.80137 70.3887 5.29109 70.3313 5.60428C70.1477 6.55526 69.9582 7.50623 69.7861 8.4572C69.7574 8.61665 69.6942 8.6622 69.5393 8.65081C69.0456 8.62803 68.5578 8.60526 68.0642 8.59387C67.8862 8.59387 67.8231 8.51984 67.8059 8.34901C67.7255 7.59165 67.5993 6.84567 67.4328 6.1054C67.3926 5.92887 67.3123 5.80359 67.1516 5.71248C66.3595 5.25692 65.4985 5.1829 64.6146 5.26831C64.1784 5.30817 63.7537 5.41067 63.3577 5.60428C63.1855 5.68401 63.065 5.7979 62.9846 5.96873C62.4738 7.07345 62.5139 8.40026 63.725 9.29428C64.4138 9.80678 65.1944 10.1314 65.9749 10.4673C66.9335 10.8773 67.9092 11.2532 68.7816 11.8454C69.6942 12.4661 70.3485 13.2576 70.5437 14.368C70.8479 16.0991 70.1017 17.648 68.5406 18.5136C67.5017 19.0887 66.371 19.3222 65.1944 19.3564C63.5471 19.4019 61.94 19.1912 60.419 18.5193C60.132 18.394 59.8622 18.246 59.5982 18.0751C59.4892 18.0068 59.4375 17.9214 59.4375 17.7904C59.4375 17.3007 59.4375 16.8166 59.4375 16.3269L59.426 16.3155Z" fill="white"/>
<path fill-rule="evenodd" clip-rule="evenodd" d="M106.801 3.92956C108.701 3.94095 110.784 3.91817 112.868 3.7815C113.327 3.75303 113.579 3.86692 113.798 4.24275C113.924 4.45914 113.993 4.65275 113.975 4.909C113.895 5.98525 113.775 7.05011 113.671 8.12636C113.66 8.26872 113.602 8.31428 113.459 8.32567C112.96 8.37122 112.46 8.33136 111.961 8.30859C111.823 8.30289 111.777 8.24025 111.754 8.11497C111.594 7.32914 111.41 6.54331 111.255 5.75178C111.22 5.58664 111.152 5.53539 110.997 5.524C110.21 5.46706 109.418 5.44997 108.632 5.44997C108.483 5.44997 108.448 5.50122 108.448 5.63789C108.454 6.26428 108.448 6.89636 108.448 7.52275C108.448 9.71511 108.442 11.9132 108.448 14.1055C108.448 15.0053 108.448 15.905 108.597 16.7933C108.638 17.0382 108.764 17.1976 108.982 17.3115C109.412 17.5336 109.877 17.6703 110.342 17.8069C110.48 17.8468 110.526 17.898 110.486 18.0461C110.417 18.2909 110.371 18.5415 110.325 18.7978C110.296 18.9572 110.233 19.0084 110.067 19.0028C109.16 18.9914 108.253 19.0028 107.346 19.0028C106.439 19.0028 104.97 19.0028 103.782 19.0028C103.615 19.0028 103.547 18.9629 103.524 18.7921C103.489 18.5415 103.42 18.2909 103.363 18.0461C103.328 17.9151 103.357 17.8525 103.495 17.8126C104.017 17.6646 104.539 17.4994 105.062 17.3514C105.211 17.3115 105.268 17.2489 105.28 17.0837C105.36 15.9164 105.4 14.749 105.406 13.5759C105.418 10.9565 105.406 8.33136 105.412 5.71192C105.412 5.51831 105.383 5.44997 105.165 5.44997C104.425 5.46136 103.684 5.48984 102.944 5.5297C102.76 5.54109 102.68 5.59803 102.64 5.78595C102.479 6.57178 102.29 7.35761 102.123 8.14345C102.083 8.33706 101.997 8.38831 101.813 8.38831C101.291 8.38831 100.769 8.37122 100.246 8.31997C100.074 8.30289 100.028 8.24595 100.022 8.07511C99.9822 6.77109 99.988 5.47275 100.022 4.16872C100.022 3.97511 100.08 3.92386 100.275 3.92386C102.387 3.92956 104.494 3.92386 106.795 3.92386L106.801 3.92956Z" fill="white"/>
<path fill-rule="evenodd" clip-rule="evenodd" d="M52.0334 11.5264C52.0334 10.2565 52.0448 8.98099 52.0334 7.71113C52.0334 7.19863 51.9932 6.69182 51.9128 6.18502C51.8669 5.8946 51.7234 5.70668 51.4651 5.58141C51.0404 5.3821 50.5985 5.23405 50.145 5.11446C50.0073 5.0746 49.9728 5.03474 50.013 4.89238C50.0819 4.63613 50.1221 4.37988 50.1737 4.11793C50.1967 3.99266 50.2426 3.92432 50.3976 3.93002C52.5098 3.93571 54.6162 3.93571 56.7284 3.93002C56.8891 3.93002 56.9465 3.98127 56.9695 4.12932C57.0096 4.39127 57.067 4.64752 57.1359 4.90377C57.1703 5.03474 57.1359 5.0746 57.0096 5.11446C56.4931 5.26252 55.9822 5.42766 55.4657 5.57002C55.305 5.61557 55.2246 5.68391 55.2131 5.86043C55.15 6.78293 55.1041 7.69974 55.1041 8.62224C55.0926 10.769 55.1041 12.9159 55.1098 15.0684C55.1098 15.615 55.15 16.1674 55.2303 16.714C55.2763 17.0215 55.4198 17.2209 55.701 17.3518C56.12 17.5454 56.5562 17.6878 56.9981 17.8131C57.1187 17.8472 57.1818 17.8814 57.1416 18.0352C57.067 18.2971 57.0211 18.5647 56.9695 18.8267C56.9465 18.952 56.8948 19.0032 56.7513 19.0032C54.6334 19.0032 52.5155 19.0032 50.3976 19.0032C50.2598 19.0032 50.2024 18.9577 50.1795 18.8324C50.1336 18.5761 50.0876 18.3142 50.0188 18.0579C49.9786 17.9042 50.0073 17.8472 50.168 17.8017C50.696 17.6536 51.2126 17.4885 51.7349 17.3404C51.8669 17.3006 51.9186 17.2436 51.9301 17.107C51.9932 16.2357 52.0276 15.3588 52.0448 14.4818C52.0621 13.4967 52.0448 12.5115 52.0448 11.5264C52.0448 11.5264 52.0448 11.5264 52.0391 11.5264H52.0334Z" fill="white"/>
<path d="M61.3373 35.5273C61.2225 35.5273 61.1881 35.5672 61.1881 35.6754C61.1938 35.8861 61.1881 36.0911 61.1881 36.3018C61.1881 37.025 61.1881 37.7425 61.1881 38.4657C61.1881 38.5511 61.1536 38.6593 61.3086 38.6593C61.894 38.6536 62.4795 38.6764 63.0649 38.6422C63.5356 38.6137 63.8857 38.3119 63.9488 37.9703C64.0292 37.5318 63.8627 37.2357 63.3978 37.0022C63.4437 36.9737 63.4782 36.951 63.5184 36.9282C63.9775 36.6321 63.9775 36.0285 63.5184 35.7323C63.3347 35.6185 63.1338 35.5501 62.9214 35.5444C62.3934 35.533 61.8596 35.5387 61.3258 35.533L61.3373 35.5273ZM62.4278 36.1822C62.5139 36.1822 62.6 36.1822 62.6861 36.1822C62.864 36.1822 62.9961 36.2619 63.0075 36.4498C63.019 36.6435 62.8927 36.746 62.7091 36.7687C62.6115 36.7801 62.5082 36.7687 62.3532 36.7687C62.2901 36.7573 62.1179 36.8371 62.0548 36.7346C61.9744 36.5979 62.0261 36.4214 62.0318 36.2562C62.0318 36.1651 62.1122 36.1822 62.1753 36.1822C62.2614 36.1822 62.3475 36.1822 62.4336 36.1822H62.4278ZM62.1638 37.3666C62.1696 37.3666 62.181 37.3666 62.1868 37.3666C62.3991 37.378 62.6058 37.378 62.8181 37.4008C62.9788 37.4179 63.0994 37.5147 63.1109 37.6855C63.1223 37.8621 63.0018 37.9532 62.8468 37.9987C62.7033 38.0386 62.5541 38.05 62.4565 38.0386C61.9687 38.0215 62.0318 38.1525 62.0261 37.5318C62.0261 37.4293 62.049 37.3723 62.1409 37.3666C62.1466 37.3666 62.1523 37.3666 62.1638 37.3666Z" fill="white"/>
<path fill-rule="evenodd" clip-rule="evenodd" d="M53.0206 26.5805C53.0206 27.0987 53.0091 27.6055 53.0206 28.1124C53.0263 28.3174 52.9689 28.3743 52.7623 28.3686C52.2285 28.3572 52.2285 28.3686 52.2285 27.8276C52.2285 27.0304 52.2285 26.2332 52.2285 25.4303C52.2285 25.2651 52.2687 25.2196 52.4466 25.2025C52.8197 25.1626 53.0608 25.2879 53.2731 25.6011C53.606 26.0965 53.9848 26.5521 54.3866 27.0703C54.3866 26.4951 54.3981 25.9826 54.3866 25.4701C54.3809 25.2594 54.4383 25.1968 54.6564 25.2025C55.1844 25.2196 55.1844 25.2025 55.1844 25.7264C55.1844 26.535 55.1844 27.3379 55.1844 28.1465C55.1844 28.323 55.1328 28.3572 54.9606 28.3686C54.5932 28.3971 54.3407 28.306 54.1283 27.9757C53.8528 27.5372 53.5085 27.1443 53.187 26.7286C53.1469 26.6773 53.1239 26.6033 53.0206 26.5749V26.5805Z" fill="white"/>
<path d="M114.894 30.3684C114.561 30.3684 114.228 30.3912 113.901 30.3684C113.729 30.357 113.694 30.4253 113.694 30.5848C113.706 31.0347 113.694 31.4845 113.694 31.9344C113.694 32.3842 113.694 32.8626 113.694 33.3295C113.694 33.4605 113.723 33.5288 113.872 33.5288C114.349 33.5117 114.825 33.5459 115.301 33.5003C116.157 33.4206 116.696 32.8569 116.753 31.9685C116.805 31.2226 116.277 30.5734 115.485 30.4197C115.29 30.3798 115.089 30.3684 114.888 30.3684H114.894ZM114.71 31.0574C114.727 31.0574 114.75 31.0574 114.773 31.0574C114.836 31.0688 114.9 31.0631 114.963 31.0574C115.623 30.9891 116.042 31.5813 115.847 32.259C115.726 32.6803 115.468 32.8284 114.905 32.8284C114.343 32.8284 114.526 32.8284 114.526 32.4469C114.526 32.0653 114.538 31.6724 114.526 31.2852C114.521 31.1087 114.572 31.0403 114.716 31.046L114.71 31.0574Z" fill="white"/>
<path d="M117.689 25.2109C117.431 25.2109 117.172 25.2223 116.92 25.2109C116.771 25.2109 116.782 25.302 116.782 25.3932C116.782 25.8601 116.782 26.3214 116.782 26.7883C116.782 27.2552 116.782 27.7165 116.782 28.1834C116.782 28.2802 116.776 28.3714 116.92 28.3657C117.459 28.3429 117.999 28.4112 118.533 28.3258C119.365 28.1834 119.841 27.5798 119.824 26.6858C119.813 25.9398 119.256 25.3533 118.458 25.2508C118.2 25.2166 117.942 25.2109 117.689 25.2166V25.2109ZM117.746 25.9057C117.758 25.9057 117.775 25.9057 117.792 25.9057C117.953 25.917 118.125 25.8943 118.286 25.917C118.711 25.974 119.003 26.3783 118.98 26.8566C118.958 27.3407 118.665 27.6595 118.206 27.688C117.815 27.7146 117.62 27.5343 117.62 27.147V26.7997C117.62 26.5605 117.626 26.3214 117.62 26.0765C117.62 25.9569 117.655 25.9114 117.752 25.9114L117.746 25.9057Z" fill="white"/>
<path d="M81.1448 25.2109C80.8865 25.2109 80.6283 25.2223 80.3757 25.2109C80.2265 25.2109 80.238 25.2964 80.238 25.3932C80.238 25.8601 80.238 26.3214 80.238 26.7883C80.238 27.2552 80.238 27.7165 80.238 28.1834C80.238 28.2575 80.2035 28.3714 80.3413 28.3657C80.9267 28.3486 81.5122 28.4397 82.0919 28.303C82.8839 28.1151 83.3316 27.4716 83.28 26.6459C83.234 25.9114 82.6888 25.3533 81.9197 25.2508C81.6614 25.2166 81.4088 25.2109 81.1506 25.2109H81.1448ZM81.4662 25.9057C81.5638 25.9057 81.6614 25.9057 81.7532 25.9227C82.1665 25.9968 82.4535 26.4011 82.4248 26.8282C82.3903 27.3464 82.1033 27.6539 81.6269 27.6823C81.2558 27.7051 81.0702 27.5305 81.0702 27.1584V26.048C81.0702 25.974 81.0702 25.9057 81.1735 25.9057C81.2711 25.9057 81.3687 25.9057 81.4662 25.9057Z" fill="white"/>
<path d="M109.28 25.2031C109.085 25.2031 109.045 25.2999 109.051 25.4822C109.062 25.9149 109.051 26.3477 109.051 26.7862C109.051 27.2417 109.051 27.703 109.051 28.1585C109.051 28.2497 109.034 28.3692 109.2 28.3635C109.722 28.3465 110.245 28.4034 110.767 28.3294C111.593 28.2098 112.122 27.5777 112.099 26.7463C112.076 25.9149 111.502 25.317 110.675 25.243C110.222 25.2031 109.768 25.2373 109.321 25.2088C109.303 25.2088 109.292 25.2088 109.28 25.2088V25.2031ZM110.388 25.8978C111.134 25.8865 111.45 26.7065 111.117 27.3044C110.962 27.5834 110.71 27.6802 110.394 27.6916C109.877 27.703 109.877 27.7087 109.877 27.2076C109.877 26.7065 109.877 26.9285 109.877 26.7919C109.877 26.5527 109.883 26.3135 109.877 26.0744C109.877 25.9377 109.923 25.8922 110.055 25.9092C110.141 25.9149 110.227 25.9149 110.314 25.9092C110.336 25.9092 110.365 25.9092 110.388 25.9092V25.8978Z" fill="white"/>
<path d="M78.4012 30.3242C77.4083 30.3242 76.6736 31.0189 76.6794 31.9585C76.6794 32.8753 77.4198 33.5757 78.3955 33.5757C79.3655 33.5757 80.1002 32.8753 80.1002 31.9528C80.1002 31.0189 79.377 30.3299 78.4012 30.3242ZM78.3668 31.0303C78.384 31.0303 78.3955 31.0303 78.4127 31.0303C78.8719 31.0417 79.245 31.4517 79.245 31.9471C79.245 32.4653 78.8719 32.8526 78.384 32.8526C77.9019 32.8526 77.5346 32.4482 77.5403 31.9301C77.546 31.4346 77.9076 31.0417 78.3668 31.0303Z" fill="white"/>
<path d="M126.999 30.3242C126.023 30.3242 125.311 31.0019 125.311 31.9244C125.311 32.881 126.023 33.5757 127.01 33.5757C128.009 33.5757 128.721 32.8753 128.726 31.8845C128.732 31.0132 127.969 30.3242 127.004 30.3242H126.999ZM127.022 31.0303C127.492 31.036 127.854 31.4289 127.854 31.9414C127.854 32.4539 127.498 32.8582 127.01 32.8526C126.528 32.8526 126.155 32.4539 126.161 31.9414C126.161 31.4346 126.551 31.0246 127.022 31.0303Z" fill="white"/>
<path d="M76.6391 35.5234C76.289 35.5234 75.9389 35.5462 75.5888 35.5291C75.4568 35.5291 75.4683 35.6202 75.4683 35.7057C75.4683 36.1726 75.4683 36.6339 75.4683 37.1008C75.4683 37.5677 75.4683 38.0119 75.4683 38.4732C75.4683 38.5814 75.4683 38.6725 75.6232 38.6668C76.1168 38.6554 76.6047 38.6839 77.0983 38.6497C77.9191 38.5984 78.4931 37.9777 78.539 37.1521C78.5791 36.3719 78.0683 35.7227 77.2763 35.5804C77.0696 35.5405 76.8573 35.5291 76.6449 35.5234H76.6391ZM76.4383 36.1954C76.444 36.1954 76.4555 36.1954 76.4612 36.1954C76.5531 36.2011 76.6506 36.1954 76.7425 36.1954C77.4427 36.2125 77.8445 36.7876 77.6149 37.4482C77.4944 37.8012 77.2361 37.9834 76.863 38.0005C76.4918 38.0119 76.3043 37.8354 76.3005 37.4709C76.3005 37.3457 76.3005 37.2261 76.3005 37.1008C76.3005 36.8559 76.3005 36.6054 76.3005 36.3605C76.3005 36.2466 76.3349 36.1954 76.4383 36.1954Z" fill="white"/>
<path d="M76.2546 25.1641C75.2617 25.1641 74.5155 25.8531 74.5155 26.787C74.5155 27.6981 75.2387 28.4099 76.1685 28.4156C77.2074 28.4213 77.9306 27.755 77.9363 26.787C77.9421 25.8759 77.2131 25.1641 76.2546 25.1641ZM76.2489 25.8873C76.7253 25.8873 77.0811 26.2745 77.0811 26.787C77.0811 27.2995 76.7023 27.7152 76.2317 27.7095C75.7553 27.7095 75.3822 27.2995 75.3822 26.787C75.3822 26.2745 75.7495 25.8816 76.2431 25.8873H76.2489Z" fill="white"/>
<path d="M90.5865 30.3242C89.6337 30.3242 88.8818 31.0132 88.8818 31.8788C88.8818 32.8639 89.5936 33.5757 90.5922 33.5757C91.5795 33.5757 92.2969 32.881 92.2969 31.9357C92.2969 30.9962 91.5795 30.3242 90.5922 30.3242H90.5865ZM90.6095 31.0303C91.0916 31.036 91.4474 31.4346 91.4417 31.9642C91.4417 32.471 91.0744 32.8582 90.598 32.8582C90.1044 32.8582 89.7428 32.4596 89.7485 31.9244C89.7543 31.4346 90.1446 31.0303 90.6095 31.036V31.0303Z" fill="white"/>
<path d="M126.109 35.4805C125.122 35.4805 124.393 36.1695 124.393 37.092C124.393 37.9974 125.15 38.7377 126.052 38.7263C127.09 38.7092 127.831 38.0316 127.831 37.092C127.831 36.1695 127.096 35.4805 126.109 35.4805ZM126.115 36.1866C126.591 36.1866 126.953 36.5738 126.953 37.0863C126.953 37.6159 126.597 38.0088 126.115 38.0088C125.633 38.0088 125.26 37.6159 125.26 37.0977C125.26 36.5795 125.627 36.1866 126.115 36.1866Z" fill="white"/>
<path d="M95.5111 35.5273C95.3963 35.5273 95.3446 35.5615 95.3446 35.6868C95.3446 36.6264 95.3446 37.5603 95.3446 38.4998C95.3446 38.6194 95.379 38.665 95.5053 38.665C95.9874 38.6593 96.4753 38.6764 96.9574 38.6536C97.7208 38.608 98.3292 38.0158 98.3923 37.2983C98.4612 36.4157 98.0135 35.7722 97.1985 35.5843C96.8828 35.5103 96.5614 35.5501 96.2974 35.533C96.0047 35.533 95.7579 35.533 95.5168 35.533L95.5111 35.5273ZM96.3089 36.1936C96.3146 36.1936 96.3203 36.1936 96.3261 36.1936C96.4122 36.1993 96.4983 36.1936 96.5844 36.1936C97.319 36.205 97.7323 36.8029 97.4683 37.4919C97.3535 37.7994 97.0895 37.9816 96.7508 37.9987C96.3682 38.0139 96.1769 37.8336 96.1769 37.4578V37.0876C96.1769 36.8371 96.1769 36.5922 96.1769 36.3416C96.1769 36.2391 96.2113 36.1936 96.3031 36.1936H96.3089Z" fill="white"/>
<path d="M80.8061 35.4805C79.8533 35.4976 79.1359 36.141 79.1072 37.018C79.0785 37.9917 79.773 38.6921 80.7832 38.7206C81.7474 38.7434 82.505 38.0657 82.528 37.1546C82.551 36.2207 81.8565 35.5089 80.8979 35.4805C80.8693 35.4805 80.8348 35.4805 80.8061 35.4805ZM80.8463 36.1866C81.3055 36.1923 81.69 36.6137 81.6785 37.1034C81.6671 37.6216 81.2997 38.0088 80.8119 38.0088C80.3469 38.0088 79.9509 37.576 79.9624 37.0806C79.9739 36.5795 80.3699 36.1809 80.8463 36.1866Z" fill="white"/>
<path d="M121.936 35.5213C121.586 35.5213 121.236 35.5441 120.886 35.527C120.748 35.527 120.765 35.6124 120.765 35.6978V37.0702C120.765 37.5428 120.765 38.0155 120.765 38.4881C120.765 38.6191 120.8 38.6647 120.938 38.659C121.408 38.6533 121.873 38.6703 122.344 38.6476C123.147 38.6077 123.756 38.0098 123.813 37.2297C123.876 36.3926 123.388 35.732 122.573 35.5726C122.367 35.5327 122.154 35.5156 121.948 35.5156L121.936 35.5213ZM121.781 36.1876C121.804 36.1876 121.822 36.1876 121.845 36.1876C121.936 36.199 122.028 36.199 122.126 36.199C122.797 36.2217 123.073 36.8652 122.912 37.4005C122.803 37.7706 122.522 37.9813 122.114 37.987C121.77 37.9908 121.598 37.8238 121.598 37.4859V37.093C121.598 36.8709 121.609 36.6431 121.598 36.421C121.586 36.2445 121.644 36.1762 121.781 36.1819V36.1876Z" fill="white"/>
<path d="M63.3232 30.3633C62.9674 30.3633 62.6115 30.3804 62.2557 30.369C62.1581 30.369 62.1466 30.4259 62.1466 30.5056C62.1466 31.4566 62.1466 32.4133 62.1466 33.3643C62.1466 34.3152 62.1523 33.5123 62.2499 33.5123C62.4852 33.5123 62.7493 33.592 62.9387 33.4781C63.0649 33.3984 62.9674 33.1479 62.9789 32.9713C62.9789 32.9201 62.9789 32.8631 62.9789 32.8062C62.9789 32.7606 62.9789 32.7037 63.0076 32.6752C63.0822 32.5898 63.593 32.6581 63.6447 32.7606C63.7594 32.9656 63.8628 33.1706 63.9718 33.3756C64.012 33.4554 64.0522 33.5237 64.1612 33.518C64.4252 33.518 64.6893 33.518 64.9992 33.518C64.7868 33.1934 64.6089 32.9087 64.4252 32.6297C64.3621 32.5329 64.3678 32.4759 64.4654 32.4019C64.8959 32.0773 64.959 31.6331 64.85 31.1491C64.7409 30.6879 64.4023 30.4772 63.9603 30.4088C63.748 30.3747 63.5356 30.3633 63.3232 30.3633ZM63.306 31.0068C63.438 31.0068 63.5758 31.0295 63.7021 31.0523C64.0063 31.1036 64.1497 31.3313 64.0923 31.6274C64.0579 31.7869 63.9661 31.9065 63.7996 31.952C63.5643 32.0204 63.3232 31.9862 63.0822 31.9919C62.9961 31.9919 62.9789 31.9406 62.9789 31.8723C62.9789 31.747 62.9789 31.6274 62.9789 31.4737C63.0018 31.3484 62.9042 31.1206 63.019 31.0637C63.1051 31.0238 63.2084 31.0068 63.306 31.0068Z" fill="white"/>
<path d="M103.661 25.2109C103.501 25.2109 103.466 25.2964 103.466 25.4387C103.466 26.3384 103.466 27.2382 103.466 28.1379C103.466 28.3144 103.524 28.377 103.713 28.3714C104.304 28.3657 104.304 28.3714 104.304 27.7791C104.304 27.6937 104.275 27.6026 104.327 27.5286C104.396 27.4375 104.907 27.5001 104.964 27.6083C105.079 27.819 105.194 28.0297 105.303 28.2461C105.343 28.3201 105.383 28.3714 105.481 28.3714C105.745 28.3714 106.009 28.3714 106.319 28.3714C106.112 28.0468 105.934 27.762 105.751 27.4887C105.687 27.3919 105.693 27.335 105.791 27.2609C106.227 26.9193 106.302 26.458 106.164 25.9626C106.032 25.507 105.664 25.3134 105.217 25.2508C104.712 25.1825 104.201 25.2394 103.696 25.2109C103.684 25.2109 103.673 25.2109 103.661 25.2109ZM104.545 25.8715C104.614 25.8715 104.7 25.8772 104.815 25.8886C104.999 25.9 105.194 25.8886 105.326 26.0594C105.532 26.3214 105.412 26.72 105.091 26.8054C104.993 26.8339 104.89 26.8339 104.792 26.8339C104.31 26.8339 104.31 26.8339 104.31 26.3498C104.31 25.8658 104.31 25.8715 104.551 25.8715H104.545Z" fill="white"/>
<path d="M53.7324 35.5273C53.5889 35.5273 53.5544 35.59 53.5544 35.738C53.5602 36.5068 53.5544 37.2698 53.5544 38.0386C53.5544 38.8073 53.5544 38.6991 54.2317 38.665C54.358 38.6593 54.3982 38.6194 54.3924 38.4998C54.3867 38.329 54.3924 38.1582 54.3924 37.9873C54.3924 37.9361 54.3752 37.8735 54.4211 37.8336C54.5015 37.7539 55.0008 37.8222 55.0582 37.9247C55.173 38.1297 55.2821 38.3347 55.3854 38.5397C55.4256 38.6137 55.4657 38.6593 55.5633 38.6593C55.8273 38.6593 56.0914 38.6593 56.3956 38.6593C56.1947 38.3461 56.0167 38.0557 55.8331 37.771C55.7872 37.6969 55.747 37.6514 55.8503 37.5716C56.275 37.2357 56.4128 36.7232 56.2349 36.2221C56.0914 35.8121 55.6953 35.5558 55.1615 35.5387C54.6909 35.5273 54.226 35.5387 53.7553 35.5273C53.7439 35.5273 53.7324 35.5273 53.7266 35.5273H53.7324ZM54.8516 36.1879C54.9434 36.1879 55.041 36.1879 55.1328 36.205C55.3854 36.2562 55.5231 36.4271 55.5117 36.6833C55.5059 36.9339 55.3509 37.0933 55.0927 37.1275C55.041 37.1332 54.9836 37.1332 54.932 37.1389C54.5761 37.1692 54.3982 37.0079 54.3982 36.6548C54.3982 36.3018 54.5512 36.148 54.8573 36.1936L54.8516 36.1879Z" fill="white"/>
<path d="M84.6345 35.5285C84.2901 35.5285 83.94 35.5513 83.5956 35.5285C83.4005 35.5171 83.3661 35.5911 83.3718 35.7676C83.3775 36.525 83.3718 37.2881 83.3718 38.0454C83.3718 38.8028 83.3718 38.6832 84.0204 38.6718C84.1581 38.6718 84.2213 38.6376 84.2098 38.4896C84.1983 38.3131 84.2098 38.1308 84.2098 37.9543C84.2098 37.8917 84.2098 37.8404 84.2959 37.8176C84.5943 37.7436 84.8067 37.8347 84.9559 38.1024C85.0363 38.2447 85.1109 38.3871 85.1855 38.5351C85.2314 38.6263 85.2888 38.6718 85.4036 38.6718C85.6504 38.6661 85.903 38.6718 86.2072 38.6718C86.012 38.3643 85.8456 38.0853 85.6619 37.8176C85.5873 37.7094 85.5758 37.6525 85.6963 37.5614C86.1153 37.2539 86.1612 36.804 86.0809 36.3485C86.0005 35.9157 85.6849 35.6765 85.2601 35.5968C85.0535 35.5569 84.8469 35.5456 84.6402 35.5399L84.6345 35.5285ZM84.6001 36.1833C84.7091 36.1833 84.8182 36.1833 84.9272 36.2004C85.1855 36.246 85.329 36.4225 85.329 36.6617C85.329 36.9179 85.1855 37.0717 84.9272 37.1229C84.7321 37.1628 84.5369 37.1343 84.3475 37.1457C84.2385 37.1457 84.2155 37.0888 84.2213 36.9976C84.2213 36.8496 84.2213 36.7015 84.2213 36.5592C84.2213 36.3086 84.3494 36.1814 84.6058 36.1776L84.6001 36.1833Z" fill="white"/>
<path fill-rule="evenodd" clip-rule="evenodd" d="M92.3888 26.7826C92.3888 26.327 92.3888 25.8658 92.3888 25.4102C92.3888 25.2622 92.4289 25.2109 92.5839 25.2109C93.2899 25.2166 93.9901 25.2166 94.6961 25.2109C94.8511 25.2109 94.9085 25.2565 94.9027 25.4045C94.897 26.0025 94.9601 25.8772 94.4493 25.8886C94.1049 25.8943 93.7605 25.9 93.4162 25.8886C93.2555 25.8886 93.221 25.9398 93.221 26.0879C93.221 26.4637 93.221 26.4637 93.6056 26.4637C93.9901 26.4637 94.2484 26.4637 94.5641 26.4637C94.6846 26.4637 94.7248 26.4979 94.7248 26.6232C94.742 27.1186 94.7478 27.1186 94.2484 27.1186C93.9672 27.1186 93.6859 27.13 93.4047 27.1186C93.2669 27.1186 93.2095 27.1527 93.2153 27.3008C93.2268 27.7791 93.1694 27.6823 93.5884 27.688C93.9729 27.6937 94.3517 27.6937 94.7363 27.688C94.8912 27.688 94.9372 27.7393 94.9372 27.8873C94.9372 28.3657 94.9486 28.3657 94.4723 28.3657C93.9959 28.3657 93.2382 28.36 92.6184 28.3657C92.4289 28.3657 92.3601 28.3258 92.3658 28.1265C92.383 27.6766 92.3658 27.2268 92.3658 26.7769L92.3888 26.7826Z" fill="white"/>
<path fill-rule="evenodd" clip-rule="evenodd" d="M107.128 37.071C107.128 36.6211 107.128 36.1713 107.128 35.7214C107.128 35.5677 107.174 35.5221 107.329 35.5278C108.035 35.5335 108.735 35.5335 109.441 35.5278C109.613 35.5278 109.648 35.5848 109.648 35.7442C109.648 36.1941 109.648 36.1941 109.189 36.1941C108.729 36.1941 108.546 36.2054 108.23 36.1941C108.023 36.1827 107.96 36.2567 107.995 36.4446C107.995 36.4503 107.995 36.4617 107.995 36.4674C107.995 36.6724 108.094 36.7749 108.293 36.7749C108.615 36.7749 108.936 36.7806 109.252 36.7749C109.43 36.7692 109.504 36.8091 109.499 37.0027C109.476 37.5266 109.562 37.4354 109.045 37.4411C108.764 37.4411 108.483 37.4582 108.201 37.4411C108.012 37.4298 107.966 37.5095 107.989 37.6746C107.989 37.7031 107.989 37.7373 107.989 37.7657C107.96 37.9536 108.023 38.022 108.224 38.0163C108.643 37.9992 109.068 38.0163 109.493 38.0106C109.648 38.0106 109.694 38.0561 109.694 38.2042C109.694 38.6711 109.699 38.6711 109.229 38.6711C108.758 38.6711 107.96 38.6711 107.329 38.6711C107.174 38.6711 107.128 38.6256 107.128 38.4775C107.134 38.0106 107.128 37.5493 107.128 37.0824V37.071Z" fill="white"/>
<path fill-rule="evenodd" clip-rule="evenodd" d="M84.1236 26.7769C84.1236 26.3214 84.1294 25.8601 84.1236 25.4045C84.1236 25.2451 84.1753 25.2109 84.3245 25.2109C85.019 25.2166 85.7135 25.2166 86.408 25.2109C86.5687 25.2109 86.6204 25.2451 86.6204 25.4159C86.6204 25.8886 86.6204 25.8886 86.144 25.8886C85.6676 25.8886 85.4897 25.8943 85.1625 25.8886C85.0133 25.8886 84.9559 25.9284 84.9616 26.0822C84.9731 26.5548 84.9157 26.4523 85.3462 26.4637C85.6676 26.4694 85.989 26.4694 86.3047 26.4637C86.4424 26.4637 86.4711 26.5093 86.4769 26.6402C86.4884 27.1186 86.4941 27.1186 86.0062 27.1186C85.725 27.1186 85.4438 27.13 85.1625 27.1186C85.0133 27.1186 84.9387 27.1527 84.9616 27.3122C84.9616 27.352 84.9616 27.3919 84.9616 27.4261C84.9329 27.6254 84.9961 27.6994 85.2142 27.688C85.6217 27.6709 86.0235 27.688 86.431 27.6766C86.6089 27.6766 86.6778 27.7108 86.672 27.9044C86.6606 28.3543 86.672 28.36 86.2186 28.36C85.7652 28.36 84.9559 28.36 84.3188 28.36C84.1638 28.36 84.1179 28.3144 84.1236 28.1607C84.1351 27.6937 84.1236 27.2325 84.1236 26.7655V26.7769Z" fill="white"/>
<path fill-rule="evenodd" clip-rule="evenodd" d="M117.586 31.9445C117.586 31.489 117.591 31.0277 117.586 30.5722C117.586 30.4071 117.637 30.3672 117.798 30.3672C118.493 30.3729 119.187 30.3729 119.887 30.3672C120.037 30.3672 120.111 30.39 120.105 30.5665C120.105 31.0277 120.105 31.0277 119.635 31.0277C119.164 31.0277 118.963 31.0391 118.625 31.0277C118.452 31.0221 118.412 31.0847 118.418 31.2384C118.435 31.6997 118.366 31.6143 118.803 31.62C119.124 31.62 119.445 31.62 119.761 31.62C119.882 31.62 119.916 31.6598 119.922 31.7794C119.945 32.2748 119.945 32.2691 119.463 32.2748C119.181 32.2748 118.9 32.2919 118.619 32.2748C118.447 32.2691 118.412 32.3318 118.418 32.4912C118.435 32.9126 118.372 32.8386 118.78 32.8443C119.164 32.8443 119.543 32.85 119.928 32.8443C120.082 32.8443 120.151 32.8727 120.146 33.0493C120.117 33.5561 120.26 33.5219 119.681 33.5219C119.072 33.5219 118.464 33.5105 117.85 33.5276C117.626 33.5333 117.574 33.4593 117.58 33.2486C117.591 32.8158 117.58 32.383 117.58 31.9445H117.586Z" fill="white"/>
<path fill-rule="evenodd" clip-rule="evenodd" d="M105.429 31.9222C105.429 31.4667 105.429 31.0054 105.429 30.5499C105.429 30.4075 105.469 30.362 105.613 30.3677C106.33 30.3733 107.048 30.3677 107.771 30.3677C107.903 30.3677 107.943 30.4075 107.949 30.5385C107.96 31.0282 107.966 31.0282 107.484 31.0282C107.002 31.0282 106.795 31.0339 106.451 31.0282C106.302 31.0282 106.267 31.0738 106.267 31.2161C106.267 31.6261 106.261 31.6261 106.669 31.6261C107.076 31.6261 107.277 31.6261 107.582 31.6261C107.714 31.6261 107.771 31.6546 107.777 31.8027C107.782 32.281 107.788 32.281 107.3 32.281C107.019 32.281 106.738 32.2924 106.457 32.281C106.296 32.2753 106.25 32.3379 106.267 32.4803C106.273 32.5259 106.273 32.5714 106.267 32.617C106.238 32.7992 106.307 32.8561 106.497 32.8504C106.91 32.8334 107.323 32.8504 107.736 32.8447C107.914 32.8447 107.989 32.8903 107.989 33.0725C107.983 33.6306 108.035 33.5167 107.553 33.5224C106.927 33.5281 106.302 33.5224 105.676 33.5224C105.492 33.5224 105.418 33.4711 105.423 33.2718C105.441 32.822 105.423 32.3721 105.423 31.9222H105.429Z" fill="white"/>
<path fill-rule="evenodd" clip-rule="evenodd" d="M59.9311 30.375C60.2927 30.375 60.6485 30.375 61.0101 30.375C61.1421 30.375 61.1823 30.4149 61.188 30.5458C61.1995 31.0356 61.2053 31.0356 60.7231 31.0356C60.241 31.0356 60.0229 31.0356 59.667 31.0356C59.5465 31.0356 59.5063 31.0697 59.5006 31.195C59.4834 31.6335 59.4776 31.6335 59.9253 31.6335C60.373 31.6335 60.5165 31.6335 60.815 31.6335C60.947 31.6335 61.0101 31.6562 61.0101 31.81C61.0158 32.2883 61.0273 32.2883 60.5337 32.2883C60.2525 32.2883 59.9712 32.2997 59.69 32.2883C59.5522 32.2883 59.4948 32.3225 59.5006 32.4706C59.5121 32.9432 59.4547 32.8521 59.8794 32.8578C60.264 32.8635 60.6428 32.8635 61.0273 32.8578C61.1593 32.8578 61.2053 32.8976 61.2167 33.0286C61.2684 33.5297 61.2627 33.5411 60.7748 33.5411C60.1606 33.5411 59.5408 33.5411 58.9266 33.5411C58.7372 33.5411 58.6569 33.4956 58.6569 33.2792C58.6683 32.3908 58.6683 31.4968 58.6569 30.6085C58.6569 30.4376 58.697 30.3807 58.875 30.3864C59.2251 30.4035 59.5752 30.3864 59.9311 30.3864V30.375Z" fill="white"/>
<path fill-rule="evenodd" clip-rule="evenodd" d="M99.2361 37.0819C99.2361 36.6321 99.2418 36.1822 99.2361 35.7323C99.2361 35.5672 99.2877 35.5273 99.4484 35.5273C100.149 35.533 100.855 35.533 101.555 35.5273C101.687 35.5273 101.75 35.5501 101.75 35.7039C101.761 36.1879 101.767 36.1879 101.279 36.1879C100.791 36.1879 100.591 36.1936 100.246 36.1879C100.097 36.1879 100.063 36.2335 100.068 36.3758C100.08 36.8541 100.011 36.7573 100.464 36.7687C100.774 36.7687 101.09 36.7744 101.4 36.7687C101.532 36.7687 101.572 36.8086 101.572 36.9396C101.584 37.435 101.589 37.435 101.096 37.435C100.814 37.435 100.533 37.4464 100.252 37.435C100.108 37.435 100.063 37.4748 100.063 37.6172C100.063 38.0044 100.057 38.0044 100.441 38.0044C100.826 38.0044 101.222 38.0044 101.612 38.0044C101.739 38.0044 101.79 38.0329 101.79 38.1696C101.807 38.665 101.813 38.665 101.308 38.665C100.803 38.665 100.074 38.6593 99.4599 38.665C99.2705 38.665 99.2246 38.608 99.2303 38.4258C99.2418 37.976 99.2303 37.5261 99.2303 37.0762L99.2361 37.0819Z" fill="white"/>
<path fill-rule="evenodd" clip-rule="evenodd" d="M87.0739 37.0894C87.0739 36.6395 87.0796 36.1897 87.0739 35.7398C87.0739 35.5861 87.1083 35.5234 87.2805 35.5234C87.9865 35.5348 88.6867 35.5291 89.3927 35.5234C89.5362 35.5234 89.5763 35.5633 89.5763 35.7057C89.5763 36.184 89.5878 36.184 89.1057 36.184C88.6236 36.184 88.4514 36.1897 88.1242 36.184C87.9578 36.1783 87.8946 36.2352 87.9176 36.3947C87.9233 36.4459 87.9233 36.5029 87.9176 36.5598C87.8946 36.725 87.975 36.7705 88.1299 36.7648C88.4915 36.7591 88.8474 36.7648 89.209 36.7648C89.3754 36.7648 89.4386 36.8161 89.4328 36.9926C89.4214 37.4254 89.4328 37.4254 88.9909 37.4254C88.6924 37.4254 88.3997 37.4368 88.1012 37.4311C87.9578 37.4311 87.9004 37.4823 87.9176 37.619C87.9233 37.6873 87.9233 37.7614 87.9176 37.8297C87.9061 37.9607 87.9578 38.0062 88.0898 38.0005C88.526 37.9948 88.9622 38.0005 89.4041 37.9948C89.5763 37.9948 89.6337 38.029 89.628 38.2112C89.6165 38.6554 89.628 38.6611 89.1688 38.6611C88.7096 38.6611 87.952 38.6554 87.3436 38.6611C87.1427 38.6611 87.0681 38.6269 87.0796 38.4105C87.0968 37.972 87.0853 37.5279 87.0853 37.0837L87.0739 37.0894Z" fill="white"/>
<path fill-rule="evenodd" clip-rule="evenodd" d="M102.473 26.3215C102.473 26.5948 102.473 26.8625 102.473 27.1358C102.462 27.8476 101.991 28.3487 101.274 28.4114C100.975 28.4398 100.682 28.4227 100.401 28.3089C99.8962 28.0925 99.6321 27.7052 99.6149 27.17C99.592 26.5721 99.6149 25.9741 99.6092 25.3762C99.6092 25.2623 99.6379 25.2168 99.7642 25.2111C100.447 25.1769 100.447 25.1712 100.447 25.8546C100.447 26.5379 100.447 26.6632 100.447 27.0618C100.447 27.4547 100.7 27.7109 101.056 27.7109C101.406 27.7109 101.63 27.4718 101.635 27.0675C101.641 26.5379 101.641 26.014 101.635 25.4844C101.635 25.2851 101.681 25.1997 101.911 25.2054C102.473 25.2225 102.473 25.2054 102.473 25.7577V26.3158V26.3215Z" fill="white"/>
<path fill-rule="evenodd" clip-rule="evenodd" d="M70.67 26.3213C70.67 26.5832 70.67 26.8508 70.67 27.1128C70.67 27.8303 70.2223 28.3314 69.4991 28.4111C69.1719 28.4453 68.8448 28.4282 68.5348 28.2802C68.0642 28.0581 67.8289 27.6765 67.8117 27.1754C67.7887 26.5718 67.8117 25.9682 67.8002 25.3646C67.8002 25.2564 67.8346 25.2052 67.9494 25.2165C67.9551 25.2165 67.9666 25.2165 67.9724 25.2165C68.4239 25.1976 68.6496 25.412 68.6496 25.86C68.6496 26.2643 68.6496 26.6629 68.6496 27.0672C68.6496 27.4431 68.8907 27.705 69.2351 27.7107C69.5909 27.7221 69.8263 27.4829 69.832 27.0843C69.8377 26.549 69.832 26.0138 69.832 25.4785C69.832 25.2906 69.8722 25.1938 70.1075 25.1995C70.67 25.2165 70.67 25.1995 70.67 25.7575V26.3156V26.3213Z" fill="white"/>
<path d="M99.7641 30.3672C99.6034 30.3672 99.5288 30.4184 99.4714 30.5608C99.1098 31.4093 98.7424 32.2577 98.3808 33.1005C98.2584 33.3814 98.3483 33.5219 98.6506 33.5219C99.0524 33.5219 99.0581 33.5219 99.1959 33.1689C99.2533 33.0265 99.3221 32.9639 99.4828 32.9695C99.7813 32.9866 100.08 32.9866 100.372 32.9695C100.585 32.9582 100.688 33.0265 100.734 33.2258C100.78 33.4536 100.912 33.5732 101.159 33.5219C101.199 33.5162 101.239 33.5219 101.274 33.5219C101.308 33.5219 101.383 33.5219 101.44 33.5219C101.739 33.5219 101.744 33.5219 101.624 33.2429C101.302 32.4798 100.981 31.7168 100.654 30.9537C100.407 30.3672 100.407 30.3729 99.7583 30.3672H99.7641ZM99.965 31.2384C100.097 31.5801 100.218 31.8933 100.338 32.1951C100.372 32.2862 100.35 32.3261 100.252 32.3204C100.246 32.3204 100.235 32.3204 100.229 32.3204C99.7583 32.3545 99.6053 32.1552 99.7698 31.7225C99.8272 31.5744 99.8904 31.4264 99.965 31.2327V31.2384Z" fill="white"/>
<path d="M114.079 25.2109C113.93 25.2109 113.861 25.2622 113.803 25.3989C113.436 26.2701 113.057 27.1357 112.684 28.0069C112.529 28.3714 112.529 28.3429 112.919 28.377C113.264 28.4055 113.493 28.3372 113.551 27.967C113.568 27.8475 113.648 27.8133 113.769 27.819C114.033 27.8304 114.303 27.819 114.567 27.819C114.957 27.819 114.963 27.819 115.1 28.1891C115.152 28.3258 115.215 28.3884 115.37 28.377C115.588 28.3657 115.806 28.377 116.059 28.377C116.019 28.2632 115.99 28.1834 115.956 28.1094C115.634 27.3464 115.307 26.5833 114.986 25.8202C114.733 25.2223 114.733 25.2223 114.079 25.228V25.2109ZM114.291 26.0879C114.435 26.458 114.549 26.7598 114.67 27.0673C114.704 27.1641 114.653 27.1698 114.578 27.1698C114.354 27.1698 114.13 27.1698 113.866 27.1698C114.004 26.8168 114.136 26.4808 114.291 26.0879Z" fill="white"/>
<path d="M72.7764 35.5273C72.6272 35.5273 72.5583 35.5729 72.5009 35.7096C72.2885 36.2164 72.0647 36.7175 71.8466 37.2243C71.6457 37.6912 71.4448 38.1639 71.2267 38.665C71.3989 38.665 71.5366 38.665 71.6744 38.665C72.0761 38.665 72.0761 38.665 72.2311 38.2948C72.2713 38.1923 72.3172 38.124 72.4492 38.1297C72.8108 38.1354 73.1667 38.1297 73.5283 38.1297C73.6316 38.1297 73.7005 38.1696 73.7119 38.2664C73.7636 38.6479 74.0104 38.7162 74.3433 38.665C74.4064 38.6536 74.4696 38.6593 74.5327 38.665C74.7221 38.6878 74.7623 38.6422 74.6762 38.4543C74.3376 37.6798 74.0104 36.8997 73.6832 36.1253C73.4307 35.5273 73.4307 35.533 72.7706 35.533L72.7764 35.5273ZM72.9887 36.3986C73.1208 36.746 73.2356 37.0478 73.3618 37.3496C73.402 37.4521 73.379 37.4919 73.27 37.4919C73.0806 37.4919 72.8969 37.4919 72.7075 37.4919C72.6157 37.4919 72.5698 37.4578 72.6099 37.3666C72.7305 37.0591 72.8567 36.7516 72.9945 36.4043L72.9887 36.3986Z" fill="white"/>
<path d="M66.0783 35.5273C65.929 35.5273 65.8544 35.5729 65.797 35.7096C65.5961 36.1879 65.3895 36.6662 65.1829 37.1389C64.9705 37.6343 64.7524 38.1297 64.5286 38.665C64.718 38.665 64.8615 38.6479 64.9992 38.665C65.2862 38.6992 65.4756 38.6308 65.5273 38.3176C65.5445 38.2151 65.5961 38.124 65.7454 38.1297C66.107 38.1411 66.4628 38.1354 66.8244 38.1297C66.9277 38.1297 66.9909 38.1639 67.0081 38.2664C67.0655 38.6365 67.3065 38.7276 67.6394 38.665C67.6911 38.6536 67.7485 38.6593 67.8059 38.665C68.0125 38.6878 68.0584 38.6422 67.9723 38.4315C67.6337 37.6685 67.318 36.894 66.9909 36.1196C66.7383 35.5216 66.7383 35.5273 66.0783 35.5273ZM66.2849 36.3929C66.4226 36.746 66.5432 37.0591 66.6637 37.3723C66.6924 37.4521 66.6522 37.4862 66.5719 37.4862C66.3767 37.4862 66.1816 37.4862 65.9922 37.4862C65.8659 37.4862 65.8774 37.4236 65.9118 37.3382C66.0324 37.0364 66.1529 36.7403 66.2849 36.3929Z" fill="white"/>
<path d="M58.4905 35.5273C58.324 35.5273 58.2609 35.59 58.2035 35.7266C57.8534 36.5523 57.4918 37.378 57.1359 38.2037C56.935 38.665 56.935 38.6479 57.4344 38.6707C57.7099 38.6821 57.8763 38.6194 57.928 38.3347C57.9567 38.1753 58.06 38.1183 58.2322 38.124C58.5134 38.1411 58.7947 38.1525 59.0759 38.124C59.3055 38.1012 59.4318 38.1582 59.472 38.386C59.5121 38.6137 59.6499 38.7105 59.8852 38.665C59.9254 38.6593 59.9656 38.665 60 38.665H60.1894C60.4764 38.665 60.4764 38.665 60.3731 38.4144C60.0517 37.6514 59.7302 36.8883 59.4088 36.1253C59.1563 35.5273 59.1563 35.533 58.502 35.533L58.4905 35.5273ZM58.6971 36.3929C58.8349 36.7516 58.9554 37.0478 59.0759 37.3496C59.1104 37.4407 59.0989 37.4919 58.9841 37.4862C58.8062 37.4805 58.6225 37.4805 58.4446 37.4862C58.3126 37.4919 58.2781 37.4578 58.3298 37.3325C58.4503 37.0421 58.5651 36.746 58.6971 36.3929Z" fill="white"/>
<path d="M118.091 35.5273C117.913 35.5273 117.832 35.59 117.769 35.7494C117.413 36.5922 117.046 37.4293 116.685 38.2664C116.57 38.5321 116.662 38.665 116.96 38.665C117.362 38.665 117.368 38.665 117.517 38.2948C117.568 38.1639 117.643 38.124 117.775 38.1297C118.119 38.1354 118.464 38.1297 118.808 38.1297C118.9 38.1297 118.969 38.1354 118.98 38.2379C119.044 38.6593 119.319 38.7276 119.681 38.6764C119.784 38.6593 119.899 38.6764 120.042 38.6764C119.669 37.7937 119.319 36.9566 118.963 36.1139C118.722 35.5444 118.722 35.5501 118.085 35.5387L118.091 35.5273ZM118.274 36.3929C118.424 36.7801 118.556 37.1161 118.699 37.4862C118.447 37.4862 118.229 37.4805 118.01 37.4862C117.867 37.4862 117.855 37.4464 117.901 37.3268C118.022 37.0364 118.137 36.7403 118.274 36.3929Z" fill="white"/>
<path fill-rule="evenodd" clip-rule="evenodd" d="M98.6736 27.406V27.6395C98.6736 28.0722 98.6736 28.0665 98.2546 28.2374C97.7954 28.4253 97.319 28.4879 96.8369 28.3456C96.0793 28.1292 95.6258 27.4629 95.6718 26.6714C95.7119 25.9539 96.2744 25.3446 97.0263 25.2079C97.5831 25.1054 98.0939 25.225 98.5703 25.5211C98.7138 25.6122 98.7195 25.6863 98.6047 25.8002C98.4899 25.914 98.4153 26.0906 98.2833 26.1646C98.1226 26.25 98.025 26.0279 97.8758 25.9767C97.5084 25.8514 97.1526 25.8229 96.8369 26.0906C96.5384 26.3468 96.4868 26.6942 96.5671 27.0472C96.6475 27.4003 96.8943 27.6167 97.2559 27.6964C97.474 27.742 97.6692 27.6793 97.87 27.5996C97.9504 27.5654 97.9676 27.5085 97.9619 27.4345C97.9619 27.2636 97.9619 27.0928 97.9619 26.922C97.9619 26.8024 97.9848 26.7454 98.1283 26.7397C98.6736 26.7227 98.6736 26.717 98.6736 27.2636V27.406Z" fill="white"/>
<path fill-rule="evenodd" clip-rule="evenodd" d="M90.3052 25.1562C90.6955 25.1676 91.0628 25.2644 91.4072 25.4353C91.5105 25.4865 91.5392 25.5435 91.4818 25.6517C91.3957 25.8054 91.3613 26.0275 91.2292 26.1129C91.0915 26.204 90.9308 26.0104 90.7701 25.9649C90.5577 25.9022 90.3511 25.8339 90.1272 25.851C90.0182 25.8624 89.9263 25.8965 89.8977 26.0104C89.869 26.1243 89.9264 26.204 90.0182 26.2667C90.1732 26.3635 90.3511 26.3976 90.5175 26.4546C90.6725 26.5058 90.8332 26.5514 90.9824 26.614C91.3039 26.7507 91.5162 26.9785 91.5392 27.3486C91.5621 27.7529 91.4072 28.0547 91.0398 28.2426C90.4544 28.5444 89.3811 28.4078 88.8932 27.9693C88.8645 27.9465 88.8186 27.901 88.8243 27.8839C88.9162 27.6846 89.0023 27.491 89.1113 27.3031C89.1458 27.2404 89.2032 27.3144 89.2433 27.3429C89.4787 27.5081 89.7369 27.6333 90.0239 27.7017C90.1559 27.7301 90.288 27.7415 90.42 27.7131C90.529 27.696 90.6266 27.6504 90.6495 27.5138C90.6668 27.3885 90.6094 27.3031 90.5118 27.2461C90.3568 27.155 90.1732 27.1265 90.0067 27.0696C89.8345 27.0126 89.6623 26.9671 89.5016 26.8931C88.899 26.614 88.8243 25.8225 89.3581 25.4239C89.6394 25.2132 89.9665 25.1676 90.3052 25.1619V25.1562Z" fill="white"/>
<path fill-rule="evenodd" clip-rule="evenodd" d="M130.81 30.3188C131.2 30.3131 131.562 30.4156 131.912 30.5864C132.032 30.6434 132.055 30.7003 131.986 30.8199C131.9 30.9737 131.866 31.1957 131.734 31.2755C131.608 31.3552 131.435 31.1673 131.275 31.1217C131.085 31.0648 130.902 31.0021 130.706 31.0135C130.58 31.0192 130.442 31.0135 130.414 31.1787C130.385 31.3381 130.494 31.4235 130.626 31.4748C130.873 31.5659 131.131 31.6399 131.378 31.7253C131.676 31.8278 131.923 31.9873 132.021 32.3119C132.187 32.887 131.843 33.4109 131.194 33.5305C130.586 33.6387 130.018 33.5191 129.495 33.1888C129.358 33.1034 129.318 33.018 129.409 32.8699C129.495 32.7332 129.536 32.5225 129.65 32.4599C129.759 32.4087 129.897 32.6023 130.035 32.6649C130.282 32.7845 130.534 32.887 130.816 32.8813C130.971 32.8813 131.125 32.8528 131.171 32.6763C131.217 32.4827 131.068 32.3973 130.919 32.3403C130.661 32.2492 130.397 32.1809 130.138 32.0898C129.731 31.9417 129.541 31.6969 129.53 31.3267C129.518 30.8996 129.708 30.6035 130.104 30.4327C130.316 30.3416 130.5 30.3074 130.81 30.3131V30.3188Z" fill="white"/>
<path fill-rule="evenodd" clip-rule="evenodd" d="M57.4631 25.1562C57.8533 25.1562 58.2149 25.2588 58.5651 25.4239C58.6799 25.4808 58.7143 25.5378 58.6512 25.6574C58.5651 25.8168 58.5306 26.0332 58.4044 26.1186C58.2723 26.204 58.1059 26.0104 57.9509 25.9649C57.7386 25.9022 57.5377 25.8282 57.3081 25.851C57.199 25.8624 57.1015 25.8908 57.067 26.0047C57.0326 26.13 57.1015 26.2211 57.2048 26.2724C57.3253 26.3293 57.4458 26.3749 57.5721 26.4147C57.7845 26.4831 58.0083 26.54 58.2092 26.6368C58.5019 26.7792 58.6799 27.0013 58.7028 27.3429C58.7258 27.7188 58.5995 28.0149 58.2723 28.2085C57.8419 28.4533 57.377 28.459 56.9063 28.3508C56.6136 28.2825 56.3438 28.1686 56.097 27.9978C56.0109 27.9351 55.965 27.8839 56.0281 27.7757C56.12 27.6219 56.1544 27.3942 56.2864 27.3201C56.4242 27.2404 56.5562 27.4682 56.7112 27.5308C56.9637 27.6333 57.2163 27.7472 57.4975 27.7244C57.6467 27.7131 57.7902 27.6846 57.8189 27.5138C57.8476 27.3486 57.7271 27.2518 57.5893 27.2062C57.3023 27.1037 57.0096 27.024 56.7226 26.9215C56.4701 26.8304 56.2807 26.6653 56.2003 26.3976C56.0741 25.9649 56.252 25.5492 56.6538 25.3328C56.9006 25.2018 57.1646 25.1563 57.4458 25.1619L57.4631 25.1562Z" fill="white"/>
<path fill-rule="evenodd" clip-rule="evenodd" d="M56.5218 33.5556C56.0569 33.5556 55.6322 33.4189 55.2419 33.1684C55.1271 33.0943 55.0697 33.0317 55.1615 32.895C55.2533 32.7527 55.2878 32.5306 55.4083 32.4622C55.5288 32.3996 55.6666 32.6046 55.8158 32.6672C56.0511 32.7697 56.2865 32.8779 56.5505 32.8779C56.7169 32.8779 56.8949 32.8609 56.9293 32.6559C56.9637 32.4565 56.803 32.3882 56.6538 32.337C56.4013 32.2515 56.143 32.1889 55.8962 32.0978C55.4657 31.9384 55.2763 31.6707 55.282 31.2664C55.2878 30.8735 55.5174 30.5489 55.9249 30.4179C56.539 30.2186 57.1245 30.3154 57.6927 30.5945C57.7902 30.64 57.8189 30.6913 57.7616 30.7938C57.6755 30.9475 57.641 31.1639 57.5147 31.2607C57.3655 31.3689 57.2048 31.1639 57.0384 31.1184C56.826 31.0557 56.6194 30.9988 56.3955 31.0159C56.2865 31.0215 56.1946 31.0557 56.1659 31.1753C56.143 31.2892 56.2004 31.3689 56.2922 31.4259C56.4587 31.5284 56.6538 31.5682 56.8375 31.6309C56.9752 31.6764 57.1187 31.7163 57.2565 31.7732C57.6008 31.9213 57.8017 32.1718 57.8075 32.559C57.8132 32.969 57.6238 33.2538 57.2622 33.4246C57.0269 33.5385 56.7686 33.5613 56.5103 33.5613L56.5218 33.5556Z" fill="white"/>
<path fill-rule="evenodd" clip-rule="evenodd" d="M82.0288 33.559C81.6327 33.5533 81.2195 33.4109 80.8407 33.1604C80.7431 33.092 80.7029 33.0294 80.7718 32.9155C80.8579 32.7674 80.8923 32.551 81.0186 32.477C81.1678 32.3859 81.2883 32.6137 81.4433 32.6763C81.6901 32.7788 81.9312 32.887 82.2067 32.8813C82.3674 32.8813 82.5396 32.8472 82.5683 32.6535C82.597 32.4713 82.4477 32.3973 82.3043 32.346C82.046 32.2549 81.782 32.1866 81.5294 32.0955C81.1104 31.9417 80.9095 31.6684 80.9038 31.2869C80.9038 30.9054 81.1219 30.5751 81.5122 30.4327C82.1435 30.2049 82.7577 30.3074 83.3431 30.6035C83.4177 30.6434 83.4522 30.689 83.4005 30.7687C83.3948 30.7801 83.389 30.7972 83.3833 30.8142C83.3087 30.968 83.2685 31.1673 83.148 31.2584C82.9987 31.3723 82.8495 31.1616 82.6945 31.116C82.4822 31.0591 82.2756 30.9851 82.0517 31.0022C81.9369 31.0135 81.8279 31.0363 81.7992 31.1673C81.7705 31.2926 81.8566 31.3723 81.9541 31.4292C82.1034 31.5147 82.2698 31.5545 82.4363 31.6058C82.5855 31.6513 82.7347 31.7026 82.8782 31.7595C83.2341 31.9019 83.4464 32.1524 83.4522 32.551C83.4579 32.961 83.2743 33.2458 82.9069 33.4166C82.6544 33.5305 82.3904 33.5817 82.046 33.5533L82.0288 33.559Z" fill="white"/>
<path fill-rule="evenodd" clip-rule="evenodd" d="M86.982 30.3173C87.3666 30.3059 87.7225 30.4084 88.0668 30.5678C88.1988 30.6305 88.2505 30.6931 88.1644 30.8298C88.0783 30.9721 88.0439 31.1885 87.9233 31.2682C87.7971 31.348 87.6364 31.1657 87.4871 31.1202C87.2748 31.0575 87.0739 30.9892 86.85 31.0063C86.7352 31.012 86.6262 31.0462 86.5975 31.1714C86.5688 31.2967 86.6491 31.3821 86.7525 31.4334C86.9074 31.5017 87.0739 31.553 87.2346 31.6099C87.3896 31.6668 87.5445 31.7124 87.6995 31.775C88.0496 31.9174 88.2448 32.1793 88.2562 32.5609C88.262 32.9424 88.0955 33.2328 87.7512 33.4094C87.16 33.7055 86.0867 33.5688 85.6045 33.1303C85.5758 33.1075 85.5242 33.0791 85.5414 33.0449C85.6332 32.8513 85.7251 32.652 85.8341 32.4641C85.8743 32.4014 85.9259 32.4812 85.9661 32.5096C86.2244 32.6919 86.5057 32.8228 86.8156 32.8855C87.0968 32.9424 87.3609 32.8513 87.3723 32.6862C87.3896 32.4128 87.16 32.3787 86.9706 32.3103C86.741 32.2306 86.5057 32.1793 86.2818 32.0882C85.9661 31.963 85.7538 31.7466 85.7308 31.3821C85.7078 30.9949 85.8571 30.7045 86.19 30.5109C86.4368 30.3628 86.7123 30.323 86.9993 30.3344L86.982 30.3173Z" fill="white"/>
<path fill-rule="evenodd" clip-rule="evenodd" d="M110.153 30.3212C110.537 30.3098 110.893 30.4123 111.238 30.5717C111.37 30.6287 111.421 30.697 111.335 30.8394C111.249 30.9874 111.215 31.1981 111.094 31.2778C110.968 31.3576 110.807 31.1753 110.658 31.1298C110.44 31.0615 110.227 30.9988 109.992 31.0159C109.883 31.0273 109.791 31.0615 109.763 31.1753C109.734 31.2892 109.803 31.369 109.895 31.4259C110.05 31.5227 110.227 31.5569 110.394 31.6138C110.555 31.6708 110.721 31.7163 110.876 31.7846C111.215 31.927 111.404 32.189 111.416 32.5591C111.427 32.9292 111.261 33.2196 110.928 33.3962C110.342 33.7094 109.252 33.5727 108.758 33.1285C108.729 33.1058 108.678 33.0773 108.695 33.0431C108.787 32.8495 108.879 32.6502 108.988 32.4623C109.028 32.3996 109.08 32.4794 109.12 32.5078C109.367 32.6844 109.631 32.804 109.923 32.8723C109.963 32.878 109.998 32.8894 110.038 32.8951C110.302 32.9235 110.509 32.8438 110.526 32.6844C110.555 32.4338 110.348 32.3883 110.17 32.3313C109.929 32.2516 109.676 32.189 109.435 32.0921C109.12 31.9669 108.907 31.7562 108.879 31.386C108.85 30.9988 108.999 30.7084 109.338 30.5148C109.59 30.3724 109.86 30.3269 110.147 30.3383L110.153 30.3212Z" fill="white"/>
<path fill-rule="evenodd" clip-rule="evenodd" d="M91.7746 38.7178C91.2924 38.7178 90.8562 38.5754 90.4545 38.3135C90.3512 38.2451 90.3224 38.1882 90.3856 38.0743C90.4717 37.9262 90.5061 37.7099 90.6324 37.6358C90.7874 37.5447 90.9079 37.7725 91.0571 37.8351C91.3097 37.9376 91.5622 38.0572 91.8377 38.0401C91.9869 38.0287 92.1534 38.0003 92.1706 37.8124C92.1878 37.6301 92.0501 37.5561 91.9066 37.5049C91.6483 37.4194 91.3843 37.3511 91.126 37.26C90.6209 37.0721 90.4085 36.6564 90.5578 36.1667C90.6553 35.8478 90.8849 35.6599 91.1949 35.5631C91.8033 35.3808 92.383 35.4719 92.9397 35.7567C92.9455 35.7567 92.9569 35.7567 92.9627 35.7681C93.1119 36.0243 92.8364 36.1667 92.7962 36.3774C92.7675 36.514 92.6757 36.4514 92.6011 36.4115C92.3772 36.2976 92.1477 36.2065 91.8951 36.1724C91.8205 36.161 91.7401 36.1496 91.6655 36.1553C91.5565 36.1667 91.4417 36.2008 91.413 36.3261C91.3843 36.4514 91.4646 36.5425 91.5622 36.5881C91.7401 36.6678 91.9295 36.7247 92.1132 36.7874C92.2395 36.8329 92.3658 36.8671 92.4863 36.9183C92.8766 37.0778 93.0545 37.334 93.0545 37.7383C93.0545 38.1426 92.8594 38.4387 92.4863 38.5925C92.3772 38.6381 92.2682 38.6722 92.1534 38.695C92.0329 38.7178 91.9066 38.7121 91.7803 38.7235L91.7746 38.7178Z" fill="white"/>
<path fill-rule="evenodd" clip-rule="evenodd" d="M111.88 35.4705C112.271 35.4705 112.632 35.573 112.982 35.7439C113.092 35.7951 113.114 35.8521 113.057 35.9603C112.977 36.1197 112.937 36.3361 112.81 36.4215C112.673 36.5183 112.518 36.319 112.357 36.2735C112.162 36.2222 111.972 36.1368 111.766 36.1482C111.639 36.1482 111.507 36.171 111.473 36.3247C111.439 36.4785 111.548 36.5582 111.668 36.6037C111.967 36.7176 112.277 36.803 112.569 36.9226C113.109 37.1447 113.292 37.7711 112.977 38.238C112.787 38.5171 112.5 38.6423 112.19 38.6879C111.599 38.7676 111.042 38.6537 110.537 38.3235C110.417 38.2494 110.377 38.1754 110.463 38.0444C110.549 37.9078 110.578 37.6971 110.698 37.6287C110.836 37.549 110.962 37.7597 111.106 37.8223C111.37 37.9362 111.634 38.0615 111.932 38.033C112.064 38.0217 112.219 37.9932 112.242 37.8053C112.259 37.6287 112.133 37.549 112.001 37.5035C111.703 37.3953 111.387 37.3269 111.094 37.2016C110.572 36.9739 110.423 36.3361 110.773 35.8919C110.968 35.6471 111.238 35.5332 111.536 35.4876C111.651 35.4705 111.771 35.4762 111.886 35.4648L111.88 35.4705Z" fill="white"/>
<path fill-rule="evenodd" clip-rule="evenodd" d="M73.0347 30.3242C73.3733 30.3356 73.7694 30.478 74.108 30.7684C74.2056 30.8538 74.2113 30.9051 74.1252 30.9848C74.1023 31.0076 74.085 31.036 74.0678 31.0588C73.9645 31.1784 73.8899 31.3492 73.7579 31.4005C73.6259 31.4517 73.5398 31.2524 73.4192 31.1784C73.0289 30.962 72.6387 30.9962 72.3459 31.2923C72.0532 31.5941 72.013 32.1123 72.2598 32.4767C72.4837 32.807 72.8969 32.9209 73.293 32.7557C73.3389 32.7387 73.3791 32.7216 73.4192 32.6988C73.5283 32.6305 73.6947 32.4824 73.7349 32.5109C73.9014 32.6305 74.0334 32.8013 74.1769 32.9551C74.2228 33.0006 74.1769 33.0348 74.1482 33.0689C73.6661 33.4846 73.1208 33.6896 72.4837 33.5359C71.8925 33.3935 71.4907 33.0348 71.3128 32.4482C70.9742 31.3549 71.749 30.3356 73.029 30.3299L73.0347 30.3242Z" fill="white"/>
<path fill-rule="evenodd" clip-rule="evenodd" d="M92.8938 31.9275C92.8938 31.2726 93.2669 30.6975 93.8638 30.464C94.5583 30.1964 95.1954 30.3046 95.7694 30.7715C95.8554 30.8456 95.8612 30.9025 95.7808 30.9765C95.7464 31.0107 95.7177 31.0449 95.689 31.0847C95.5972 31.1929 95.5283 31.341 95.4135 31.3979C95.2643 31.4663 95.2069 31.2613 95.0921 31.1929C94.6846 30.9538 94.2885 30.9822 93.9843 31.3068C93.6973 31.6143 93.6629 32.1211 93.9097 32.4685C94.1508 32.8158 94.5812 32.924 94.9888 32.7418C95.0175 32.7304 95.0404 32.7076 95.0749 32.702C95.2011 32.6564 95.3044 32.4571 95.3963 32.5083C95.5627 32.6051 95.6833 32.7874 95.821 32.9354C95.8899 33.0095 95.821 33.0436 95.7808 33.0835C95.3389 33.5447 94.5296 33.7042 93.9154 33.4593C93.2783 33.2088 92.8995 32.6393 92.8995 31.9332L92.8938 31.9275Z" fill="white"/>
<path fill-rule="evenodd" clip-rule="evenodd" d="M65.5215 30.3729C65.7683 30.3729 65.9807 30.3843 66.1873 30.3729C66.3595 30.3615 66.4341 30.4241 66.4857 30.5836C66.6809 31.1701 66.8875 31.7566 67.0941 32.3375C67.1171 32.4058 67.1458 32.4798 67.1917 32.6051C67.3467 32.178 67.4787 31.8022 67.6107 31.4264C67.714 31.1246 67.8288 30.8284 67.9207 30.5266C67.9608 30.407 68.0182 30.3672 68.1388 30.3729C68.3569 30.3786 68.575 30.3729 68.7931 30.3729C68.839 30.4469 68.7931 30.4982 68.7701 30.5494C68.4085 31.4719 68.0412 32.3944 67.6853 33.3169C67.6337 33.4536 67.5648 33.5048 67.4213 33.5162C66.7612 33.5675 66.767 33.5675 66.5317 32.9695C66.216 32.1666 65.906 31.3694 65.5904 30.5665C65.5674 30.5095 65.5502 30.4526 65.5272 30.3672L65.5215 30.3729Z" fill="white"/>
<path fill-rule="evenodd" clip-rule="evenodd" d="M50.0647 30.3729C50.2943 30.3729 50.5296 30.3729 50.7592 30.3729C50.874 30.3729 50.9027 30.4469 50.9429 30.5209C51.1552 30.9082 51.3733 31.2897 51.6087 31.7111C51.8268 31.3068 52.0391 30.9366 52.2285 30.5608C52.2974 30.4298 52.372 30.3615 52.5327 30.3729C52.7336 30.39 52.9345 30.3729 53.1698 30.3729C52.9288 30.8284 52.6992 31.2498 52.4753 31.6712C52.4524 31.7168 52.4294 31.768 52.395 31.8136C52.0851 32.252 51.9645 32.7304 52.0334 33.26C52.0564 33.4479 51.9932 33.5162 51.7923 33.5219C51.1839 33.5333 51.1725 33.5447 51.1897 32.9411C51.1954 32.662 51.1323 32.4172 50.9945 32.1723C50.6903 31.6484 50.4148 31.1132 50.1278 30.5779C50.0934 30.5209 50.0475 30.464 50.0532 30.3672L50.0647 30.3729Z" fill="white"/>
<path fill-rule="evenodd" clip-rule="evenodd" d="M70.6584 36.7139C70.6584 36.9986 70.6584 37.289 70.6584 37.5738C70.6584 38.3881 70.1189 38.8322 69.3096 38.6956C69.0112 38.6443 68.7471 38.5134 68.5348 38.297C68.4659 38.2286 68.4487 38.1717 68.5118 38.0977C68.529 38.0749 68.5463 38.0464 68.5635 38.0236C68.6438 37.9097 68.6955 37.7446 68.8045 37.6877C68.9423 37.6193 69.0169 37.8186 69.1374 37.8813C69.5679 38.1147 69.8147 37.9724 69.8147 37.494C69.8147 37.1296 69.8147 36.7652 69.8147 36.4007C69.8147 36.2697 69.7745 36.2185 69.6425 36.2242C69.4072 36.2299 69.1719 36.2242 68.9365 36.2242C68.7931 36.2242 68.7299 36.2014 68.7299 36.0363C68.7299 35.5352 68.7184 35.5352 69.2293 35.5352C69.7401 35.5352 70.0443 35.5409 70.4461 35.5352C70.6068 35.5352 70.6642 35.575 70.6584 35.7402C70.647 36.0647 70.6584 36.3893 70.6584 36.7196V36.7139Z" fill="white"/>
<path fill-rule="evenodd" clip-rule="evenodd" d="M60.6486 25.2148C61.0389 25.2148 61.4292 25.2205 61.8195 25.2148C61.9687 25.2148 62.0032 25.2661 62.0147 25.4028C62.0606 25.9153 62.0606 25.9153 61.5555 25.9153C61.0504 25.9153 61.0561 25.9153 61.0561 26.405C61.0561 26.8947 61.0561 27.5837 61.0561 28.1703C61.0561 28.3354 61.0045 28.3753 60.8438 28.3753C60.2181 28.3753 60.2181 28.381 60.2181 27.7546C60.2181 27.1282 60.2181 26.6555 60.2181 26.1032C60.2181 25.9494 60.1722 25.8982 60.0173 25.9096C59.8221 25.921 59.627 25.9096 59.4318 25.9096C59.3055 25.9096 59.2768 25.864 59.2711 25.7501C59.2481 25.2205 59.2424 25.2205 59.7762 25.2205C60.0632 25.2205 60.3559 25.2205 60.6429 25.2205L60.6486 25.2148Z" fill="white"/>
<path fill-rule="evenodd" clip-rule="evenodd" d="M65.7626 25.2166C66.1471 25.2166 66.5259 25.2166 66.9105 25.2166C67.0482 25.2166 67.0999 25.2451 67.1056 25.3932C67.1114 25.9114 67.1171 25.9114 66.6063 25.9114C66.0955 25.9114 66.1586 25.9114 66.1586 26.3669C66.1586 26.8225 66.1586 27.5741 66.1586 28.1777C66.1586 28.3315 66.1127 28.3714 65.9577 28.377C65.3149 28.3827 65.3149 28.3884 65.3149 27.7393C65.3149 27.0901 65.3091 26.6516 65.3149 26.1107C65.3149 25.9455 65.269 25.8943 65.1025 25.9057C64.9074 25.917 64.7122 25.9057 64.5171 25.9057C64.408 25.9057 64.3736 25.8658 64.3678 25.7576C64.3391 25.2109 64.3334 25.2109 64.8901 25.2109H65.7568L65.7626 25.2166Z" fill="white"/>
<path fill-rule="evenodd" clip-rule="evenodd" d="M72.7707 25.2133C73.1552 25.2133 73.534 25.219 73.9186 25.2133C74.0621 25.2133 74.108 25.2589 74.1195 25.3956C74.1654 25.9081 74.1711 25.9081 73.6603 25.9081C73.1495 25.9081 73.1782 25.9081 73.1782 26.375C73.1782 26.9558 73.1782 27.5367 73.1782 28.1175C73.1782 28.2997 73.1265 28.3738 72.9256 28.3681C72.3402 28.3567 72.3402 28.3681 72.3402 27.7872C72.3402 27.2064 72.3402 26.6711 72.3402 26.1131C72.3402 25.9593 72.3058 25.8796 72.1336 25.9024C72.0417 25.9138 71.9442 25.9081 71.8523 25.9024C71.7088 25.891 71.4965 25.9764 71.4276 25.8625C71.33 25.7031 71.3932 25.4867 71.3989 25.2931C71.3989 25.1735 71.5137 25.2076 71.5826 25.2076C71.9729 25.2076 72.3632 25.2076 72.7535 25.2076L72.7707 25.2133Z" fill="white"/>
<path fill-rule="evenodd" clip-rule="evenodd" d="M115.037 35.533C115.433 35.533 115.835 35.533 116.231 35.533C116.363 35.533 116.403 35.5729 116.409 35.7039C116.426 36.2221 116.432 36.2221 115.904 36.2221C115.376 36.2221 115.468 36.2221 115.468 36.6662C115.468 37.1104 115.468 37.8735 115.468 38.4771C115.468 38.6137 115.433 38.665 115.284 38.665C114.618 38.6821 114.618 38.6821 114.618 38.0272C114.618 37.3723 114.613 36.9566 114.618 36.4214C114.618 36.2562 114.567 36.1993 114.406 36.2164C114.314 36.2278 114.217 36.2278 114.125 36.2164C113.981 36.1993 113.775 36.2961 113.717 36.1594C113.648 36 113.688 35.795 113.694 35.6071C113.694 35.5046 113.798 35.5387 113.861 35.5273C113.866 35.5273 113.878 35.5273 113.884 35.5273H115.032L115.037 35.533Z" fill="white"/>
<path fill-rule="evenodd" clip-rule="evenodd" d="M51.4364 35.5352C51.8267 35.5352 52.217 35.5352 52.6073 35.5352C52.7508 35.5352 52.791 35.575 52.7967 35.7174C52.8025 36.2242 52.8082 36.2242 52.3089 36.2242C51.8095 36.2242 51.8554 36.2242 51.8554 36.674C51.8554 37.1239 51.8497 37.8528 51.8554 38.4393C51.8554 38.6272 51.7923 38.6671 51.6201 38.6671C51.0175 38.6614 51.0175 38.6671 51.0175 38.0635V36.7595C51.0175 36.4026 50.8414 36.2242 50.4894 36.2242C50.4033 36.2242 50.3172 36.2242 50.2311 36.2242C50.1278 36.2242 50.0876 36.1786 50.0762 36.0704C50.0417 35.5409 50.036 35.5408 50.5698 35.5408C50.8567 35.5408 51.1495 35.5408 51.4364 35.5408V35.5352Z" fill="white"/>
<path fill-rule="evenodd" clip-rule="evenodd" d="M122.516 31.9066C122.516 31.4624 122.522 31.024 122.516 30.5855C122.516 30.4317 122.545 30.352 122.717 30.3748C122.918 30.3976 123.176 30.2951 123.308 30.4147C123.44 30.5342 123.348 30.7962 123.354 30.9898C123.36 31.5137 123.365 32.0433 123.354 32.5672C123.354 32.7437 123.388 32.812 123.584 32.8063C123.905 32.7892 124.221 32.8063 124.542 32.8006C124.663 32.8006 124.709 32.8348 124.709 32.9601C124.691 33.632 124.818 33.5181 124.175 33.5238C123.693 33.5295 123.205 33.5238 122.723 33.5238C122.568 33.5238 122.522 33.4726 122.522 33.3245C122.527 32.8519 122.522 32.3792 122.522 31.9066H122.516Z" fill="white"/>
<path fill-rule="evenodd" clip-rule="evenodd" d="M102.462 31.9293C102.462 31.4794 102.462 31.0295 102.462 30.5797C102.462 30.4259 102.49 30.3633 102.663 30.3633C103.3 30.3633 103.3 30.3576 103.3 30.984C103.3 31.5249 103.3 32.0659 103.3 32.6126C103.3 32.7493 103.34 32.8062 103.483 32.8005C103.811 32.7891 104.138 32.8005 104.465 32.8005C104.585 32.8005 104.626 32.829 104.631 32.9543C104.66 33.5237 104.66 33.5237 104.086 33.5237C103.512 33.5237 103.133 33.5237 102.657 33.5237C102.502 33.5237 102.456 33.4725 102.462 33.3244C102.473 32.8575 102.462 32.3962 102.462 31.9293Z" fill="white"/>
<path fill-rule="evenodd" clip-rule="evenodd" d="M102.708 37.1001C102.708 36.6445 102.708 36.189 102.708 35.7277C102.708 35.5797 102.749 35.5284 102.904 35.5284C103.552 35.5227 103.552 35.517 103.552 36.1548C103.552 36.7926 103.564 37.2083 103.552 37.7322C103.552 37.9258 103.615 37.9656 103.793 37.9599C104.092 37.9486 104.384 37.9599 104.683 37.9542C104.849 37.9486 104.913 37.9827 104.913 38.1649C104.907 38.6604 104.913 38.6604 104.407 38.6604C103.902 38.6604 103.409 38.6547 102.909 38.6604C102.754 38.6604 102.708 38.6148 102.714 38.4611C102.72 38.0055 102.714 37.5499 102.714 37.0887L102.708 37.1001Z" fill="white"/>
<path fill-rule="evenodd" clip-rule="evenodd" d="M51.1954 26.803C51.1954 27.2586 51.1897 27.7198 51.1954 28.1754C51.1954 28.3348 51.1437 28.3804 50.9945 28.369C50.8338 28.3576 50.6674 28.3576 50.5009 28.369C50.3746 28.3747 50.3402 28.3234 50.3459 28.2038C50.3459 27.2586 50.3459 26.3133 50.3459 25.368C50.3459 25.2427 50.3919 25.2143 50.5066 25.2086C51.1897 25.1801 51.1897 25.1744 51.1897 25.8463V26.7973L51.1954 26.803Z" fill="white"/>
<path fill-rule="evenodd" clip-rule="evenodd" d="M107.162 26.785C107.162 26.3181 107.162 25.8568 107.162 25.3899C107.162 25.2475 107.203 25.2076 107.346 25.2019C108.012 25.1906 108.012 25.1849 108.012 25.8397C108.012 26.4946 108.012 27.3715 108.012 28.1403C108.012 28.3111 107.972 28.3624 107.794 28.3624C107.168 28.3624 107.168 28.3624 107.168 27.736V26.785H107.162Z" fill="white"/>
<path fill-rule="evenodd" clip-rule="evenodd" d="M69.5565 31.9389C69.5565 31.4833 69.5565 31.0221 69.5565 30.5665C69.5565 30.4128 69.6024 30.3729 69.7574 30.3672C70.3945 30.3672 70.3945 30.3558 70.3945 30.9822C70.3945 31.6086 70.3945 32.5311 70.3945 33.3112C70.3945 33.4707 70.3543 33.5276 70.1879 33.5276C69.5565 33.5276 69.5565 33.539 69.5565 32.9183V31.9389Z" fill="white"/>
<path fill-rule="evenodd" clip-rule="evenodd" d="M74.9977 31.9273C74.9977 31.4774 75.0034 31.0275 74.9977 30.5777C74.9977 30.4182 75.0321 30.3499 75.2043 30.367C75.4052 30.3898 75.6635 30.2873 75.7955 30.4068C75.9275 30.5321 75.8357 30.7884 75.8357 30.9877C75.8357 31.7564 75.8357 32.5252 75.8357 33.2939C75.8357 33.4534 75.8127 33.5274 75.6233 33.5274C74.9977 33.5274 74.9977 33.5331 74.9977 32.9124V31.933V31.9273Z" fill="white"/>
<path fill-rule="evenodd" clip-rule="evenodd" d="M97.4912 31.9446C97.4912 32.4001 97.4854 32.8557 97.4912 33.3169C97.4912 33.4764 97.428 33.5105 97.2903 33.5219C96.6475 33.5675 96.6475 33.5675 96.6475 32.9354C96.6475 32.3033 96.6475 31.358 96.6475 30.5665C96.6475 30.4185 96.6762 30.3672 96.8369 30.3672C97.4854 30.3672 97.4854 30.3558 97.4854 30.9936V31.9446H97.4912Z" fill="white"/>
<path fill-rule="evenodd" clip-rule="evenodd" d="M63.6102 26.7983C63.6102 27.2482 63.6102 27.6981 63.6102 28.1479C63.6102 28.3188 63.5585 28.37 63.3806 28.37C62.7722 28.37 62.7722 28.37 62.7722 27.7664C62.7722 27.1628 62.7722 26.2004 62.7722 25.4203C62.7722 25.2608 62.8124 25.1925 62.9788 25.2096C63.1166 25.221 63.2601 25.221 63.3978 25.2096C63.57 25.1925 63.6102 25.2779 63.6102 25.426C63.6102 25.8815 63.6102 26.3371 63.6102 26.7983Z" fill="white"/>
<path fill-rule="evenodd" clip-rule="evenodd" d="M40.4565 30.2777C40.3704 30.1183 40.3991 30.0044 40.5885 29.9531C40.5426 30.0613 40.5369 30.1866 40.4565 30.2777Z" fill="white"/>
<path fill-rule="evenodd" clip-rule="evenodd" d="M43.4642 23.5401C43.4125 23.4319 43.292 23.2953 43.5502 23.301C43.5502 23.3921 43.5216 23.4718 43.4642 23.5401Z" fill="white"/>
</g>
<defs>
<clipPath id="clip0_3240_1755">
<rect width="132" height="41" fill="white" transform="translate(0.0610352)"/>
</clipPath>
</defs>
</svg>
