<svg width="192" height="41" viewBox="0 0 192 41" fill="none" xmlns="http://www.w3.org/2000/svg">
<g clip-path="url(#clip0_3240_1714)">
<path d="M186.603 28.8098H184.461V32.337H186.603C188.21 32.337 189.02 31.6706 189.02 30.5734C189.02 29.4763 188.21 28.8098 186.603 28.8098ZM189.066 37.0211L186.878 34.2012H184.461V37.0211H181.837V26.8984H186.751C189.777 26.8984 191.672 28.3037 191.672 30.5734C191.672 32.0887 190.813 33.2047 189.34 33.7674L191.884 37.0211H189.066Z" fill="white"/>
<path d="M176.077 33.0758L174.277 29.1996L172.481 33.0758H176.074H176.077ZM176.905 34.852H171.639L170.631 37.0211H167.944L172.999 26.8984H175.595L180.664 37.0211H177.906L176.902 34.852H176.905Z" fill="white"/>
<path d="M162.35 28.8098H158.718V26.8984H168.602V28.8098H164.974V37.0211H162.35V28.8098Z" fill="white"/>
<path d="M148.939 36.0248L149.83 34.2581C150.788 34.8805 152.215 35.3144 153.575 35.3144C155.128 35.3144 155.762 34.8522 155.762 34.2298C155.762 32.3341 149.168 33.6388 149.168 29.8758C149.168 28.1562 150.718 26.7227 153.945 26.7227C155.375 26.7227 156.833 27.0276 157.883 27.6186L157.073 29.3979C156.019 28.8635 154.934 28.6026 153.927 28.6026C152.373 28.6026 151.775 29.1213 151.775 29.7595C151.775 31.6237 158.373 30.3379 158.373 34.0537C158.373 35.7482 156.801 37.1911 153.557 37.1911C151.757 37.1911 149.943 36.7133 148.939 36.0217" fill="white"/>
<path d="M147.748 35.1412V37.0211H138.97V26.8984H147.54V28.7784H141.576V30.9758H146.843V32.7991H141.576V35.1412H147.748Z" fill="white"/>
<path d="M136.289 26.8984V37.0211H134.129L128.475 30.8752V37.0211H125.883V26.8984H128.056L133.693 33.0444V26.8984H136.289Z" fill="white"/>
<path d="M123.804 35.1412V37.0211H115.019V26.8984H123.593V28.7784H117.629V30.9758H122.896V32.7991H117.629V35.1412H123.804Z" fill="white"/>
<path d="M112.338 26.8984H109.71V37.0211H112.338V26.8984Z" fill="white"/>
<path d="M105.085 34.0126C105.085 33.1607 104.356 32.7551 102.996 32.7551H99.9313V35.2575H102.996C104.352 35.2575 105.085 34.8834 105.085 34.0126ZM99.9313 28.662V31.0481H102.542C103.82 31.0481 104.521 30.6426 104.521 29.8472C104.521 29.0519 103.82 28.662 102.542 28.662H99.9313ZM107.723 34.2578C107.723 36.0089 106.173 37.0211 103.186 37.0211H97.321V26.8984H102.862C105.694 26.8984 107.149 27.9579 107.149 29.5329C107.149 30.5451 106.572 31.3248 105.645 31.7617C106.91 32.1233 107.72 32.9909 107.72 34.261" fill="white"/>
<path d="M95.1616 32.0469H90.5715V33.8545H95.1616V32.0469Z" fill="white"/>
<path d="M79.6337 36.0248L80.5249 34.2581C81.4795 34.8805 82.9062 35.3144 84.266 35.3144C85.8265 35.3144 86.4536 34.8522 86.4536 34.2298C86.4536 32.3341 79.8591 33.6388 79.8591 29.8758C79.8591 28.1562 81.4161 26.7227 84.6394 26.7227C86.0696 26.7227 87.528 27.0276 88.5777 27.6186L87.7675 29.3979C86.7178 28.8635 85.6328 28.6026 84.6218 28.6026C83.0683 28.6026 82.4694 29.1213 82.4694 29.7595C82.4694 31.6237 89.0674 30.3379 89.0674 34.0537C89.0674 35.7482 87.4963 37.1911 84.2554 37.1911C82.4518 37.1911 80.6447 36.7133 79.6372 36.0217" fill="white"/>
<path d="M69.3016 36.0248L70.1929 34.2581C71.1475 34.8805 72.5777 35.3144 73.9375 35.3144C75.491 35.3144 76.1251 34.8522 76.1251 34.2298C76.1251 32.3341 69.5271 33.6388 69.5271 29.8758C69.5271 28.1562 71.0806 26.7227 74.3074 26.7227C75.7376 26.7227 77.196 27.0276 78.2457 27.6186L77.439 29.3979C76.3857 28.8635 75.3008 28.6026 74.2968 28.6026C72.7398 28.6026 72.1409 29.1213 72.1409 29.7595C72.1409 31.6237 78.7354 30.3379 78.7354 34.0537C78.7354 35.7482 77.1643 37.1911 73.9234 37.1911C72.1233 37.1911 70.3091 36.7133 69.3052 36.0217" fill="white"/>
<path d="M65.0498 37.0211L65.0357 30.9475L61.6962 35.9523H60.5126L57.1907 31.0764V37.0211H54.7283V26.8984H56.8983L61.1467 33.189L65.3281 26.8984H67.4804L67.5157 37.0211H65.0498Z" fill="white"/>
<path d="M52.044 26.8984H49.4196V37.0211H52.044V26.8984Z" fill="white"/>
<path d="M191.676 20.0742H49.4196V21.0173H191.676V20.0742Z" fill="white"/>
<path d="M43.4558 6.91797H43.1V37.1948H43.4558V6.91797Z" fill="white"/>
<path d="M186.829 13.6454C189.161 13.6454 190.654 12.3691 190.654 10.4828C190.654 8.59662 189.161 7.32029 186.829 7.32029H184.282V13.6454H186.829ZM182.933 6.27344H186.906C189.939 6.27344 192 7.98046 192 10.4828C192 12.9852 189.939 14.6922 186.906 14.6922H182.933V6.27344Z" fill="white"/>
<path d="M172.541 11.0581V6.27344H173.89V11.011C173.89 12.8752 174.848 13.7177 176.543 13.7177C178.237 13.7177 179.209 12.8752 179.209 11.011V6.27344H180.516V11.0581C180.516 13.5008 179.023 14.7865 176.528 14.7865C174.034 14.7865 172.541 13.5008 172.541 11.0581Z" fill="white"/>
<path d="M165.122 6.27344H166.468V13.6485H171.575V14.6922H165.122V6.27344Z" fill="white"/>
<path d="M161.145 11.6209L159.109 7.49633L157.076 11.6209H161.145ZM161.617 12.5828H156.604L155.565 14.6891H154.181L158.454 6.27344H159.785L164.069 14.6891H162.653L161.617 12.5828Z" fill="white"/>
<path d="M146.719 13.7269L147.216 12.787C147.917 13.3497 149.118 13.7615 150.334 13.7615C151.961 13.7615 152.666 13.1956 152.666 12.4632C152.666 10.4072 146.952 11.7055 146.952 8.5807C146.952 7.28236 148.083 6.17578 150.563 6.17578C151.665 6.17578 152.81 6.43985 153.596 6.92084L153.152 7.8828C152.328 7.4144 151.401 7.19748 150.563 7.19748C148.96 7.19748 148.273 7.79793 148.273 8.53355C148.273 10.5895 153.987 9.30061 153.987 12.394C153.987 13.6798 152.828 14.7863 150.337 14.7863C148.893 14.7863 147.477 14.3525 146.723 13.7301" fill="white"/>
<path d="M142.461 13.6454V14.6922H135.616V6.27344H142.27V7.32029H136.962V9.9044H141.693V10.9292H136.962V13.6454H142.461Z" fill="white"/>
<path d="M128.726 13.6454C131.058 13.6454 132.551 12.3691 132.551 10.4828C132.551 8.59662 131.058 7.32029 128.726 7.32029H126.179V13.6454H128.726ZM124.833 6.27344H128.807C131.836 6.27344 133.9 7.98046 133.9 10.4828C133.9 12.9852 131.836 14.6922 128.807 14.6922H124.833V6.27344Z" fill="white"/>
<path d="M112.662 13.7269L113.162 12.787C113.863 13.3497 115.061 13.7615 116.269 13.7615C117.9 13.7615 118.601 13.1956 118.601 12.4632C118.601 10.4072 112.888 11.7055 112.888 8.5807C112.888 7.28236 114.018 6.17578 116.498 6.17578C117.605 6.17578 118.749 6.43985 119.531 6.92084L119.088 7.8828C118.267 7.4144 117.337 7.19748 116.498 7.19748C114.899 7.19748 114.212 7.79793 114.212 8.53355C114.212 10.5895 119.922 9.30061 119.922 12.394C119.922 13.6798 118.764 14.7863 116.269 14.7863C114.829 14.7863 113.416 14.3525 112.662 13.7301" fill="white"/>
<path d="M110.464 10.4826C110.464 8.61843 108.9 7.24778 106.811 7.24778C104.722 7.24778 103.133 8.61843 103.133 10.4826C103.133 12.3468 104.694 13.7175 106.811 13.7175C108.928 13.7175 110.464 12.3437 110.464 10.4826ZM101.788 10.4826C101.788 8.01798 103.915 6.17578 106.811 6.17578C109.707 6.17578 111.81 8.00226 111.81 10.4826C111.81 12.963 109.682 14.7863 106.811 14.7863C103.94 14.7863 101.788 12.9473 101.788 10.4826Z" fill="white"/>
<path d="M100.062 6.27344H98.716V14.6922H100.062V6.27344Z" fill="white"/>
<path d="M88.5531 10.4826C88.5531 7.99283 90.6843 6.17578 93.5553 6.17578C95.0066 6.17578 96.2783 6.62219 97.1343 7.4867L96.2572 8.24433C95.5315 7.559 94.6438 7.24778 93.6011 7.24778C91.4769 7.24778 89.8988 8.61843 89.8988 10.4826C89.8988 12.3468 91.4769 13.7175 93.6011 13.7175C94.6403 13.7175 95.5315 13.3905 96.2572 12.7084L97.1343 13.466C96.2748 14.3337 95.0066 14.7895 93.5377 14.7895C90.6843 14.7895 88.5531 12.9724 88.5531 10.4858" fill="white"/>
<path d="M86.8305 6.27344H85.4848V14.6922H86.8305V6.27344Z" fill="white"/>
<path d="M84.6323 6.27344L80.4932 14.6922H79.1581L75.0084 6.27344H76.4668L79.8591 13.1896L83.2796 6.27344H84.6323Z" fill="white"/>
<path d="M73.2506 9.20964C73.2506 8.00561 72.3488 7.32343 70.6262 7.32343H68.3329V11.1084H70.6262C72.3488 11.1084 73.2506 10.4137 73.2506 9.20964ZM73.2928 14.6922L71.2602 12.1081C71.07 12.1207 70.8692 12.1301 70.6649 12.1301H68.3329V14.6922H66.9872V6.27344H70.6649C73.1167 6.27344 74.5997 7.38002 74.5997 9.2065C74.5997 10.5048 73.8459 11.4417 72.5249 11.8661L74.7618 14.6922H73.2928Z" fill="white"/>
<path d="M65.1484 13.6454V14.6922H58.3038V6.27344H64.9582V7.32029H59.653V9.9044H64.3805V10.9292H59.653V13.6454H65.1484Z" fill="white"/>
<path d="M49.4196 13.7269L49.9163 12.787C50.6173 13.3497 51.815 13.7615 53.0268 13.7615C54.6578 13.7615 55.3589 13.1956 55.3589 12.4632C55.3589 10.4072 49.6486 11.7055 49.6486 8.5807C49.6486 7.28236 50.7829 6.17578 53.2593 6.17578C54.3655 6.17578 55.5103 6.43985 56.2924 6.92084L55.845 7.8828C55.0242 7.4144 54.0942 7.19748 53.2558 7.19748C51.653 7.19748 50.9661 7.79793 50.9661 8.53355C50.9661 10.5895 56.6763 9.30061 56.6763 12.394C56.6763 13.6798 55.5174 14.7863 53.0268 14.7863C51.5861 14.7863 50.1735 14.3525 49.4196 13.7301" fill="white"/>
<path fill-rule="evenodd" clip-rule="evenodd" d="M36.03 35.6968C35.6284 35.1341 34.864 34.6436 33.7508 34.2098L32.2642 33.6125C31.0841 33.1441 30.4994 32.616 30.4994 31.9998C30.4994 30.9215 31.2426 30.3902 32.7292 30.3902C33.3175 30.3902 33.8107 30.5191 34.2087 30.7926C34.5998 31.0567 34.8745 31.3931 35.0225 31.7766H35.3254C35.4276 31.5094 35.5297 31.2359 35.6495 30.9624C35.7693 30.6826 35.875 30.4248 35.9701 30.1733C35.6319 29.947 35.174 29.7646 34.5962 29.6263C34.0115 29.488 33.4337 29.4062 32.849 29.4062C31.8063 29.4062 30.9221 29.5666 30.214 29.8841C29.506 30.189 28.9846 30.6071 28.65 31.1258C28.3118 31.6414 28.1462 32.2167 28.1462 32.8234C28.1462 33.4302 28.2695 33.9017 28.5267 34.3135C28.7803 34.7285 29.1537 35.0838 29.6328 35.3698C30.1154 35.6653 30.7283 35.9388 31.4751 36.2029C32.4474 36.5267 33.1273 36.8536 33.5253 37.1806C33.9199 37.5075 34.1101 37.9005 34.1101 38.3469C34.1101 38.8436 33.8917 39.2397 33.4443 39.5509C33.0075 39.859 32.458 40.0131 31.7992 40.0131C30.9996 39.9942 30.3796 39.8276 29.9181 39.5069C29.4637 39.1831 29.1537 38.765 29.0057 38.2494H28.7662C28.6922 38.5009 28.583 38.7367 28.4386 38.9599C28.3259 39.3969 28.192 39.8464 28.0159 40.3086C28.9071 40.7424 29.971 40.975 31.2321 41.0033C31.8979 41.0033 32.546 40.931 33.1836 40.7833C33.8283 40.6355 34.399 40.4154 34.9203 40.1137C35.4346 39.8181 35.8468 39.4503 36.1462 39.0197C36.4456 38.589 36.6042 38.0891 36.6288 37.5264C36.6288 36.8725 36.421 36.2595 36.0264 35.6999" fill="white"/>
<path fill-rule="evenodd" clip-rule="evenodd" d="M28.7768 38.2502C28.8437 38.0239 28.8895 37.7818 28.9036 37.5272C28.9036 36.8733 28.6922 36.2603 28.2942 35.7007C27.8926 35.138 27.1317 34.6475 26.0256 34.2137L24.5355 33.6164C23.3554 33.148 22.7671 32.6199 22.7671 32.0037C22.7671 30.9254 23.5139 30.3941 24.9969 30.3941C25.5887 30.3941 26.0925 30.523 26.4765 30.7965C26.864 31.0606 27.1458 31.397 27.2972 31.7805H27.5931C27.6988 31.5133 27.801 31.2398 27.9208 30.9694C28.0335 30.6865 28.1392 30.4287 28.2413 30.1772C27.9172 29.9509 27.4558 29.7685 26.8675 29.6302C26.2862 29.4919 25.705 29.4102 25.1202 29.4102C24.081 29.4102 23.1968 29.5736 22.4888 29.888C21.7807 30.1929 21.2523 30.611 20.9212 31.1298C20.5865 31.6485 20.4175 32.2206 20.4175 32.8273C20.4175 33.4341 20.5478 33.9056 20.805 34.3175C21.0692 34.7324 21.4249 35.0877 21.9075 35.3737C22.3937 35.6692 23.0101 35.9427 23.757 36.2068C24.7222 36.5306 25.4056 36.8576 25.7966 37.1845C26.1946 37.5114 26.3954 37.9044 26.3954 38.354C26.3954 38.8507 26.17 39.2468 25.7261 39.558C25.2893 39.8661 24.7363 40.0201 24.0846 40.0201C23.2814 40.0012 22.6614 39.8315 22.1999 39.514C21.742 39.1902 21.4461 38.7721 21.284 38.2565H20.8824C20.7873 38.8381 20.6077 39.4417 20.3752 40.0704C20.3963 40.1679 20.4104 40.2653 20.4351 40.3722C21.2911 40.7652 22.3162 40.9852 23.5139 41.0104C24.1832 41.0104 24.8208 40.9381 25.4619 40.7903C26.1066 40.6426 26.6773 40.4225 27.1916 40.1207C27.72 39.8252 28.1286 39.4574 28.428 39.0267C28.4421 39.0078 28.4421 38.989 28.4562 38.967C28.5372 38.8286 28.6605 38.6212 28.6957 38.5049L28.7838 38.2565L28.7768 38.2502Z" fill="white"/>
<path fill-rule="evenodd" clip-rule="evenodd" d="M20.3716 40.0617C20.3716 40.0617 20.0933 38.5213 19.9841 37.8265C19.8221 36.9148 19.6741 36.0126 19.5403 35.1292C19.4064 34.2396 19.2831 33.4128 19.1739 32.6489C19.0647 31.8755 18.9168 30.8947 18.7618 29.6875C18.4201 29.7315 18.1523 29.7535 17.9375 29.7881C17.5007 29.7378 17.2118 29.7064 17.0744 29.6875C16.701 30.3225 16.2994 30.9984 15.852 31.7372C15.4082 32.476 15.0207 33.0921 14.7036 33.5951C14.3901 34.0981 14.0238 34.6797 13.6046 35.3304C13.1819 35.9843 12.7627 36.6445 12.347 37.3047C10.2827 34.0226 8.7468 31.4888 7.71818 29.6875C7.56318 29.7064 7.29193 29.7378 6.8833 29.7881C6.80228 29.7755 6.66842 29.7661 6.49933 29.7441C6.34081 29.7221 6.18934 29.7095 6.06604 29.6875C5.76309 31.5549 5.42491 33.4694 5.05856 35.4247C4.6922 37.3738 4.33288 39.1752 3.97357 40.8193C4.16027 40.8004 4.48084 40.769 4.92117 40.7156C5.12901 40.7376 5.28049 40.7564 5.39673 40.7627C5.5165 40.7816 5.67503 40.7973 5.8723 40.8193C5.88991 40.2472 5.93218 39.5524 6.00616 38.7099C6.0907 37.88 6.1999 36.9714 6.33024 35.9843C6.46763 34.9972 6.59797 34.1484 6.72831 33.4253C6.95728 33.8026 7.27784 34.3464 7.70409 35.0381C8.13033 35.7391 8.47555 36.3175 8.75385 36.7671C9.02861 37.2166 9.4302 37.88 9.9586 38.7602C10.487 39.6341 10.878 40.288 11.1281 40.7187H11.8749C13.2241 38.3735 14.7177 35.8931 16.3452 33.2682C16.4192 33.8718 16.5178 34.5979 16.6341 35.4467C16.7468 36.283 16.8349 36.9274 16.8912 37.3707C16.9511 37.8108 17.0075 38.3421 17.0744 38.9771C17.1308 39.6058 17.1801 40.2157 17.2118 40.8224C17.7649 40.7533 18.3144 40.7187 18.8639 40.7187C19.4135 40.7187 19.9771 40.7533 20.5125 40.8224C20.4879 40.6684 20.435 40.3698 20.435 40.3698C20.435 40.3698 20.3928 40.156 20.3752 40.068" fill="white"/>
<path fill-rule="evenodd" clip-rule="evenodd" d="M-0.000139432 29.6836V40.8123C0.493035 40.7431 0.965074 40.7085 1.41245 40.7085C1.91972 40.7085 2.4446 40.7431 2.973 40.8123V29.6836C2.64539 29.7087 2.14869 29.7402 1.48291 29.7842C0.820644 29.7402 0.330992 29.7087 -0.00366211 29.6836" fill="white"/>
<path fill-rule="evenodd" clip-rule="evenodd" d="M25.2329 21.1617C25.5817 18.1249 24.8736 16.1601 23.9612 14.3493C22.3549 11.4603 20.3188 9.97015 23.9894 6.44922C18.6385 9.85698 19.1352 10.0204 20.5301 11.8029C21.9322 13.3873 24.5777 16.9523 25.2329 21.1617Z" fill="white"/>
<path fill-rule="evenodd" clip-rule="evenodd" d="M3.66005 11.033C4.19198 10.7124 4.7239 10.5269 5.00571 10.5269C5.30514 10.6527 5.5623 10.9325 5.8582 11.0771C5.94275 11.1242 6.02377 11.1682 6.12592 11.1682C6.42535 11.0771 7.07353 10.5898 7.49272 10.2786C7.60193 10.1968 7.60193 10.1811 7.46807 10.1654C7.05239 10.1245 6.11888 10.1434 5.38969 10.1654C5.34389 10.1277 5.3298 10.0774 5.37912 10.0271C7.535 8.45522 10.9238 9.46121 14.5627 8.74759C14.9855 9.02109 13.4284 10.0176 11.7728 10.9859C12.7063 10.7627 13.7102 10.42 14.7424 9.9862C15.9507 9.42034 17.4196 8.56525 18.9872 7.62215C22.6367 5.3021 25.1836 3.02922 27.269 2.05153C28.8789 1.46052 30.052 1.5171 31.1545 2.25901C33.4161 3.79313 32.8032 8.26346 32.5812 10.3163C32.1444 14.5728 30.834 19.7882 28.5231 23.8373C27.3501 26.0788 24.4016 26.959 22.221 26.9967C24.3382 24.5195 24.5953 21.8568 23.5385 19.499C22.1858 16.1321 18.0572 13.3782 13.0128 12.6803C10.1277 12.2654 7.22148 12.1711 4.94935 12.2214C4.62879 12.2559 4.02641 12.2748 3.96652 12.7495C3.63187 12.3565 3.44869 11.995 3.36767 11.7247C3.29369 11.4543 3.40642 11.2122 3.66357 11.033M4.24129 4.43444C4.49493 3.16439 5.0339 2.5388 5.75957 2.17728C7.73227 1.35677 8.8102 2.0421 10.4095 3.05122C12.8296 4.52876 15.8873 6.78278 16.6446 7.65673C8.56714 8.53382 6.67899 7.28263 4.25538 9.53665C4.00175 7.1726 4.01584 5.55046 4.23777 4.4313M18.015 27.2513C16.3981 27.3834 14.9291 27.3457 13.6821 27.179C12.0722 27.0659 10.7019 26.3051 9.5711 25.1765C8.75384 24.1831 8.04578 23.0011 7.44693 21.7593C5.96036 18.273 5.01628 15.0381 4.75208 13.4411C4.65697 13.4411 6.32672 13.2745 8.15851 13.3908C10.7371 13.4411 14.3197 13.592 12.9247 16.0881C16.8243 14.1736 19.9982 16.7797 21.0621 17.9429C21.4355 18.2258 22.4852 19.9517 22.6332 21.8725C22.598 24.5478 21.5095 26.8238 18.015 27.2513ZM4.85072 27.8235C9.24349 28.8735 22.8586 28.3202 29.4918 28.0027C31.0418 27.8581 33.0392 27.8581 34.2686 26.2957C34.7195 25.8084 34.945 25.2488 35.262 23.8342C35.5966 20.9137 35.7728 17.7511 35.7058 14.1202C35.6037 10.6652 35.5086 6.6759 34.9203 3.84029C34.3073 1.19959 32.391 0.489115 29.0691 0.291062C20.1215 -0.142767 15.8098 -0.039025 7.83795 0.259625C2.86393 0.614862 1.32099 1.64599 1.02509 6.93368C0.623503 12.498 0.72566 18.1818 1.34213 23.4286C1.65565 26.9778 3.47335 27.5689 4.84719 27.8235" fill="white"/>
<path fill-rule="evenodd" clip-rule="evenodd" d="M18.4764 17.2305C17.1026 16.1648 15.0771 15.6052 13.7455 16.4603C13.0304 17.0859 12.9388 17.6674 13.284 18.6828C13.3897 18.9878 13.4883 19.3179 13.4954 19.6448C13.5306 20.5439 12.6816 21.0909 12.1603 22.5244C12.6323 22.0592 13.8723 21.77 14.4359 22.7131C14.6684 22.6848 15.0454 22.7476 15.0735 23.2255C15.4082 22.2604 14.0097 22.625 14.6614 21.5342C13.8793 22.0717 13.8371 21.4084 13.0656 21.6882C13.0092 21.5027 13.2171 21.1318 13.4425 20.8866C14.8093 19.1764 16.4086 20.4056 17.2646 19.0381C15.0771 20.371 12.8014 17.8529 13.9146 16.9381C14.686 16.2654 16.1832 16.6646 16.9793 17.067C17.4196 17.2336 18.6033 18.0855 19.2021 19.3493C19.491 20.0095 19.7939 22.3232 18.5434 23.4078C17.86 23.9422 17.4126 24.1089 16.4967 23.8857C13.9604 23.2443 14.1858 25.1588 12.3364 23.9988C12.192 24.4484 12.5795 24.9105 13.2171 25.1086C13.9604 25.228 14.4923 24.8382 14.8164 24.7722C15.1722 24.6339 15.3096 24.8319 14.8657 25.0928C14.7001 25.2091 14.6438 25.3506 14.9679 25.3538C15.0489 25.4041 15.3342 25.3726 15.6336 25.338C15.9472 25.2815 16.2642 25.2343 16.4333 25.2469C16.6411 25.2594 16.7609 25.3883 16.3628 25.6053C16.1937 25.7027 15.683 25.907 15.1898 25.9291C15.5385 26.0674 16.3628 26.168 17.2294 26.1051C19.6671 25.8505 20.6253 23.4613 20.6816 21.553C20.6816 19.8554 19.9278 18.3811 18.48 17.2336" fill="white"/>
</g>
<defs>
<clipPath id="clip0_3240_1714">
<rect width="192" height="41" fill="white"/>
</clipPath>
</defs>
</svg>
