<?xml version="1.0" standalone="no"?>
<!DOCTYPE svg PUBLIC "-//W3C//DTD SVG 20010904//EN"
 "http://www.w3.org/TR/2001/REC-SVG-20010904/DTD/svg10.dtd">
<svg version="1.0" xmlns="http://www.w3.org/2000/svg"
 width="787.000000pt" height="787.000000pt" viewBox="0 0 787.000000 787.000000"
 preserveAspectRatio="xMidYMid meet">

<g transform="translate(0.000000,787.000000) scale(0.100000,-0.100000)"
fill="#000000" stroke="none">
<path d="M0 3935 l0 -3935 3935 0 3935 0 0 3935 0 3935 -3935 0 -3935 0 0
-3935z m4058 3200 c28 -8 77 -21 107 -30 30 -8 80 -22 110 -30 30 -9 81 -22
112 -31 76 -21 135 -37 268 -73 61 -17 157 -44 215 -60 58 -16 141 -39 185
-51 44 -12 94 -26 110 -30 17 -4 66 -18 110 -30 111 -31 125 -35 249 -68 123
-33 140 -47 131 -102 -16 -94 99 -203 356 -338 105 -55 155 -77 264 -119 22
-9 54 -22 72 -29 17 -8 36 -14 42 -14 31 0 32 -42 28 -1373 l-4 -1332 -26
-135 c-14 -74 -33 -165 -41 -201 -16 -76 -88 -292 -111 -335 -8 -16 -15 -33
-15 -37 0 -18 -132 -269 -194 -370 -168 -274 -449 -592 -731 -826 -356 -298
-792 -566 -1200 -741 -112 -48 -116 -49 -154 -35 -108 38 -407 183 -560 271
-57 33 -252 154 -326 202 -63 41 -353 257 -365 271 -3 3 -43 38 -90 78 -174
147 -424 416 -564 609 -104 143 -250 398 -303 530 -6 16 -19 47 -28 69 -17 41
-74 210 -94 280 -11 39 -18 69 -39 185 -6 30 -16 84 -23 120 -10 50 -14 368
-16 1390 -2 729 -1 1335 2 1347 5 23 64 55 124 68 17 3 33 11 36 16 4 5 12 9
20 9 15 0 204 90 290 138 100 56 194 124 229 165 20 23 43 50 52 60 22 26 28
15 14 -27 -28 -85 -269 -249 -510 -346 -30 -12 -69 -29 -87 -36 -17 -8 -34
-14 -38 -14 -25 0 -96 -44 -100 -63 -3 -12 -4 -600 -2 -1307 2 -932 6 -1301
15 -1345 6 -33 16 -91 22 -130 19 -120 29 -169 39 -195 5 -14 19 -59 31 -100
12 -41 25 -84 29 -95 5 -11 19 -47 31 -80 40 -105 134 -296 199 -404 354 -584
977 -1121 1726 -1485 181 -89 291 -136 315 -136 26 0 195 72 343 146 328 164
631 359 917 589 84 67 316 282 370 341 373 411 585 780 703 1224 34 129 46
201 67 395 13 119 13 2570 1 2594 -6 10 -29 25 -53 35 -24 10 -58 24 -76 32
-18 8 -37 14 -43 14 -23 0 -288 136 -369 189 -107 70 -156 114 -181 163 -24
48 -39 49 -39 3 0 -65 116 -168 309 -273 51 -29 95 -52 97 -52 2 0 36 -15 76
-34 40 -18 112 -48 161 -66 l87 -33 0 -1240 c0 -1305 -1 -1344 -46 -1572 -42
-216 -143 -506 -226 -648 -15 -26 -28 -50 -28 -54 0 -9 -100 -173 -148 -243
-143 -206 -255 -335 -473 -545 -88 -84 -134 -124 -236 -206 -169 -137 -423
-311 -591 -405 -20 -11 -77 -43 -127 -71 -178 -99 -452 -225 -490 -225 -40 0
-280 111 -498 229 -808 440 -1407 1047 -1682 1703 -63 150 -109 307 -145 495
-38 196 -41 345 -38 1584 l3 1194 30 16 c17 9 55 24 85 35 30 10 102 40 158
67 57 27 105 49 107 49 11 0 169 99 215 135 111 87 140 130 140 210 0 54 6 58
133 90 51 13 151 39 222 60 72 20 153 43 180 50 191 51 263 71 310 85 39 11
201 55 400 110 61 16 142 39 180 50 188 53 192 54 264 36 36 -9 98 -25 136
-36 39 -11 120 -34 180 -50 118 -33 191 -53 270 -75 143 -39 286 -79 382 -105
60 -16 158 -43 218 -60 61 -17 162 -44 225 -61 63 -17 119 -35 125 -40 15 -14
55 -11 55 5 0 18 -47 56 -70 56 -9 0 -36 6 -61 14 -24 7 -69 20 -99 28 -145
40 -181 50 -265 74 -49 14 -109 30 -133 35 -24 5 -48 12 -54 15 -6 4 -24 10
-42 14 -31 8 -72 19 -221 60 -44 12 -118 33 -165 45 -47 13 -143 40 -215 60
-71 20 -175 48 -230 62 -106 28 -113 28 -250 -11 -44 -12 -153 -43 -240 -67
-16 -4 -79 -21 -140 -38 -60 -16 -175 -48 -255 -70 -80 -22 -172 -48 -205 -57
-33 -9 -80 -22 -105 -29 -25 -7 -74 -20 -110 -30 -36 -10 -85 -23 -110 -30
-25 -7 -74 -21 -110 -30 -165 -45 -206 -59 -226 -77 -20 -18 -22 -18 -28 -2
-14 36 17 56 130 86 127 34 142 38 249 68 44 12 94 26 110 30 17 4 66 18 110
30 44 12 127 35 185 51 58 16 155 43 215 60 135 37 193 53 268 73 31 9 82 22
112 31 30 8 79 21 108 29 28 8 81 24 117 34 36 11 74 18 85 15 11 -2 44 -11
73 -18z"/>
<path d="M3915 6764 c-27 -8 -90 -25 -140 -38 -49 -13 -121 -33 -160 -44 -38
-12 -115 -33 -170 -48 -55 -15 -120 -32 -145 -39 -25 -8 -70 -20 -100 -28
-394 -108 -509 -140 -533 -149 -15 -6 -34 -25 -42 -42 -66 -139 -285 -306
-580 -442 l-110 -51 -3 -1164 c-2 -1026 -1 -1179 13 -1289 26 -196 48 -286
132 -525 9 -27 50 -114 89 -192 249 -490 704 -943 1319 -1314 162 -97 460
-249 489 -249 51 0 496 242 693 377 206 141 318 228 492 387 321 291 553 608
698 956 65 155 97 265 140 485 17 83 18 184 18 1309 l0 1219 -114 53 c-152 70
-303 161 -401 241 -74 60 -159 158 -183 210 -12 28 -20 31 -287 104 -124 34
-238 65 -255 70 -16 4 -55 15 -85 22 -56 15 -166 45 -350 97 -214 61 -360 100
-367 99 -5 0 -30 -7 -58 -15z m250 -244 c9 -15 -38 -80 -59 -80 -15 0 -17 5
-12 32 3 17 11 37 17 45 13 15 45 17 54 3z m-210 -133 c23 -33 19 -90 -8 -115
-18 -17 -38 -22 -87 -24 l-65 -3 -8 68 c-5 44 -5 73 2 81 6 7 38 12 81 13 61
1 72 -2 85 -20z m216 8 c0 -5 -10 -12 -23 -15 -30 -7 -37 -40 -9 -40 30 0 34
-17 6 -24 -25 -6 -34 -30 -15 -41 6 -3 10 -12 10 -19 0 -15 -76 -17 -97 -3
-17 10 -17 129 -1 145 14 14 128 11 129 -3z m-471 -68 c32 -63 33 -68 17 -84
-16 -16 -19 -16 -46 0 -26 15 -30 15 -42 1 -18 -22 -68 -46 -79 -39 -15 9 -13
152 3 162 19 13 80 31 97 30 8 -1 31 -32 50 -70z m611 53 c10 -6 19 -19 19
-30 0 -32 22 -35 45 -6 18 22 29 27 56 24 l34 -3 -3 -59 c-4 -76 -16 -106 -42
-106 -15 0 -22 8 -27 30 -5 29 -7 30 -24 14 -18 -16 -20 -16 -37 0 -18 15 -20
15 -37 -4 -11 -12 -28 -20 -39 -18 -19 3 -21 9 -19 63 1 33 5 70 8 83 6 24 33
29 66 12z m-875 -41 c3 -6 -6 -21 -21 -33 -26 -21 -27 -24 -14 -52 11 -22 22
-30 47 -32 35 -4 40 -13 18 -31 -27 -23 -70 -29 -98 -15 -38 19 -58 85 -37
122 23 42 88 67 105 41z m1159 -21 c29 -13 31 -32 7 -103 -14 -41 -22 -50 -42
-53 -47 -4 -55 10 -41 70 10 48 34 98 46 98 2 0 16 -5 30 -12z m-1351 -94 c26
-31 46 -62 46 -69 0 -18 -32 -27 -63 -20 -18 5 -28 1 -40 -19 -24 -36 -56 -52
-72 -34 -17 18 -39 138 -27 150 15 15 76 45 94 47 9 0 37 -24 62 -55z m1548
29 c22 -20 14 -30 -26 -35 -22 -2 -32 -10 -39 -32 -8 -25 -6 -32 12 -47 31
-25 26 -39 -14 -39 -46 0 -90 40 -81 73 3 12 6 27 6 34 0 6 14 26 32 43 26 26
37 31 62 26 16 -4 38 -14 48 -23z m174 -74 c59 -30 72 -64 45 -117 -11 -22
-27 -42 -36 -46 -47 -18 -118 10 -144 56 -13 22 -12 29 6 64 18 35 52 63 77
64 5 0 28 -10 52 -21z m-2023 -80 c40 -43 37 -89 -7 -122 -67 -52 -123 -42
-152 28 -17 42 -7 74 33 101 60 40 82 39 126 -7z m2258 -59 c23 -13 25 -53 3
-71 -14 -12 -44 -61 -44 -74 0 -3 9 -5 20 -5 14 0 30 15 48 45 21 36 32 44 51
43 55 -6 51 -50 -14 -125 l-30 -35 -65 40 c-81 49 -87 74 -35 145 39 52 38 51
66 37z m-2501 -50 c11 -11 20 -27 20 -34 0 -8 12 -21 27 -28 14 -7 28 -18 30
-24 6 -18 -26 -44 -52 -44 -16 0 -26 -8 -33 -29 -6 -16 -21 -32 -33 -36 -19
-6 -31 1 -71 46 -26 30 -48 57 -48 61 0 9 120 108 131 108 5 0 18 -9 29 -20z
m2718 -112 c7 -7 12 -26 12 -43 0 -41 7 -47 34 -30 20 13 25 13 44 -6 l23 -20
-42 -52 c-22 -29 -47 -56 -56 -60 -21 -13 -51 19 -55 57 -2 22 -7 30 -18 27
-33 -8 -53 -5 -63 10 -8 13 -1 28 34 72 44 56 65 67 87 45z m-2913 -55 c0 -20
10 -42 29 -63 25 -29 27 -35 15 -56 -17 -32 -39 -30 -74 6 -21 22 -36 29 -58
27 -46 -3 -43 17 9 73 53 57 79 61 79 13z m-125 -160 c33 -25 60 -51 60 -56 0
-21 -34 -47 -62 -47 -27 0 -29 -2 -26 -37 2 -32 0 -38 -17 -41 -25 -3 -124 67
-125 89 0 24 33 49 57 43 26 -7 39 12 23 31 -10 12 -9 20 4 40 9 14 19 25 21
25 3 0 32 -21 65 -47z m3215 39 c6 -4 16 -15 24 -25 13 -16 9 -23 -34 -67 -53
-54 -68 -59 -97 -33 -26 23 -23 32 29 85 47 48 59 54 78 40z m260 -107 c0 -14
-11 -23 -38 -32 -58 -20 -75 -1 -35 37 29 27 73 24 73 -5z m-145 -20 c14 -17
7 -45 -12 -45 -19 0 -78 -56 -78 -74 0 -23 11 -20 58 15 24 17 42 39 42 50 0
25 26 25 40 0 18 -34 11 -66 -20 -96 -44 -42 -92 -40 -131 5 -40 46 -46 76
-22 108 36 48 98 67 123 37z m-3544 -87 c-14 -44 -12 -53 9 -50 11 2 22 8 23
13 5 12 32 12 32 0 0 -6 -4 -13 -10 -16 -5 -3 -10 -13 -10 -22 0 -11 6 -14 20
-9 11 3 29 9 40 12 17 6 16 0 -12 -45 -18 -28 -39 -51 -45 -51 -15 0 -115 59
-125 74 -12 17 52 116 75 116 5 0 6 -10 3 -22z m1807 -50 c2 -7 0 -24 -5 -37
-8 -22 -10 -23 -26 -7 -25 22 -27 21 -51 -18 -14 -22 -21 -50 -21 -82 0 -35
-3 -45 -10 -34 -16 24 -11 83 9 113 16 26 77 75 92 77 4 0 9 -6 12 -12z m1877
-53 c8 -10 10 -29 6 -56 l-7 -41 30 7 c23 5 32 2 40 -13 13 -24 3 -37 -62 -83
-61 -42 -82 -34 -82 32 0 40 -2 44 -25 44 -66 0 -65 31 3 83 57 44 78 50 97
27z m-1854 -30 c4 -8 11 -15 17 -15 18 0 77 -63 77 -82 0 -26 -17 -22 -24 6
-3 14 -25 37 -48 53 -41 28 -60 53 -39 53 7 0 14 -7 17 -15z m-1942 -54 c-10
-50 63 -83 87 -40 10 19 13 20 26 6 13 -13 13 -19 2 -43 -8 -15 -27 -37 -42
-48 l-28 -21 -36 20 c-73 40 -89 94 -42 144 25 27 40 19 33 -18z m1934 -42 c4
-19 -27 -34 -41 -20 -14 14 0 43 20 39 10 -2 19 -10 21 -19z m-203 -40 c0 -19
-6 -25 -27 -27 -32 -4 -35 4 -12 36 19 28 39 24 39 -9z m95 -9 c0 -15 -38 -50
-54 -50 -7 0 -20 8 -27 17 -13 15 -12 16 9 10 30 -7 52 1 52 19 0 8 5 14 10
14 6 0 10 -4 10 -10z m137 -22 c-3 -7 -5 -2 -5 12 0 14 2 19 5 13 2 -7 2 -19
0 -25z m89 -31 c22 -12 17 -29 -8 -25 -19 2 -23 10 -25 43 -2 36 -2 38 8 15 5
-14 17 -28 25 -33z m72 32 c3 -17 -23 -33 -39 -23 -5 3 -9 14 -9 25 0 15 6 20
22 17 13 -2 24 -10 26 -19z m-467 -66 c-9 -15 -10 -13 -11 13 0 17 3 34 8 38
11 12 14 -32 3 -51z m-195 22 c-11 -8 -23 -15 -28 -15 -4 0 -8 -6 -8 -14 0 -8
-6 -16 -14 -19 -7 -3 -16 -19 -19 -36 -4 -17 -11 -31 -17 -31 -15 0 -4 35 26
81 23 37 36 47 64 48 11 0 10 -3 -4 -14z m424 7 c0 -19 -47 -51 -80 -54 -25
-2 -38 -10 -45 -25 -14 -32 -27 -29 -23 4 3 25 8 29 53 35 34 5 54 14 64 27
14 21 31 28 31 13z m460 -1 c0 -12 -20 -25 -27 -18 -7 7 6 27 18 27 5 0 9 -4
9 -9z m-834 -25 c3 -14 1 -33 -5 -43 -9 -16 -10 -15 -11 9 0 14 -3 33 -6 42
-3 9 -1 16 5 16 6 0 13 -11 17 -24z m487 -36 c8 0 17 -7 21 -15 3 -8 12 -15
21 -15 8 0 15 -4 15 -9 0 -24 -20 -17 -63 23 -35 31 -46 48 -41 61 6 14 9 12
20 -14 7 -17 20 -31 27 -31z m152 5 c-3 -67 -15 -68 -15 -1 0 31 4 55 8 52 5
-3 8 -26 7 -51z m252 38 c27 -36 53 -98 52 -127 -1 -29 -2 -28 -12 11 -7 23
-18 48 -24 55 -7 6 -13 16 -13 22 0 5 -10 20 -22 33 -14 15 -17 23 -8 23 7 0
19 -8 27 -17z m-67 -59 c0 -8 16 -36 35 -61 19 -25 33 -48 30 -51 -6 -7 -55
41 -55 54 0 6 -7 17 -15 24 -17 14 -21 65 -5 55 6 -3 10 -13 10 -21z m-671
-21 c8 -28 19 -42 41 -51 41 -18 38 -28 -12 -44 -35 -10 -44 -18 -46 -40 -3
-24 1 -27 30 -30 25 -2 33 -8 33 -23 0 -27 -24 -29 -62 -5 -42 25 -43 57 -3
96 33 33 37 46 15 64 -13 11 -22 70 -10 70 2 0 9 -17 14 -37z m-179 -10 c-1
-23 -36 -66 -51 -61 -8 3 -7 8 3 19 8 8 20 24 27 37 14 27 21 28 21 5z m294
-33 c8 0 19 -7 27 -16 10 -13 10 -17 -2 -25 -19 -12 -25 -11 -43 7 -9 8 -16
27 -16 42 1 23 2 25 11 10 5 -10 16 -18 23 -18z m384 -55 c41 -34 41 -73 1
-92 -15 -7 -32 -20 -39 -28 -11 -13 -14 -12 -26 11 -18 35 -20 33 26 40 34 6
40 10 40 31 0 29 -30 42 -119 51 -63 7 -64 8 -46 25 13 14 27 17 50 13 19 -4
38 -1 50 8 18 13 20 13 25 -8 3 -13 20 -36 38 -51z m-774 4 c9 14 36 15 36 1
0 -5 -5 -10 -11 -10 -5 0 -23 -15 -40 -32 l-29 -33 2 53 c2 51 3 52 19 31 11
-15 18 -18 23 -10z m1071 -9 c13 -41 -15 -54 -33 -16 -8 19 -8 26 1 30 21 8
26 6 32 -14z m-1177 -27 c7 -10 16 -24 21 -31 4 -8 26 -16 49 -19 l40 -5 -20
-39 c-10 -21 -18 -46 -17 -56 2 -10 -2 -28 -9 -40 -12 -21 -14 -22 -36 -8 -21
14 -25 14 -36 0 -16 -19 -5 -98 15 -115 8 -7 15 -17 15 -23 0 -20 33 -47 57
-47 19 0 23 5 23 31 0 27 2 30 15 19 8 -7 15 -28 15 -48 0 -19 5 -52 12 -73 9
-33 15 -39 40 -39 17 0 28 -5 28 -14 0 -10 -13 -14 -46 -13 -56 0 -105 36 -85
61 10 11 4 23 -29 58 -49 52 -80 111 -80 152 0 17 -9 51 -21 75 -13 31 -16 48
-9 55 7 7 10 3 10 -12 0 -24 31 -45 54 -36 22 8 21 90 0 133 -13 27 -20 32
-40 27 -13 -4 -24 -3 -24 2 0 27 40 30 58 5z m214 0 c24 -22 22 -51 -8 -93
-13 -19 -34 -50 -45 -67 -18 -29 -23 -31 -42 -21 l-21 11 24 16 c77 50 117
136 70 148 -11 3 -20 9 -20 14 0 14 22 10 42 -8z m859 2 c0 -6 -10 -12 -23
-13 -19 -4 -20 -2 -9 12 15 17 33 18 32 1z m241 -7 c15 -17 18 -32 14 -58 -3
-19 -7 -44 -8 -55 -1 -11 -4 9 -7 45 -6 63 -7 65 -33 63 -27 -2 -35 6 -21 20
13 13 36 7 55 -15z m-1162 -17 c0 -12 -20 -25 -27 -18 -7 7 6 27 18 27 5 0 9
-4 9 -9z m965 -1 c3 -5 -1 -10 -9 -10 -9 0 -16 5 -16 10 0 6 4 10 9 10 6 0 13
-4 16 -10z m-1188 -32 c-3 -8 -6 -5 -6 6 -1 11 2 17 5 13 3 -3 4 -12 1 -19z
m592 16 c30 -6 31 -8 15 -25 -16 -17 -36 -16 -61 4 -13 9 -9 27 6 27 5 0 23
-3 40 -6z m149 -4 l27 -1 -31 -13 c-18 -8 -35 -19 -39 -26 -5 -8 -12 -5 -22
10 -13 19 -13 24 -2 31 8 5 20 7 27 4 8 -3 26 -5 40 -5z m97 4 c14 -6 14 -8
-1 -25 -22 -24 -36 -24 -51 0 -10 15 -10 21 0 24 18 8 33 8 52 1z m461 -53
c-6 -51 -4 -61 11 -69 11 -7 24 -7 35 -1 23 12 27 1 18 -46 l-7 -40 -11 28
c-15 34 -57 38 -68 5 -6 -20 -7 -19 -20 11 -8 19 -14 47 -14 64 0 17 -11 45
-26 64 -19 25 -22 33 -10 33 9 0 16 -4 16 -10 0 -15 26 -12 40 5 7 8 19 15 28
15 12 0 13 -10 8 -59z m-176 18 c0 -6 21 -31 47 -55 38 -36 44 -47 32 -55 -19
-12 -33 -6 -38 17 -2 10 -16 32 -32 48 -29 30 -38 56 -19 56 6 0 10 -5 10 -11z
m-515 -125 c5 -25 35 -36 59 -22 12 6 16 25 17 66 l2 57 6 -50 c4 -27 10 -56
14 -62 12 -19 55 -15 69 6 11 18 12 18 29 -3 15 -19 21 -20 48 -9 40 15 49 0
16 -29 -14 -12 -26 -33 -26 -47 l-2 -26 -4 25 c-6 33 -22 52 -36 43 -7 -4 -32
-7 -57 -8 l-45 0 -5 -190 -6 -190 -2 193 c-2 158 -5 194 -17 198 -8 3 -20 2
-27 -2 -22 -14 -102 -13 -125 2 -20 13 -23 23 -23 80 0 41 4 63 10 59 6 -3 10
-24 10 -45 0 -56 8 -70 41 -70 24 0 29 5 35 35 3 19 4 42 0 50 -3 8 -2 23 2
33 5 11 8 2 10 -28 1 -25 4 -55 7 -66z m-368 -28 c-4 -9 -11 -16 -18 -16 -6 0
-8 7 -5 16 3 9 6 21 6 27 0 8 3 8 11 0 7 -7 9 -19 6 -27z m943 -12 c0 -8 -4
-12 -10 -9 -5 3 -10 13 -10 21 0 8 5 12 10 9 6 -3 10 -13 10 -21z m-1001 -14
c26 0 27 -12 2 -34 -18 -16 -20 -16 -35 6 -9 12 -16 32 -16 43 1 19 1 19 14 3
7 -10 23 -18 35 -18z m1070 -2 c-1 -7 -4 -23 -7 -35 l-7 -22 -24 24 -23 25 23
9 c33 13 39 13 38 -1z m539 -34 c122 -68 158 -105 212 -215 43 -86 52 -119 35
-119 -19 0 -168 152 -235 240 -32 42 -65 81 -74 89 -9 7 -16 17 -16 22 0 16
30 9 78 -17z m-448 -3 c0 -11 -7 -26 -15 -35 -8 -8 -15 -18 -15 -23 0 -5 -18
-26 -41 -47 -31 -30 -39 -44 -35 -61 4 -14 0 -28 -9 -35 -24 -20 -18 -49 10
-56 29 -7 28 -27 -1 -33 -24 -4 -66 -49 -59 -62 4 -5 14 -9 24 -9 28 0 57 -38
45 -57 -18 -29 -34 -27 -28 4 4 23 1 30 -22 41 -16 6 -34 12 -41 12 -8 0 -16
7 -19 15 -8 19 -34 20 -34 1 0 -8 -17 -20 -37 -27 -21 -7 -43 -19 -49 -27 -14
-19 -59 -12 -58 9 1 12 -4 15 -19 11 -17 -4 -19 -2 -12 14 25 60 28 73 22 88
-10 26 -44 18 -69 -16 -73 -103 -81 -174 -13 -123 40 31 52 31 60 3 4 -13 17
-31 29 -41 21 -17 20 -18 -26 -11 -57 7 -84 0 -91 -27 -4 -13 -12 -19 -24 -17
-16 3 -18 13 -16 88 3 144 6 190 10 152 6 -48 28 -50 68 -8 18 20 38 36 43 36
6 0 20 12 31 28 l22 27 -2 -60 c-2 -99 0 -115 16 -115 8 0 20 9 27 20 7 11 24
20 37 20 13 0 33 8 43 17 14 13 21 14 30 5 13 -13 47 -16 64 -4 6 4 14 17 18
29 10 33 -33 59 -74 45 -29 -11 -30 -10 -30 20 0 30 0 31 20 13 16 -15 22 -15
35 -5 8 7 15 21 15 31 0 11 9 27 20 36 11 10 20 23 20 30 0 8 12 13 29 13 30
0 52 24 78 83 14 32 23 35 23 8z m-1670 -4 c0 -8 -10 -22 -21 -33 -12 -10 -38
-44 -59 -74 -50 -72 -208 -240 -226 -240 -20 0 -18 8 21 101 46 109 111 174
240 242 37 20 45 21 45 4z m607 -9 c16 -18 22 -41 25 -100 3 -43 2 -78 -3 -78
-10 0 -21 52 -19 87 1 16 2 41 1 57 -1 26 -3 28 -31 23 -32 -7 -38 1 -18 21
16 16 21 15 45 -10z m86 -21 c-3 -20 -10 -37 -14 -37 -14 0 -10 68 4 73 17 6
17 5 10 -36z m100 22 c19 -22 19 -50 0 -56 -7 -3 -9 4 -6 18 4 15 -1 27 -18
40 -17 13 -19 19 -9 19 9 0 24 -9 33 -21z m687 2 c0 -9 -41 -23 -48 -17 -1 2
4 11 13 20 16 16 35 14 35 -3z m-520 -128 c0 -78 -4 -132 -9 -125 -4 7 -7 64
-5 125 3 135 3 137 9 137 3 0 5 -62 5 -137z m566 82 c9 -19 9 -27 0 -35 -10
-7 -15 -1 -23 25 -13 42 5 50 23 10z m-626 -112 c0 -58 -2 -104 -5 -101 -7 7
-15 190 -9 200 12 19 14 3 14 -99z m517 60 c-3 -10 -5 -2 -5 17 0 19 2 27 5
18 2 -10 2 -26 0 -35z m-647 18 c0 -5 -9 -11 -20 -14 -11 -3 -24 -17 -30 -31
-6 -16 -17 -26 -29 -26 -19 0 -19 1 -3 40 15 35 21 40 50 40 17 0 32 -4 32 -9z
m-361 -57 c42 -9 40 -24 -3 -17 -18 3 -43 0 -55 -7 -22 -11 -22 -12 -4 -32 10
-11 34 -28 53 -36 33 -15 34 -16 11 -20 -15 -2 -30 3 -37 12 -6 9 -16 16 -23
16 -6 0 -16 12 -21 26 -13 32 -13 30 6 48 17 18 27 19 73 10z m930 -13 c-26
-21 -35 -20 -26 4 4 8 16 15 28 15 21 0 21 0 -2 -19z m369 3 c12 -8 22 -21 22
-29 0 -17 -72 -75 -94 -75 -22 0 -20 20 2 20 26 1 64 37 60 57 -3 14 -13 18
-46 17 -23 0 -42 3 -42 7 0 7 11 10 65 18 6 0 21 -6 33 -15z m-314 -3 c4 -5 2
-20 -3 -33 -7 -16 -10 -18 -10 -6 -1 9 -4 23 -7 32 -6 17 11 23 20 7z m1059
-31 c98 -107 117 -165 117 -352 0 -75 -4 -139 -8 -142 -4 -2 -28 15 -52 38
-25 24 -81 74 -125 112 -107 92 -116 101 -159 157 -60 81 -44 104 27 38 23
-22 70 -60 104 -86 35 -25 75 -60 90 -76 27 -28 63 -39 63 -19 0 24 -54 211
-77 265 -47 114 -41 134 20 65z m-1699 0 c4 -20 14 -34 31 -40 30 -11 32 -26
5 -35 -26 -8 -37 -1 -43 32 -3 16 -8 38 -12 51 -4 12 -3 22 3 22 5 0 12 -14
16 -30z m-1096 2 c-27 -63 -62 -166 -82 -242 -13 -52 -27 -103 -31 -112 -5
-12 -2 -20 10 -24 12 -5 35 11 78 53 82 78 224 203 231 203 3 0 6 -7 6 -16 0
-28 -65 -105 -209 -248 -104 -103 -144 -137 -152 -129 -19 19 -7 329 14 377
22 49 103 146 124 146 8 0 13 -3 11 -8z m1751 -79 c-19 -22 -29 -15 -29 19 0
30 0 31 20 13 15 -14 17 -21 9 -32z m-759 23 c0 -8 -4 -18 -10 -21 -5 -3 -10
-17 -10 -31 0 -17 6 -24 19 -24 11 0 21 6 23 12 3 7 11 -1 19 -17 18 -38 56
-46 61 -13 2 13 8 22 13 21 14 -3 19 -53 6 -53 -6 0 -11 -6 -11 -14 0 -18 -83
-59 -107 -53 -12 3 -8 7 15 12 42 10 39 34 -7 50 -19 6 -37 17 -39 23 -4 13
-34 16 -45 5 -4 -3 -25 -14 -47 -24 -33 -15 -40 -16 -40 -4 0 9 10 15 25 15
25 0 35 23 15 35 -21 13 -9 24 20 18 34 -6 70 18 70 47 0 9 3 20 7 23 11 12
23 8 23 -7z m-140 -26 c0 -24 -3 -28 -17 -23 -33 11 -34 15 -17 34 24 27 34
24 34 -11z m567 -42 c-2 -13 -4 -3 -4 22 0 25 2 35 4 23 2 -13 2 -33 0 -45z
m-233 36 c4 -10 1 -14 -6 -12 -15 5 -23 28 -10 28 5 0 13 -7 16 -16z m56 -33
c13 -25 13 -81 0 -81 -16 0 -48 84 -36 92 17 12 25 9 36 -11z m57 -63 c-2 -13
-4 -5 -4 17 -1 22 1 32 4 23 2 -10 2 -28 0 -40z m-75 -58 c8 0 19 -5 26 -12
17 -17 15 -68 -1 -68 -18 0 -75 -28 -82 -41 -4 -5 -17 -9 -31 -9 -14 0 -22 4
-19 10 3 6 17 10 29 10 13 0 29 7 36 15 7 8 19 15 26 15 18 0 18 24 0 39 -9 8
-32 10 -67 5 l-53 -7 22 28 c12 15 22 39 22 52 l0 25 39 -31 c21 -17 45 -31
53 -31z m200 -49 c-9 -33 -10 -29 -10 34 0 62 1 66 10 36 6 -22 6 -47 0 -70z
m-584 64 c16 -15 21 -25 13 -25 -16 0 -51 29 -51 42 0 13 9 9 38 -17z m897
-15 c4 -6 -5 -10 -19 -10 -14 0 -26 5 -26 10 0 6 9 10 19 10 11 0 23 -4 26
-10z m1305 -76 c21 -51 25 -78 28 -194 3 -123 1 -143 -23 -220 -14 -47 -31
-105 -38 -130 -13 -50 -41 -66 -50 -28 -7 27 -50 95 -122 193 -95 129 -165
265 -137 265 4 0 48 -40 98 -89 64 -63 100 -108 125 -157 48 -94 65 -92 60 6
-6 128 10 421 23 417 6 -2 22 -30 36 -63z m-2112 49 c-10 -2 -26 -2 -35 0 -10
3 -2 5 17 5 19 0 27 -2 18 -5z m910 0 c-10 -2 -26 -2 -35 0 -10 3 -2 5 17 5
19 0 27 -2 18 -5z m-2083 -135 c4 -73 9 -186 11 -252 2 -65 6 -121 9 -124 8
-8 45 29 45 46 0 34 67 130 154 220 57 58 86 76 86 52 0 -20 -83 -166 -160
-280 -42 -64 -87 -135 -99 -159 -13 -24 -26 -39 -30 -35 -4 5 -22 59 -40 119
-19 61 -40 130 -47 154 -27 88 -13 231 34 348 9 24 20 43 23 43 3 0 9 -60 14
-132z m1298 95 c-15 -10 -23 -26 -23 -44 0 -23 5 -28 28 -31 23 -4 24 -5 9
-12 -13 -6 -25 -2 -43 14 -13 13 -24 27 -24 30 0 17 43 60 58 59 14 0 13 -3
-5 -16z m642 7 c3 -5 -3 -10 -14 -10 -12 0 -21 5 -21 10 0 6 6 10 14 10 8 0
18 -4 21 -10z m-146 -34 c6 -7 26 -17 44 -21 24 -6 27 -9 13 -12 -19 -5 -86
26 -86 39 0 13 17 9 29 -6z m-266 -25 c7 -35 34 -47 57 -26 15 14 18 14 30 0
11 -14 15 -14 29 -1 15 14 71 12 71 -3 -1 -27 -23 -35 -102 -36 -46 0 -89 1
-95 3 -8 3 -13 22 -13 48 0 50 14 59 23 15z m447 9 c0 -11 -4 -20 -10 -20 -5
0 -10 9 -10 20 0 11 5 20 10 20 6 0 10 -9 10 -20z m-40 -40 c0 -5 -6 -10 -14
-10 -8 0 -18 5 -21 10 -3 6 3 10 14 10 12 0 21 -4 21 -10z m-813 -125 c133
-16 214 -38 321 -86 156 -70 161 -81 162 -401 1 -134 1 -247 0 -252 0 -4 -19
7 -43 27 -114 93 -341 177 -522 192 -93 7 -153 19 -247 47 -77 23 -94 37 -79
66 6 11 21 53 35 93 84 251 119 345 132 355 11 9 26 7 64 -7 27 -10 107 -26
177 -34z m1262 21 c12 -26 52 -137 132 -370 34 -101 36 -97 -46 -124 -54 -17
-249 -52 -292 -52 -43 0 -204 -38 -218 -51 -5 -5 -15 -9 -23 -9 -28 0 -204
-92 -241 -125 -21 -19 -41 -35 -45 -35 -3 0 -6 112 -6 249 0 318 5 333 135
399 87 43 222 81 348 97 70 8 149 24 175 34 57 23 63 22 81 -13z m1020 -416
c-10 -120 -27 -176 -84 -270 -58 -96 -147 -214 -160 -212 -5 1 -13 38 -17 82
-4 44 -18 112 -31 152 -14 40 -32 102 -40 138 -40 171 -50 221 -44 227 6 5 46
-35 47 -48 0 -3 20 -40 44 -83 39 -68 70 -161 78 -236 5 -44 32 -29 52 30 10
30 38 105 62 165 23 61 50 137 60 170 9 33 19 65 23 70 12 19 18 -91 10 -185z
m-3520 55 c15 -44 38 -100 50 -125 24 -48 55 -142 66 -200 11 -61 16 -70 35
-70 21 0 29 29 29 106 0 57 21 117 88 246 61 116 75 105 43 -34 -12 -57 -32
-137 -42 -178 -27 -102 -58 -250 -58 -277 0 -13 -6 -23 -12 -22 -17 1 -162
196 -195 261 -28 56 -52 202 -53 316 0 85 15 77 49 -23z m897 -190 c43 -14
146 -34 237 -45 173 -22 197 -27 197 -39 0 -12 -361 -3 -445 10 -105 17 -114
24 -95 73 12 32 12 32 106 1z m1802 -17 c3 -41 4 -41 -93 -57 -75 -13 -455
-22 -455 -11 0 13 22 17 170 35 144 17 306 51 316 67 3 5 18 8 32 6 23 -3 27
-8 30 -40z m-1863 -109 c22 -6 141 -14 265 -19 279 -10 342 -24 155 -33 -71
-3 -155 -11 -186 -17 -32 -6 -112 -9 -180 -8 -135 3 -139 6 -125 64 7 27 14
28 71 13z m1881 -14 c9 -14 13 -32 9 -45 -6 -19 -14 -20 -138 -20 -73 0 -150
5 -172 10 -22 5 -100 13 -174 16 -196 10 -136 24 144 34 127 5 244 13 260 18
45 15 53 14 71 -13z m-2342 -165 c8 -63 23 -173 31 -245 9 -71 23 -150 31
-174 17 -53 18 -71 3 -71 -18 0 -209 134 -289 203 -105 90 -149 157 -190 290
-34 107 -23 115 38 30 22 -32 81 -102 130 -156 50 -53 112 -126 138 -162 26
-36 54 -65 61 -65 17 0 17 32 -1 75 -25 60 -28 134 -11 270 9 72 19 134 22
139 11 17 21 -20 37 -134z m2789 29 c22 -129 18 -225 -13 -297 -12 -29 -20
-55 -16 -59 12 -12 51 19 79 62 15 24 77 99 138 166 61 68 121 140 132 161 22
38 47 50 47 23 0 -37 -47 -156 -84 -210 -73 -110 -142 -172 -331 -303 -85 -59
-97 -57 -73 13 10 30 22 99 28 152 15 156 41 377 46 391 11 37 31 -4 47 -99z
m-1883 32 c-8 -5 -46 -16 -85 -24 -38 -9 -113 -27 -165 -40 -55 -14 -133 -26
-185 -28 l-90 -4 -3 29 c-2 16 1 33 6 38 5 5 74 11 153 13 79 2 167 8 194 13
66 12 195 14 175 3z m1155 -11 c22 -6 96 -9 165 -9 l124 1 7 -25 c4 -15 2 -33
-5 -42 -11 -15 -23 -16 -117 -6 -57 6 -129 18 -159 27 -30 9 -95 25 -145 36
-129 28 -133 42 -10 34 55 -3 118 -11 140 -16z m526 -392 c-20 -98 -38 -156
-69 -221 -58 -121 -51 -130 53 -67 36 22 109 63 162 91 124 65 161 89 209 133
111 102 37 -40 -79 -151 -91 -88 -171 -136 -284 -171 -131 -40 -240 -65 -252
-58 -6 4 4 29 25 62 30 46 105 225 134 316 21 67 106 212 119 204 5 -3 -4 -65
-18 -138z m-2439 105 c35 -41 107 -199 165 -358 17 -48 62 -133 81 -157 26
-31 9 -47 -40 -38 -24 5 -83 16 -133 25 -103 20 -174 50 -261 111 -83 58 -237
235 -220 252 8 7 16 2 78 -49 23 -20 111 -71 193 -114 83 -42 157 -83 165 -90
19 -16 105 -65 113 -65 17 0 4 37 -22 65 -57 58 -99 163 -126 310 -8 44 -18
90 -21 103 -8 26 7 29 28 5z m357 -420 c53 -49 98 -91 101 -94 26 -31 162
-122 197 -132 70 -18 53 -35 -63 -62 -309 -72 -430 -60 -614 61 -65 43 -103
85 -63 69 85 -32 151 -45 313 -60 102 -9 202 -21 222 -27 45 -13 76 -5 58 17
-6 8 -35 27 -63 43 -65 37 -127 116 -196 250 -22 43 10 23 108 -65z m1821 62
c-36 -94 -104 -184 -180 -235 -62 -42 -74 -60 -40 -60 51 0 419 41 450 51 19
5 56 20 82 31 102 45 53 -14 -72 -89 -144 -86 -270 -98 -518 -48 -78 15 -150
34 -160 41 -15 11 -14 13 13 19 80 17 148 65 310 219 103 99 132 117 115 71z
m-633 -340 c44 -8 142 -40 219 -70 196 -79 319 -98 447 -69 65 15 2 -35 -78
-61 -111 -37 -201 -43 -300 -21 -67 14 -88 24 -213 100 -102 61 -190 104 -232
112 -16 4 -27 10 -24 15 8 14 93 11 181 -6z m-497 0 c0 -2 -30 -19 -67 -38
-38 -19 -99 -55 -138 -81 -110 -74 -181 -105 -270 -117 -137 -19 -284 9 -340
64 -20 19 -19 19 57 12 93 -8 217 14 323 56 39 16 75 29 80 29 6 0 21 6 35 13
38 19 110 45 155 56 42 9 165 14 165 6z m280 -34 c0 -22 6 -32 23 -37 31 -10
117 -65 225 -146 73 -55 92 -75 90 -92 -6 -43 -41 -30 -122 43 -158 144 -292
229 -339 217 -40 -10 -201 -122 -280 -195 -39 -37 -83 -74 -96 -83 -25 -17
-51 -14 -51 6 0 29 188 181 291 236 39 21 59 38 63 55 6 24 8 25 101 25 l95 0
0 -29z"/>
<path d="M3856 6372 c-3 -5 -3 -26 1 -46 4 -27 10 -36 22 -34 20 4 26 40 11
67 -11 22 -25 27 -34 13z"/>
<path d="M3612 6309 c1 -12 9 -24 16 -27 9 -3 13 3 10 19 -1 12 -9 24 -16 27
-9 3 -13 -3 -10 -19z"/>
<path d="M3160 6197 c0 -18 28 -42 37 -33 9 8 -9 38 -25 44 -7 2 -12 -3 -12
-11z"/>
<path d="M4910 6118 c-11 -23 -20 -50 -20 -61 0 -44 55 15 66 71 10 48 -21 42
-46 -10z"/>
<path d="M2836 6068 c10 -33 55 -89 65 -82 26 15 -19 104 -52 104 -17 0 -19
-4 -13 -22z"/>
<path d="M2626 5941 c-9 -13 3 -39 20 -45 17 -6 29 17 20 39 -6 17 -32 20 -40
6z"/>
</g>
</svg>
