<svg width="18" height="18" viewBox="0 0 18 18" fill="none" xmlns="http://www.w3.org/2000/svg">
<path d="M0 3C0 1.34315 1.34315 0 3 0H13C15.7614 0 18 2.23858 18 5V13C18 15.7614 15.7614 18 13 18H5C2.23858 18 0 15.7614 0 13V3Z" fill="#FC7A02"/>
<path d="M14.125 8.08125C13.1938 7.01875 11.2688 5.25 9 5.25C6.73125 5.25 4.81875 7.01875 3.875 8.08125C3.58125 8.40625 3.375 8.65 3.375 9.0375C3.375 9.425 3.5875 9.675 3.875 9.99375C4.80625 11.0563 6.73125 12.825 9 12.825C11.2688 12.825 13.1813 11.0563 14.125 9.99375C14.4188 9.66875 14.625 9.425 14.625 9.0375C14.625 8.65 14.4125 8.4 14.125 8.08125ZM11.35 9.04375C11.35 10.2563 10.3 11.2563 9 11.2563C7.7 11.2563 6.65 10.2563 6.65 9.04375C6.65 7.83125 7.7125 6.83125 9 6.83125C10.2875 6.83125 11.35 7.83125 11.35 9.04375Z" fill="white"/>
<path d="M9.0002 10.3188C8.25645 10.3188 7.6377 9.75001 7.6377 9.03751C7.6377 8.32501 8.24395 7.75626 9.0002 7.75626C9.75644 7.75626 10.3627 8.32501 10.3627 9.03751C10.3627 9.75001 9.75644 10.3188 9.0002 10.3188Z" fill="white"/>
</svg>
