<svg width="18" height="16" viewBox="0 0 18 16" fill="none" xmlns="http://www.w3.org/2000/svg">
<path fill-rule="evenodd" clip-rule="evenodd" d="M7.52463 2.51248C8.4431 2.09445 9.45175 1.91445 10.4578 1.98905C11.4639 2.06364 12.4351 2.39043 13.2821 2.93937C14.1292 3.4883 14.8248 4.24175 15.3051 5.13043C15.7854 6.01912 16.0349 7.0145 16.0307 8.02505C16.0265 9.03561 15.7687 10.0289 15.2811 10.9135C14.7934 11.7982 14.0916 12.5458 13.24 13.0877C12.3885 13.6295 11.4146 13.9482 10.4079 14.0144C9.40127 14.0807 8.39414 13.8923 7.47917 13.4666C6.98598 13.2372 6.40048 13.4517 6.17143 13.9457C5.94237 14.4397 6.1565 15.0262 6.6497 15.2557C7.86411 15.8207 9.20084 16.0707 10.537 15.9828C11.8731 15.8949 13.1657 15.4719 14.2959 14.7527C15.4262 14.0335 16.3577 13.0412 17.005 11.8671C17.6522 10.6929 17.9944 9.37453 17.9999 8.03326C18.0055 6.69198 17.6743 5.37083 17.0368 4.1913C16.3994 3.01178 15.476 2.01174 14.3518 1.28316C13.2276 0.554575 11.9385 0.120835 10.6032 0.0218268C9.26785 -0.0771815 7.92909 0.16172 6.71003 0.716561C6.21495 0.941891 5.99596 1.52659 6.2209 2.02252C6.44585 2.51844 7.02955 2.73781 7.52463 2.51248Z" fill="#7781A5"/>
<path fill-rule="evenodd" clip-rule="evenodd" d="M5.37686 2.84614C5.80149 3.18642 5.87034 3.8071 5.53063 4.23245L3.30954 7.01357H9.13785C9.68163 7.01357 10.1225 7.45515 10.1225 7.99987C10.1225 8.54459 9.68163 8.98618 9.13785 8.98618H3.30954L5.53063 11.7673C5.87034 12.1927 5.80149 12.8133 5.37686 13.1536C4.95223 13.4939 4.33262 13.4249 3.99292 12.9996L0 7.99987L3.99292 3.00018C4.33262 2.57482 4.95223 2.50586 5.37686 2.84614Z" fill="#7781A5"/>
</svg>
