<svg width="18" height="18" viewBox="0 0 18 18" fill="none" xmlns="http://www.w3.org/2000/svg">
<path d="M0 3C0 1.34315 1.34315 0 3 0H13C15.7614 0 18 2.23858 18 5V13C18 15.7614 15.7614 18 13 18H5C2.23858 18 0 15.7614 0 13V3Z" fill="#62C462"/>
<path d="M13.0693 5.21841L12.9184 5.41548L13.0693 5.21841C12.7195 4.95071 12.2052 4.995 11.9133 5.3269L7.66337 10.1585L5.31926 8.45295L5.1821 8.64147L5.31926 8.45295C4.96323 8.1939 4.44997 8.24931 4.16627 8.5886C3.87361 8.93861 3.94557 9.44424 4.31159 9.71055L6.98872 11.6585C7.50427 12.0336 8.24536 11.96 8.66547 11.4824L13.1855 6.34357C13.4867 6.00119 13.4291 5.4938 13.0693 5.21841Z" fill="white" stroke="white" stroke-width="0.5"/>
</svg>
