<svg width="35" height="34" viewBox="0 0 35 34" fill="none" xmlns="http://www.w3.org/2000/svg">
<g filter="url(#filter0_d_49_15041)">
<rect x="5.5" y="3" width="24" height="24" rx="5" fill="white" shape-rendering="crispEdges"/>
<path d="M8.5 9.46472C8.64311 9.13202 8.82042 9.02805 9.18089 9L27.8579 9.00629C28.174 9.02321 28.4094 9.21374 28.4636 9.52613C28.3947 10.5252 28.5671 11.6703 28.469 12.652C28.4001 13.3387 27.7129 13.1346 27.2376 13.3246C25.8221 13.8904 25.8226 15.9273 27.2376 16.4931C27.6914 16.6744 28.2585 16.4877 28.4489 17.0313L28.467 20.2567C28.4231 20.6455 28.1202 20.8211 27.7471 20.8182H9.18089C8.81993 20.7897 8.64311 20.6857 8.5 20.353V17.0322C8.7325 16.4853 9.26099 16.6797 9.72941 16.4926C11.1444 15.9273 11.1449 13.8899 9.72941 13.3242C9.26099 13.137 8.7325 13.3314 8.5 12.7845V9.46472ZM14.077 10.1596H9.66982V12.1288C11.3818 12.4702 12.3802 14.2633 11.7765 15.8939C11.4458 16.7876 10.6252 17.5197 9.66982 17.6889V19.6581H14.0765V17.7857C14.0765 17.7325 14.2519 17.5187 14.3125 17.4786C14.5137 17.3466 14.7706 17.3466 14.9714 17.4786C15.0319 17.5182 15.2073 17.7325 15.2073 17.7857V19.6581H27.2972V17.6889C25.5852 17.3475 24.5868 15.5544 25.1905 13.9238C25.5212 13.0301 26.3418 12.298 27.2972 12.1288V10.1596H15.2073V12.032C15.2073 12.0852 15.0319 12.299 14.9714 12.3391C14.7701 12.4711 14.5132 12.4711 14.3125 12.3391C14.2519 12.2995 14.0765 12.0852 14.0765 12.032V10.1596H14.077Z" fill="#076E4C"/>
<path d="M14.9616 13.6097C15.0534 13.703 15.1174 13.8592 15.1311 13.9953C15.1667 14.3503 15.178 15.5531 15.1218 15.8807C15.0129 16.5169 14.0936 16.4816 14.0023 15.8459C13.9632 15.5726 13.9603 14.1763 14.0086 13.9209C14.0926 13.4746 14.6641 13.3074 14.9611 13.6102L14.9616 13.6097Z" fill="#076E4C"/>
<path d="M22.1792 15.0736C21.9966 14.8753 21.6924 14.8753 21.5185 15.0736L20.623 16.0949V12.5354C20.623 12.238 20.4144 12 20.1535 12C19.8927 12 19.6841 12.238 19.6841 12.5354V16.0949L18.7886 15.0736C18.606 14.8753 18.3017 14.8753 18.1279 15.0736C18.0409 15.1728 17.9888 15.3116 17.9888 15.4504C17.9888 15.5892 18.0409 15.728 18.1279 15.8272L19.6928 17.6119C19.8145 17.7507 19.9884 17.83 20.1622 17.83C20.3361 17.83 20.5013 17.7507 20.6317 17.6119L22.1879 15.8371C22.2748 15.7379 22.327 15.5991 22.327 15.4603C22.327 15.3215 22.2748 15.1827 22.1879 15.0836L22.1792 15.0736Z" fill="#076E4C"/>
</g>
<defs>
<filter id="filter0_d_49_15041" x="0.5" y="0" width="34" height="34" filterUnits="userSpaceOnUse" color-interpolation-filters="sRGB">
<feFlood flood-opacity="0" result="BackgroundImageFix"/>
<feColorMatrix in="SourceAlpha" type="matrix" values="0 0 0 0 0 0 0 0 0 0 0 0 0 0 0 0 0 0 127 0" result="hardAlpha"/>
<feOffset dy="2"/>
<feGaussianBlur stdDeviation="2.5"/>
<feComposite in2="hardAlpha" operator="out"/>
<feColorMatrix type="matrix" values="0 0 0 0 0.69284 0 0 0 0 0.711638 0 0 0 0 0.778472 0 0 0 0.5 0"/>
<feBlend mode="normal" in2="BackgroundImageFix" result="effect1_dropShadow_49_15041"/>
<feBlend mode="normal" in="SourceGraphic" in2="effect1_dropShadow_49_15041" result="shape"/>
</filter>
</defs>
</svg>
