<svg width="35" height="34" viewBox="0 0 35 34" fill="none" xmlns="http://www.w3.org/2000/svg">
<g filter="url(#filter0_d_49_7727)">
<rect x="5.5" y="3" width="24" height="24" rx="12" fill="white" shape-rendering="crispEdges"/>
<rect x="5.5" y="3" width="24" height="24" rx="8" fill="white"/>
<path fill-rule="evenodd" clip-rule="evenodd" d="M22.5 7.2H12.5C10.95 7.2 9.7 8.45 9.7 10V20C9.7 21.55 10.95 22.8 12.5 22.8H22.5C24.05 22.8 25.3 21.55 25.3 20V10C25.3 8.45 24.05 7.2 22.5 7.2ZM12.5 6C10.29 6 8.5 7.79 8.5 10V20C8.5 22.21 10.29 24 12.5 24H22.5C24.71 24 26.5 22.21 26.5 20V10C26.5 7.79 24.71 6 22.5 6H12.5Z" fill="#076E4C"/>
<path fill-rule="evenodd" clip-rule="evenodd" d="M11.92 12.5H16.32C16.65 12.5 16.92 12.23 16.92 11.9C16.92 11.57 16.65 11.3 16.32 11.3H11.92C11.59 11.3 11.32 11.57 11.32 11.9C11.32 12.23 11.59 12.5 11.92 12.5Z" fill="#076E4C"/>
<path fill-rule="evenodd" clip-rule="evenodd" d="M16.42 17.5H11.92C11.59 17.5 11.32 17.77 11.32 18.1C11.32 18.43 11.59 18.7 11.92 18.7H16.42C16.75 18.7 17.02 18.43 17.02 18.1C17.02 17.77 16.75 17.5 16.42 17.5Z" fill="#076E4C"/>
<path fill-rule="evenodd" clip-rule="evenodd" d="M11.92 15.6H13.92C14.25 15.6 14.52 15.33 14.52 15C14.52 14.67 14.25 14.4 13.92 14.4H11.92C11.59 14.4 11.32 14.67 11.32 15C11.32 15.33 11.59 15.6 11.92 15.6Z" fill="#076E4C"/>
<path d="M23.52 15.31C23.41 15.2 23.27 15.15 23.13 15.15C22.99 15.15 22.84 15.21 22.74 15.31L21.14 16.91V11.85C21.14 11.54 20.9 11.29 20.59 11.29C20.28 11.29 20.04 11.53 20.04 11.85V16.91L18.44 15.31C18.33 15.2 18.19 15.15 18.05 15.15C17.91 15.15 17.76 15.21 17.66 15.31C17.55 15.42 17.49 15.56 17.49 15.71C17.49 15.86 17.55 16 17.66 16.1L20.01 18.45C20.17 18.61 20.38 18.7 20.61 18.7C20.84 18.7 21.05 18.61 21.21 18.45L23.56 16.1C23.67 15.99 23.72 15.85 23.72 15.71C23.72 15.57 23.66 15.42 23.56 15.31H23.52Z" fill="#076E4C"/>
<path fill-rule="evenodd" clip-rule="evenodd" d="M22.5 7.2H12.5C10.95 7.2 9.7 8.45 9.7 10V20C9.7 21.55 10.95 22.8 12.5 22.8H22.5C24.05 22.8 25.3 21.55 25.3 20V10C25.3 8.45 24.05 7.2 22.5 7.2ZM12.5 6C10.29 6 8.5 7.79 8.5 10V20C8.5 22.21 10.29 24 12.5 24H22.5C24.71 24 26.5 22.21 26.5 20V10C26.5 7.79 24.71 6 22.5 6H12.5Z" stroke="#076E4C" stroke-width="0.04" stroke-miterlimit="10"/>
<path fill-rule="evenodd" clip-rule="evenodd" d="M11.92 12.5H16.32C16.65 12.5 16.92 12.23 16.92 11.9C16.92 11.57 16.65 11.3 16.32 11.3H11.92C11.59 11.3 11.32 11.57 11.32 11.9C11.32 12.23 11.59 12.5 11.92 12.5Z" stroke="#076E4C" stroke-width="0.04" stroke-miterlimit="10"/>
<path fill-rule="evenodd" clip-rule="evenodd" d="M16.42 17.5H11.92C11.59 17.5 11.32 17.77 11.32 18.1C11.32 18.43 11.59 18.7 11.92 18.7H16.42C16.75 18.7 17.02 18.43 17.02 18.1C17.02 17.77 16.75 17.5 16.42 17.5Z" stroke="#076E4C" stroke-width="0.04" stroke-miterlimit="10"/>
<path fill-rule="evenodd" clip-rule="evenodd" d="M11.92 15.6H13.92C14.25 15.6 14.52 15.33 14.52 15C14.52 14.67 14.25 14.4 13.92 14.4H11.92C11.59 14.4 11.32 14.67 11.32 15C11.32 15.33 11.59 15.6 11.92 15.6Z" stroke="#076E4C" stroke-width="0.04" stroke-miterlimit="10"/>
<path d="M23.52 15.31C23.41 15.2 23.27 15.15 23.13 15.15C22.99 15.15 22.84 15.21 22.74 15.31L21.14 16.91V11.85C21.14 11.54 20.9 11.29 20.59 11.29C20.28 11.29 20.04 11.53 20.04 11.85V16.91L18.44 15.31C18.33 15.2 18.19 15.15 18.05 15.15C17.91 15.15 17.76 15.21 17.66 15.31C17.55 15.42 17.49 15.56 17.49 15.71C17.49 15.86 17.55 16 17.66 16.1L20.01 18.45C20.17 18.61 20.38 18.7 20.61 18.7C20.84 18.7 21.05 18.61 21.21 18.45L23.56 16.1C23.67 15.99 23.72 15.85 23.72 15.71C23.72 15.57 23.66 15.42 23.56 15.31H23.52Z" stroke="#076E4C" stroke-width="0.04" stroke-miterlimit="10"/>
</g>
<defs>
<filter id="filter0_d_49_7727" x="0.5" y="0" width="34" height="34" filterUnits="userSpaceOnUse" color-interpolation-filters="sRGB">
<feFlood flood-opacity="0" result="BackgroundImageFix"/>
<feColorMatrix in="SourceAlpha" type="matrix" values="0 0 0 0 0 0 0 0 0 0 0 0 0 0 0 0 0 0 127 0" result="hardAlpha"/>
<feOffset dy="2"/>
<feGaussianBlur stdDeviation="2.5"/>
<feComposite in2="hardAlpha" operator="out"/>
<feColorMatrix type="matrix" values="0 0 0 0 0.69284 0 0 0 0 0.711638 0 0 0 0 0.778472 0 0 0 0.5 0"/>
<feBlend mode="normal" in2="BackgroundImageFix" result="effect1_dropShadow_49_7727"/>
<feBlend mode="normal" in="SourceGraphic" in2="effect1_dropShadow_49_7727" result="shape"/>
</filter>
</defs>
</svg>
