<svg width="18" height="18" viewBox="0 0 18 18" fill="none" xmlns="http://www.w3.org/2000/svg">
<path d="M0 3C0 1.34315 1.34315 0 3 0H13C15.7614 0 18 2.23858 18 5V12.9999C18 15.7614 15.7614 17.9999 13 17.9999H5C2.23858 17.9999 0 15.7614 0 12.9999V3Z" fill="#9F0760"/>
<path d="M9.86036 4.83085L5.35032 9.34087C5.12557 9.56563 5.01319 9.67801 4.94166 9.817C4.87013 9.95599 4.844 10.1128 4.79175 10.4263L4.35043 13.0742C4.29797 13.3889 4.27174 13.5463 4.36271 13.6373C4.45368 13.7283 4.61106 13.702 4.92582 13.6496H4.92583L7.57373 13.2083C7.88726 13.156 8.04403 13.1299 8.18302 13.0583C8.32201 12.9868 8.43439 12.8744 8.65914 12.6497L13.1692 8.13968C13.3923 7.91657 13.5038 7.80502 13.5849 7.69883C14.1319 6.98225 14.1319 5.98828 13.5849 5.2717C13.5038 5.16552 13.3923 5.05396 13.1692 4.83087L13.1692 4.83085C12.9461 4.60775 12.8345 4.49619 12.7283 4.41513C12.0117 3.86812 11.0178 3.86812 10.3012 4.41513C10.195 4.49619 10.0835 4.60775 9.86036 4.83085Z" fill="white"/>
<path d="M8.82236 5.86885L5.35032 9.34087C5.12557 9.56563 5.01319 9.67801 4.94166 9.817C4.87013 9.95599 4.844 10.1128 4.79175 10.4263L4.35043 13.0742C4.29797 13.3889 4.27174 13.5463 4.36271 13.6373C4.45369 13.7283 4.61107 13.702 4.92583 13.6496L7.57373 13.2083C7.88726 13.156 8.04403 13.1299 8.18302 13.0583C8.32201 12.9868 8.43439 12.8744 8.65914 12.6497L12.1312 9.17766C12.4645 8.84433 12.6312 8.67766 12.6312 8.47055C12.6312 8.26345 12.4645 8.09678 12.1312 7.76345L10.2366 5.86885C9.90324 5.53551 9.73658 5.36885 9.52947 5.36885C9.32236 5.36885 9.1557 5.53551 8.82236 5.86885Z" fill="white"/>
</svg>
