<svg width="19" height="18" viewBox="0 0 19 18" fill="none" xmlns="http://www.w3.org/2000/svg">
<path d="M0.5 4C0.5 1.79086 2.29086 0 4.5 0H9.5C14.4706 0 18.5 4.02944 18.5 9C18.5 13.9706 14.4706 18 9.5 18C4.52944 18 0.5 13.9706 0.5 9V4Z" fill="#33A225"/>
<g style="mix-blend-mode:color-burn" opacity="0.1">
<path fill-rule="evenodd" clip-rule="evenodd" d="M0.726294 2.67041C0.579729 3.0864 0.5 3.5339 0.5 4.00002V9.00002C0.5 13.9706 4.52944 18 9.5 18C11.5711 18 13.4788 17.3004 14.9997 16.1247C14.9521 16.1251 14.9044 16.1253 14.8567 16.1253C7.04419 16.1253 0.710938 10.3718 0.710938 3.27457C0.710938 3.07206 0.716094 2.87063 0.726294 2.67041Z" fill="#458DCC"/>
<path fill-rule="evenodd" clip-rule="evenodd" d="M0.726294 2.67041C0.579729 3.0864 0.5 3.5339 0.5 4.00002V9.00002C0.5 13.9706 4.52944 18 9.5 18C11.5711 18 13.4788 17.3004 14.9997 16.1247C14.9521 16.1251 14.9044 16.1253 14.8567 16.1253C7.04419 16.1253 0.710938 10.3718 0.710938 3.27457C0.710938 3.07206 0.716094 2.87063 0.726294 2.67041Z" fill="#131313"/>
</g>
<path d="M9.49993 6.8681C8.93455 6.8681 8.4557 7.17964 8.27686 7.60986H10.723C10.5442 7.17964 10.0653 6.8681 9.49993 6.8681Z" fill="white"/>
<path d="M14.5942 5.30051C14.1673 4.88513 13.5442 4.64282 12.8807 4.64282H6.11919C5.45572 4.64282 4.83265 4.88018 4.40572 5.30051C4.00188 5.69612 3.81149 6.21535 3.89226 6.72964L4.64803 11.6747C4.78649 12.5994 5.74419 13.2967 6.87496 13.2967H12.1307C13.2615 13.2967 14.2134 12.5994 14.3576 11.6747L15.1134 6.72964C15.1942 6.21535 15.0038 5.69612 14.6 5.30051H14.5942ZM11.2307 8.35161H7.76919C7.53265 8.35161 7.33649 8.18348 7.33649 7.98073C7.33649 6.95711 8.30572 6.12634 9.49996 6.12634C10.6942 6.12634 11.6634 6.95711 11.6634 7.98073C11.6634 8.18348 11.4673 8.35161 11.2307 8.35161Z" fill="white"/>
<path d="M0.5 3C0.5 1.34315 1.84315 0 3.5 0H13.5C16.2614 0 18.5 2.23858 18.5 5V13C18.5 15.7614 16.2614 18 13.5 18H5.5C2.73858 18 0.5 15.7614 0.5 13V3Z" fill="#33A225"/>
<path d="M9.49993 6.8681C8.93455 6.8681 8.4557 7.17964 8.27686 7.60986H10.723C10.5442 7.17964 10.0653 6.8681 9.49993 6.8681Z" fill="white"/>
<path d="M14.5942 5.30051C14.1673 4.88513 13.5442 4.64282 12.8807 4.64282H6.11919C5.45572 4.64282 4.83265 4.88018 4.40572 5.30051C4.00188 5.69612 3.81149 6.21535 3.89226 6.72964L4.64803 11.6747C4.78649 12.5994 5.74419 13.2967 6.87496 13.2967H12.1307C13.2615 13.2967 14.2134 12.5994 14.3576 11.6747L15.1134 6.72964C15.1942 6.21535 15.0038 5.69612 14.6 5.30051H14.5942ZM11.2307 8.35161H7.76919C7.53265 8.35161 7.33649 8.18348 7.33649 7.98073C7.33649 6.95711 8.30572 6.12634 9.49996 6.12634C10.6942 6.12634 11.6634 6.95711 11.6634 7.98073C11.6634 8.18348 11.4673 8.35161 11.2307 8.35161Z" fill="white"/>
</svg>
