<svg width="18" height="18" viewBox="0 0 18 18" fill="none" xmlns="http://www.w3.org/2000/svg">
<path d="M0 3C0 1.34315 1.34315 0 3 0H13C15.7614 0 18 2.23858 18 5V12.9999C18 15.7614 15.7614 17.9999 13 17.9999H5C2.23858 17.9999 0 15.7614 0 12.9999V3Z" fill="#0C7A71"/>
<path d="M15.4972 10.7885C15.4288 10.9012 15.3746 11.0207 15.2578 11.1017C14.9415 11.3201 14.5425 11.2404 14.3273 10.9025C14.1393 10.6059 13.9626 10.3037 13.7816 10.0043C13.6805 9.83668 13.5793 9.66912 13.4696 9.48781C13.4354 9.54962 13.4468 9.60044 13.4468 9.64714C13.4468 11.2761 13.4468 12.9051 13.4468 14.5355C13.4468 14.7168 13.4183 14.8912 13.2957 15.0368C13.1119 15.2552 12.8327 15.3335 12.5634 15.2442C12.2998 15.1563 12.1217 14.9228 12.1188 14.644C12.1145 14.2127 12.1174 13.7801 12.1174 13.3488C12.1174 12.7815 12.1174 12.2142 12.1174 11.647C12.1174 11.6126 12.1174 11.5797 12.1174 11.5453C12.1131 11.3476 12.0205 11.2322 11.8666 11.2336C11.7198 11.2349 11.6329 11.3489 11.6329 11.5426C11.6329 12.5714 11.6358 13.5988 11.6344 14.6275C11.6344 14.9544 11.4278 15.1989 11.1057 15.2648C10.7082 15.3459 10.3306 15.0698 10.3035 14.6756C10.2993 14.6207 10.3007 14.5657 10.3021 14.5108C10.3021 12.8941 10.305 11.2775 10.305 9.66087C10.305 9.61005 10.305 9.56061 10.305 9.49468C10.2451 9.52352 10.2323 9.57022 10.2095 9.60593C9.95017 10.0331 9.6937 10.4616 9.43153 10.8874C9.26482 11.158 9.00834 11.2651 8.72052 11.2006C8.56521 11.1649 8.4555 11.0742 8.36716 10.952C8.09928 10.5839 7.88556 10.1842 7.64618 9.7996C7.51367 9.5867 7.38543 9.36969 7.24152 9.13207C7.2173 9.49468 7.24579 9.82844 7.29566 10.1622C7.41963 10.9781 7.53646 11.7939 7.65045 12.6112C7.69035 12.8928 7.59061 13.048 7.31846 13.1386C7.23154 13.1675 7.23297 13.2197 7.23297 13.2842C7.23297 13.8391 7.23582 14.3926 7.23297 14.9475C7.23012 15.3308 6.9366 15.6027 6.54334 15.5945C6.18427 15.5876 5.90785 15.2992 5.905 14.9187C5.90073 14.3858 5.905 13.8529 5.905 13.3186C5.905 13.1537 5.905 13.1537 5.72832 13.1524C5.52219 13.1524 5.41912 13.2494 5.41912 13.4435C5.41912 13.9517 5.42055 14.4586 5.41912 14.9668C5.41912 15.2236 5.28946 15.4132 5.05579 15.5272C4.82638 15.6384 4.59413 15.6219 4.38183 15.4791C4.16525 15.3321 4.09116 15.1151 4.09116 14.8706C4.09116 14.3542 4.08831 13.8377 4.09258 13.3213C4.09258 13.2169 4.07548 13.1551 3.95437 13.118C3.75489 13.0576 3.6409 12.8612 3.67082 12.6538C3.77769 11.9038 3.88598 11.1553 3.99712 10.4067C4.05838 9.99189 4.12393 9.57846 4.07833 9.12658C4.03416 9.198 4.00281 9.24882 3.97147 9.30101C3.71499 9.72543 3.46137 10.1498 3.20204 10.5729C3.04104 10.838 2.80451 10.9588 2.52381 10.9108C2.26876 10.8668 2.09778 10.7185 2.02369 10.4767C1.96954 10.2954 2.01229 10.1265 2.1106 9.9658C2.69052 9.00845 3.26901 8.04974 3.84751 7.09239C3.96719 6.89461 4.08688 6.69819 4.20514 6.50041C4.34763 6.26416 4.55281 6.14604 4.84348 6.15016C5.37923 6.15703 5.91498 6.15978 6.45072 6.15016C6.76847 6.14467 6.98219 6.27515 7.13608 6.53337C7.68038 7.44264 8.23037 8.34779 8.77752 9.25431C8.80316 9.29689 8.83166 9.33947 8.86016 9.38342C8.92143 9.35046 8.9371 9.29552 8.96417 9.24882C9.45432 8.44119 9.94448 7.63493 10.4289 6.82456C10.5871 6.56084 10.8079 6.43173 11.1271 6.43723C11.6315 6.44547 12.1373 6.44409 12.6417 6.43723C12.9509 6.43311 13.1661 6.55947 13.32 6.81357C14.0096 7.95908 14.7035 9.10185 15.3946 10.246C15.4345 10.3119 15.4658 10.382 15.5 10.4506V10.7803L15.4972 10.7885Z" fill="#FEFEFE"/>
<path d="M5.69725 3C5.81837 3.02097 5.9409 3.03295 6.05917 3.0659C6.40398 3.16326 6.67471 3.37596 6.86564 3.692C6.91978 3.78187 6.98105 3.80434 7.07224 3.79235C7.43558 3.74143 7.74763 3.86425 8.01265 4.12188C8.21783 4.32109 8.26342 4.59369 8.28195 4.8663C8.2962 5.08648 8.28907 5.30816 8.28195 5.52984C8.2734 5.81143 8.12949 5.95223 7.86304 5.94324C7.74905 5.94024 7.63506 5.92976 7.5225 5.91029C7.33299 5.87883 7.21188 5.70359 7.23468 5.49838C7.26032 5.27371 7.29595 5.05053 7.2418 4.82586C7.219 4.73 7.19763 4.63114 7.10216 4.54127C7.05799 5.05802 6.84569 5.45495 6.45243 5.73654C6.18028 5.93126 5.87536 5.99267 5.55049 5.9732C4.90361 5.93276 4.45193 5.43847 4.2496 4.53378C4.08574 4.77194 4.06722 5.03406 4.10854 5.29318C4.18263 5.75451 4.06579 5.92077 3.60699 5.94174C3.51152 5.94624 3.41463 5.96421 3.32059 5.92527C3.20233 5.87584 3.11398 5.78597 3.09974 5.65416C3.05557 5.24076 3.03419 4.82286 3.17098 4.42444C3.30349 4.04099 3.61126 3.88073 3.96605 3.80134C4.07719 3.77588 4.19118 3.76839 4.30517 3.79385C4.37071 3.80883 4.4334 3.79984 4.47615 3.72795C4.7483 3.28159 5.13016 3.03894 5.63314 3.01348C5.64596 3.01348 5.65736 3.00449 5.67018 3C5.67873 3 5.68728 3 5.69583 3H5.69725Z" fill="white"/>
<path d="M13.2646 4.80918C13.2674 5.624 12.6248 6.30252 11.8497 6.30252C11.0817 6.30252 10.4377 5.62849 10.4348 4.82116C10.432 4.00934 11.0789 3.32632 11.8511 3.32782C12.6191 3.32782 13.2632 4.00334 13.2646 4.80918Z" fill="white"/>
</svg>
