<svg width="18" height="18" viewBox="0 0 18 18" fill="none" xmlns="http://www.w3.org/2000/svg">
<path d="M0 3C0 1.34315 1.34315 0 3 0H13C15.7614 0 18 2.23858 18 5V12.9999C18 15.7614 15.7614 17.9999 13 17.9999H5C2.23858 17.9999 0 15.7614 0 12.9999V3Z" fill="#1DCCBD"/>
<path d="M11.8022 4.10882C11.178 4.10882 10.56 4.19453 9.96698 4.35524C9.65486 4.44632 9.32401 4.49989 8.99316 4.5106C8.66232 4.49989 8.33147 4.45167 8.01935 4.35524C7.42632 4.19453 6.80832 4.10882 6.18408 4.10882C4.69215 4.0606 3.43118 5.06239 3.375 6.34274C3.375 6.40167 3.375 6.46059 3.375 6.51952C3.375 9.10701 4.94809 11.657 6.07796 13.3016C6.3776 13.7356 7.03305 13.8802 7.53868 13.6231C7.86329 13.457 8.06305 13.1624 8.06305 12.8356V10.1784C8.05056 9.77665 8.38141 9.42308 8.84335 9.34273C9.35522 9.26773 9.83589 9.56237 9.92328 10.0017C9.92952 10.0445 9.93577 10.0927 9.93577 10.1356V12.8356C9.93577 13.3391 10.4102 13.7516 11.0032 13.7516C11.3778 13.7516 11.7273 13.5802 11.9209 13.3016C13.0507 11.657 14.6238 9.10701 14.6238 6.51952C14.6675 5.23917 13.5002 4.15703 12.0082 4.10882C11.9396 4.10882 11.8709 4.10882 11.8022 4.10882Z" fill="white"/>
</svg>
