<svg width="42" height="42" viewBox="0 0 42 42" fill="none" xmlns="http://www.w3.org/2000/svg">
<rect x="0.5" y="0.5" width="41" height="41" rx="20.5" fill="#F1FFFD"/>
<rect x="0.5" y="0.5" width="41" height="41" rx="20.5" stroke="#BDE8E2"/>
<path d="M27.4598 13.1099H26.9809C26.9393 13.01 26.8976 12.8989 26.8352 12.7768L26.6998 12.8545L26.8143 12.7324C26.627 12.3659 26.3771 12.0439 26.0648 11.7662L25.9607 11.8995L26.0127 11.7218C26.0127 11.7218 25.9398 11.6552 25.8982 11.6219C25.8462 11.5775 25.7837 11.5441 25.7316 11.5108L25.6796 11.4775C25.5963 11.422 25.5026 11.3665 25.4089 11.322C25.3464 11.2887 25.284 11.2665 25.2111 11.2332C25.0966 11.1888 24.9821 11.1444 24.8571 11.111L24.7947 11.0888C24.7947 11.0888 24.7218 11.0666 24.6802 11.0555C24.4719 11.0111 24.2846 11 24.1076 11C17.8924 11 17.882 11 17.8924 11C17.7259 11 17.5489 11.0222 17.3407 11.0555C17.2886 11.0666 17.2366 11.0777 17.1845 11.0999H17.1429C17.0283 11.1444 16.9242 11.1777 16.8305 11.2221C16.7368 11.2554 16.6536 11.2998 16.5911 11.3331C16.5182 11.3665 16.4453 11.4109 16.3829 11.4553L16.3412 11.4775C16.258 11.5219 16.1851 11.5775 16.081 11.6552C15.6125 12.0328 15.2585 12.5325 15.0503 13.1099H14.5402C13.1348 13.1099 12 14.3204 12 15.8084V28.2793C12 29.7674 13.1348 30.9778 14.5402 30.9778H17.6113C18.4442 30.9778 19.1209 30.256 19.1209 29.3676V27.3354C19.1209 26.2249 19.8704 25.281 20.8386 25.1921C20.8907 25.1921 20.9532 25.1921 21.0156 25.1921C21.4945 25.1921 21.9318 25.3809 22.2857 25.7252C22.6709 26.1027 22.8999 26.6469 22.8999 27.2132V29.3898C22.8999 30.2782 23.5766 31 24.4095 31H27.4598C28.8548 31 30 29.7896 30 28.3015V15.8084C30 14.3204 28.8652 13.1099 27.4598 13.1099ZM23.1186 24.7479C22.4731 24.1149 21.6194 23.804 20.7345 23.8817C19.1417 24.0261 17.8924 25.5475 17.8924 27.3354V29.3676C17.8924 29.5341 17.7675 29.6674 17.6113 29.6674H16.2788C16.2684 29.6674 16.2475 29.6674 16.2267 29.6452C16.1226 29.6008 16.0602 29.5008 16.0602 29.3787V14.2871C16.0602 14.1205 16.0914 13.9317 16.1538 13.7096C16.1538 13.7096 16.1643 13.6652 16.1747 13.6652C16.2892 13.2765 16.5182 12.9434 16.8514 12.6768C16.8826 12.6546 16.9034 12.6324 16.9659 12.5991L17.0075 12.5658C17.0075 12.5658 17.0804 12.5214 17.122 12.4992C17.1637 12.477 17.2053 12.4547 17.2574 12.4325C17.3094 12.4103 17.3719 12.3881 17.4448 12.3659L17.5176 12.3437C17.5176 12.3437 17.5593 12.3437 17.5593 12.3326C17.6842 12.3104 17.7883 12.2993 17.9237 12.2993H24.0972C24.2013 12.2993 24.3054 12.3104 24.4199 12.3326L24.5344 12.3659C24.6177 12.3881 24.6802 12.4103 24.7426 12.4325C24.7843 12.4547 24.8259 12.4659 24.8676 12.4881C24.9196 12.5103 24.9821 12.5547 25.0237 12.5769L25.107 12.6324C25.107 12.6324 25.1382 12.6546 25.1799 12.688L25.2527 12.7546C25.4401 12.9212 25.5963 13.121 25.7004 13.3431L25.7212 13.3876C25.7629 13.4653 25.7941 13.543 25.8149 13.6319C25.8878 13.8651 25.9294 14.0761 25.9294 14.2649V29.3565C25.9294 29.4564 25.8774 29.5564 25.7837 29.6008C25.7733 29.6008 25.7525 29.623 25.7108 29.6341C25.69 29.6341 25.6692 29.6341 25.6588 29.6341H24.3783C24.2221 29.6341 24.1076 29.5008 24.1076 29.3454V27.1688C24.1076 26.236 23.7432 25.3476 23.0977 24.7146L23.1186 24.7479ZM28.782 15.8084V28.2793C28.782 29.0566 28.1885 29.6896 27.4598 29.6896H27.1579C27.1787 29.5786 27.1891 29.4786 27.1891 29.3787V14.4092H27.4494C28.1781 14.4092 28.7715 15.0422 28.7715 15.8195L28.782 15.8084ZM14.8525 29.6896H14.5402C13.8115 29.6896 13.218 29.0566 13.218 28.2793V15.8084C13.218 15.0311 13.8115 14.3981 14.5402 14.3981H14.8213V29.3676C14.8213 29.4675 14.8317 29.5786 14.8525 29.6785V29.6896Z" fill="#109C9C"/>
<path d="M19.4953 18.8179H20.1096C20.4115 18.8179 20.6509 19.0733 20.6509 19.3954V20.0506C20.6509 20.3726 20.4115 20.628 20.1096 20.628H19.4953C19.1934 20.628 18.954 20.3726 18.954 20.0506V19.3954C18.954 19.0844 19.1934 18.8179 19.4953 18.8179Z" fill="#109C9C"/>
<path d="M22.4939 18.8179C22.7958 18.8179 23.0352 19.0733 23.0352 19.3954V20.0506C23.0352 20.3615 22.7958 20.628 22.4939 20.628H21.8692C21.5777 20.628 21.3279 20.3726 21.3279 20.0506V19.3954C21.3279 19.0844 21.5673 18.8179 21.8692 18.8179H22.4939Z" fill="#109C9C"/>
<path d="M19.4961 21.361H20.1207C20.4227 21.361 20.6621 21.6164 20.6621 21.9385V22.5936C20.6621 22.9046 20.4227 23.1711 20.1207 23.1711H19.5065C19.2046 23.1711 18.9652 22.9157 18.9652 22.5936V21.9385C18.9652 21.6275 19.2046 21.361 19.5065 21.361H19.4961Z" fill="#109C9C"/>
<path d="M21.8794 21.361H22.4936C22.7956 21.361 23.035 21.6164 23.035 21.9385V22.5936C23.035 22.9046 22.7956 23.1711 22.4936 23.1711H21.8794C21.5879 23.1711 21.3381 22.9157 21.3381 22.5936V21.9385C21.3381 21.6275 21.5775 21.361 21.8794 21.361Z" fill="#109C9C"/>
<path d="M23.0142 14.4873C22.858 14.3207 22.6498 14.2208 22.4104 14.2208H22.1397V13.9321C22.1397 13.6766 22.046 13.4545 21.8898 13.288C21.7337 13.1214 21.5255 13.0214 21.286 13.0214H20.6926C20.5781 13.0214 20.4636 13.0437 20.3595 13.0881C20.1512 13.1769 19.9951 13.3546 19.9118 13.5656C19.8702 13.6766 19.8493 13.7988 19.8493 13.9209V14.2097H19.5787C19.4225 14.2097 19.2872 14.2652 19.1622 14.3429C18.9124 14.4984 18.7354 14.776 18.7354 15.1203V15.7533C18.7354 16.253 19.1206 16.6639 19.5891 16.6639H19.8597V16.9526C19.8597 17.0747 19.8806 17.1969 19.9222 17.308C20.0055 17.5301 20.1721 17.6966 20.3699 17.7855C20.474 17.8299 20.5781 17.8521 20.703 17.8521H21.2964C21.5359 17.8521 21.7441 17.7522 21.9002 17.5856C22.0564 17.419 22.1501 17.1969 22.1501 16.9415V16.6528H22.4208C22.7747 16.6528 23.0766 16.4196 23.2016 16.0975C23.2432 15.9865 23.264 15.8754 23.264 15.7422V15.1092C23.264 14.987 23.2432 14.8649 23.2016 14.7538C23.1599 14.6428 23.0975 14.5428 23.0142 14.4651V14.4873ZM21.2235 16.1864V16.8971H20.7655V16.1864C20.7655 16.0531 20.7134 15.9309 20.6301 15.8421C20.5469 15.7533 20.4323 15.6977 20.3074 15.6977H19.6411V15.2091H20.3074C20.5573 15.2091 20.7655 14.987 20.7655 14.7205V14.0098H21.2235V14.7205C21.2235 14.987 21.4318 15.2091 21.6816 15.2091H22.3479V15.6977H21.6816C21.4318 15.6977 21.2235 15.9198 21.2235 16.1864Z" fill="#109C9C"/>
</svg>
