<svg width="36" height="46" viewBox="0 0 36 46" fill="none" xmlns="http://www.w3.org/2000/svg">
<g clip-path="url(#clip0_805_919)">
<path fill-rule="evenodd" clip-rule="evenodd" d="M4.40222 30.6557C4.17304 33.6608 4.27322 34.7655 4.23801 35.935C4.20787 37.0572 4.39717 41.9102 4.39717 41.9102L3.79575 41.8816L2.97021 41.863L2.23979 41.8755L1.50806 41.9102C1.60336 40.8987 1.69099 38.1159 1.66721 35.935C1.64474 33.5787 1.50806 31.3453 1.50806 30.6557C1.597 30.6557 2.29858 30.7028 2.95879 30.7028C3.619 30.7028 4.32564 30.6494 4.40204 30.6557H4.40222Z" fill="white"/>
<path fill-rule="evenodd" clip-rule="evenodd" d="M16.9142 30.6555L17.3565 30.6902L17.7749 30.7026L18.1758 30.6902L18.6119 30.6555C18.6119 32.5495 19.8196 40.4139 20.1791 41.9039L19.5077 41.8691L18.6357 41.863L17.8452 41.8691L17.1086 41.9039C17.1147 40.5305 16.5498 35.4327 16.2905 34.8188L12.7537 41.9039L12.5182 41.8691L12.3302 41.863L12.1649 41.8691L11.9055 41.9039L8.23975 34.8883C8.1158 35.3331 7.85011 37.8822 7.85011 37.8822C7.59078 41.4839 7.74993 38.6129 7.57318 41.9039L7.11968 41.8753L6.61863 41.8628L6.11252 41.8753L5.65771 41.9039C6.01722 40.9046 6.63117 36.7476 7.39043 30.6555L7.83269 30.6902L8.21597 30.7026L8.62322 30.6852L9.02916 30.6553L12.9906 38.1679C13.3853 38.0685 16.8204 30.8018 16.9144 30.6553L16.9142 30.6555Z" fill="white"/>
<path fill-rule="evenodd" clip-rule="evenodd" d="M23.627 30.4283C25.2957 30.4047 26.1139 30.9242 26.7039 31.2175C26.2966 32.6791 26.1914 33.1586 26.1676 33.1525C26.1088 33.1586 25.7542 33.1525 25.654 33.1525C25.6428 33.1525 25.0238 31.5208 23.0907 31.8538C22.5432 31.9482 22.0834 32.4565 22.0358 33.0767C21.9832 33.836 22.5131 34.1691 23.2911 34.5495C24.158 34.9707 25.4071 35.4915 26.3204 36.0757C26.4094 36.134 27.7348 37.0575 27.7111 38.6956C27.6884 40.5374 26.2502 41.5478 25.6728 41.7826C24.2696 42.3493 22.79 42.2088 22.4067 42.1269C21.6939 41.9629 20.6452 41.595 19.8196 41.1626C19.8084 41.1501 19.985 39.9632 20.1265 39.1629L20.6502 39.2325C20.6502 39.2325 21.1163 40.8407 23.3212 40.735C24.1393 40.6952 24.6405 40.162 24.7057 39.4487C24.7407 39.1281 24.6819 38.385 23.8337 38.0109C23.1973 37.7301 21.7591 37.2453 20.6502 36.3331C20.114 35.8833 19.1894 34.4503 19.8196 32.7079C20.3271 31.322 22.012 30.4509 23.627 30.4286V30.4283Z" fill="white"/>
<path fill-rule="evenodd" clip-rule="evenodd" d="M31.0061 30.4283C32.6736 30.4047 33.493 30.9242 34.083 31.2175C33.6757 32.6791 33.5705 33.1586 33.5467 33.1525C33.4879 33.1586 33.1333 33.1525 33.0331 33.1525C33.0219 33.1525 32.4029 31.5208 30.4698 31.8538C29.921 31.9482 29.4627 32.4565 29.4149 33.0767C29.3623 33.836 29.8922 34.1691 30.6702 34.5495C31.5371 34.9707 32.7862 35.4915 33.6995 36.0757C33.7885 36.1342 35.1139 37.0575 35.0901 38.6956C35.0664 40.5374 33.6293 41.5478 33.0519 41.7826C31.6487 42.3493 30.1691 42.2088 29.7858 42.1269C29.0666 41.9629 28.0245 41.595 27.1987 41.1626C27.1875 41.1501 27.3641 39.9632 27.5056 39.1629L28.0293 39.2325C28.0293 39.2325 28.4954 40.8407 30.699 40.735C31.5184 40.6952 32.0194 40.162 32.0846 39.4487C32.1196 39.1281 32.0608 38.385 31.2126 38.0109C30.5762 37.7301 29.138 37.2453 28.0291 36.3331C27.4929 35.8833 26.5683 34.4503 27.1985 32.7079C27.706 31.322 29.3909 30.4509 31.0059 30.4286L31.0061 30.4283Z" fill="white"/>
<path fill-rule="evenodd" clip-rule="evenodd" d="M19.3542 18.9705C18.855 18.2736 18.4481 17.9801 18.1338 17.7232C17.7456 17.4298 17.1908 17.1179 16.7654 16.9714C16.0629 16.7145 15.3972 16.6595 14.8425 16.8246C14.4727 16.953 14.1029 17.1365 13.8256 17.5399C13.6406 17.7784 13.6037 17.9801 13.5483 18.1818C13.4189 18.7138 14.0105 19.9426 13.9181 20.5296C13.8626 21.0066 13.5483 21.5383 13.5112 21.6301C13.1968 22.2538 13.1414 22.2354 12.8455 22.8773C12.6791 23.2074 12.7162 23.0608 12.5682 23.4827C12.6793 23.226 13.0674 22.9875 13.4372 22.9141C13.6776 22.8775 14.0474 22.9509 14.177 23.0243C14.2879 23.0792 14.3435 23.0976 14.5283 23.281C14.6208 23.3543 14.6576 23.4277 14.7316 23.5378C14.9166 23.5194 15.046 23.5746 15.1014 23.6112C15.157 23.6478 15.2124 23.703 15.2493 23.7945C15.2862 23.8497 15.3048 23.9962 15.3418 24.1064C15.3974 23.9413 15.3418 23.7028 15.2864 23.5928C15.2495 23.4827 15.1385 23.3361 15.0831 23.2993C14.8797 23.1892 14.7503 23.0425 14.7503 22.8591C14.7503 22.6574 14.8428 22.5473 14.9722 22.4739C14.9722 22.4739 14.9539 22.4189 14.9353 22.3822C14.9168 22.3456 14.8983 22.272 14.8983 22.2904C14.8243 22.4187 14.6395 22.5289 14.4545 22.5655C14.3066 22.6021 14.1032 22.4553 13.8628 22.4369C13.7149 22.4187 13.6039 22.4002 13.4559 22.4553C13.5853 21.9784 13.8812 21.4466 14.3989 21.0614C14.7316 20.8413 14.972 20.7679 15.3418 20.6577C15.6931 20.566 15.8966 20.6028 16.2293 20.5294C16.4327 20.4744 16.3958 20.5294 16.7285 20.3827C16.9321 20.2909 17.2462 20.0158 17.4498 19.6308C17.1169 20.0158 16.6548 20.2177 16.2479 20.2361C15.841 20.2543 15.2124 19.9792 14.8241 19.6858C14.5652 19.4657 13.992 18.7686 14.0474 18.255C14.066 17.8516 14.3435 17.5581 14.5652 17.4298C15.0089 17.1913 15.4527 17.1913 15.8781 17.3014C15.952 17.3196 16.4512 17.4482 16.895 17.6683C17.1169 17.7784 17.7269 18.1634 17.9858 18.4385C18.485 18.9155 18.8179 19.4657 18.9473 19.7225C19.2988 20.4194 19.3727 21.0799 19.3911 21.3734C19.465 22.2172 19.2432 23.1158 19.0027 23.5744C18.8548 23.8861 18.6515 24.2347 18.374 24.4548C18.1706 24.6016 17.8563 24.7483 17.579 24.8217C16.8579 24.9868 16.3954 24.6931 16.0442 24.6565C15.5448 24.5832 15.0827 24.7115 14.8977 24.8031C14.6019 24.9682 14.2321 25.2983 13.6958 25.2617C13.326 25.2249 12.9931 25.0416 12.7529 24.8031C12.7712 25.2983 13.0116 25.6469 13.5108 25.9038C13.6773 25.9772 14.01 26.0137 14.3244 25.9404C14.5094 25.8854 14.6571 25.6837 14.9715 25.6469C15.2675 25.5919 15.3598 25.5919 15.4152 25.7019C15.5077 25.867 15.0454 25.9038 15.064 26.1055C15.0823 26.4172 16.2102 26.1055 16.5986 26.1055C16.6542 26.1055 16.7096 26.1605 16.7096 26.2338C16.728 26.4172 16.4508 26.5457 16.2659 26.6557C16.1734 26.7108 15.7481 26.8942 15.3413 26.784C15.3229 26.784 16.1548 27.1143 16.9315 27.0777C17.3938 27.0409 18.0963 26.8576 18.7065 26.454C19.1688 26.1239 19.779 25.2067 20.0749 24.4181C20.722 22.6938 20.3893 21.4834 20.3153 21.1531C20.1674 20.2361 19.7236 19.5206 19.3538 18.9705H19.3542ZM33.9802 8.24027C33.8509 5.81896 33.5365 3.98478 33.1667 3.25111C32.6675 2.22396 31.9463 1.65541 31.3917 1.43512C30.4302 1.06829 29.746 0.939941 28.9879 0.884961C27.0095 0.756615 25.1788 0.738227 23.4038 0.60988C22.1281 0.536513 21.3144 0.518125 19.9462 0.518125C19.4471 0.499736 18.4485 0.499736 17.8754 0.518125C17.0989 0.536513 16.7474 0.536513 15.7674 0.536513C14.9539 0.536513 13.4745 0.57329 12.6055 0.57329C11.644 0.57329 7.85354 0.554901 6.09686 1.06847C5.89351 1.12345 5.2833 1.28857 4.80247 1.58204C4.34017 1.85713 4.00745 2.26074 3.95184 2.33411C3.34162 3.06778 3.02743 4.02156 2.9164 4.97533C2.69452 6.8279 2.71306 7.2499 2.67598 7.70831C2.65745 7.83666 2.60202 9.08409 2.52806 9.98289C2.4541 11.2485 2.41722 13.211 2.43557 14.6786C2.47264 17.1365 2.43557 18.1452 2.47264 19.4842C2.50971 20.2913 2.60202 20.8598 2.6391 22.0889C2.67617 22.8225 2.78702 23.9596 2.9164 24.8218C2.99036 25.2621 3.13828 25.8674 3.26766 26.2524C3.32308 26.4725 3.43412 26.711 3.50808 26.8761C3.72996 27.298 4.06268 27.72 4.56186 28.1234C5.02416 28.5084 5.57895 28.6553 6.11521 28.8203C6.35562 28.8753 7.5944 29.1137 8.94421 29.2237C9.99819 29.2971 11.1815 29.2787 11.5513 29.2971C13.881 29.3339 16.0075 29.3338 17.8565 29.3521C18.67 29.3704 21.8505 29.3338 24.772 29.1869C27.6935 29.0402 29.561 29.0218 30.5779 28.7099C31.5948 28.3983 31.7058 28.3249 32.2421 27.9029C32.6304 27.591 33.0002 27.0591 33.2406 26.4356C33.555 25.6101 33.7215 24.6929 33.7398 24.3629C33.8138 23.4091 33.9063 22.8772 33.9802 21.9418C34.0357 21.3182 34.0726 20.7311 34.0913 20.126C34.1467 18.4567 34.1467 16.5859 34.1467 14.9901C34.1467 13.1559 34.1098 10.5147 33.9804 8.24009L33.9802 8.24027ZM5.4681 5.43392C5.4681 4.70025 5.80083 3.76468 6.15228 3.26949C6.27005 3.10716 6.3809 2.97472 6.50129 2.85919C6.72093 2.64819 6.97183 2.49347 7.35398 2.31572C7.66836 2.16898 8.27857 2.09562 8.81464 2.15059C9.1659 2.18737 9.64674 2.3707 10.072 2.62758C10.4603 2.84768 12.0691 4.07653 13.6222 5.2688C15.3233 6.57121 16.9135 8.14852 16.9135 8.14852C16.1554 8.24027 14.103 8.4236 12.6237 8.53374C11.2555 8.6255 9.79466 8.51535 8.29692 8.6437C8.00109 8.66209 7.42776 8.82721 6.984 9.01054C6.50317 9.23064 6.09648 9.48752 5.56023 10.0011C5.5048 9.39576 5.52315 9.19405 5.5048 8.58872C5.44919 7.41484 5.46792 6.69956 5.46792 5.43392H5.4681ZM16.5808 28.3251C15.2495 28.3067 13.7703 28.2699 12.5868 27.7565C10.9967 27.0595 9.88734 25.6471 9.38797 24.6933C8.53753 23.0976 8.2415 22.1804 7.66836 20.4562C7.15064 18.8054 6.89169 17.9433 6.54043 16.476C6.35562 15.6322 6.18916 14.9169 6.05959 14.0549C7.64982 13.9081 8.57423 13.9815 10.0351 14.0915C10.7932 14.1464 11.5143 14.2016 12.1059 14.3116C12.827 14.4399 13.6037 14.7152 13.6776 15.6689C13.7147 16.0176 13.5851 16.5494 13.3818 16.8428C13.6222 16.6595 14.1954 16.421 14.7685 16.2375C15.1012 16.1274 15.8039 16.0358 16.636 16.1641C17.5606 16.3293 18.1523 16.6227 18.67 16.9346C19.8904 17.6315 20.0569 17.9067 20.4636 18.3102C21.0921 18.9337 22.2386 20.7129 22.2386 22.8406C22.2386 23.9595 22.1278 25.6469 20.7225 27.0411C19.4838 28.2883 17.0985 28.3251 16.5808 28.3251ZM31.4471 10.9549C31.2067 13.1193 30.9662 14.4949 30.4671 16.6227C30.1529 17.9433 29.746 19.5758 29.3577 20.5846C28.9879 21.5933 28.3962 23.4093 27.7306 24.6199C26.7137 26.4541 25.678 26.9127 25.142 27.1878C24.5688 27.4813 23.293 27.9948 21.7767 28.05C22.5903 26.766 22.9601 26.2524 23.3669 24.987C23.8292 23.4828 23.5703 22.0705 23.4963 21.6854C23.2375 20.5114 22.6273 18.8791 21.5734 17.6684C20.2606 16.1643 18.7629 14.9537 16.1556 13.9449C14.8799 13.4497 12.6426 13.0829 11.4221 12.9911C9.97984 12.8626 9.40669 12.8076 8.16773 12.771C7.16937 12.7528 6.09686 12.6609 5.67163 12.8628C5.46829 12.9545 5.37579 13.0279 5.22788 13.2846L4.74704 12.3674C4.58059 12.019 4.76539 11.6154 5.04288 11.4688C5.37579 11.3037 5.44975 11.2119 5.87498 11.0468C6.00436 10.9918 6.09686 10.9918 6.20789 11.01C6.30039 11.01 6.37435 11.0468 6.42977 11.1018C6.50354 11.1568 7.00291 11.5604 7.20625 11.7253L8.68545 10.6616L6.92895 10.6248C6.72561 10.6248 6.54061 10.7166 6.54061 10.588C6.54061 10.3863 6.89188 10.3129 7.52063 10.0011C7.63166 9.94611 8.13084 9.68923 9.01836 9.63425C10.0169 9.5425 10.8675 9.65264 12.3465 9.57927C13.7518 9.52429 14.9539 9.30419 15.0832 9.30419C15.0093 9.52429 14.5841 9.90952 14.3066 10.1846C13.6224 10.8633 13.1418 11.0284 12.2911 11.5602C14.7689 10.8633 15.9152 10.1112 16.4514 9.78099C16.9137 9.52411 17.7641 8.95556 18.5777 8.40521C21.2217 6.626 23.0155 5.01192 25.0678 3.45282C26.6766 2.22396 28.6181 1.61864 30.1158 2.71915C31.6135 3.81966 31.5765 6.20419 31.595 6.42429C31.6875 8.1669 31.6135 9.21243 31.4471 10.9549ZM22.1463 12.3672C22.0169 12.0738 21.7394 11.4135 21.7211 10.7899C21.7026 10.1662 21.8505 9.7078 21.8875 9.52429C22.054 8.82721 23.792 6.64458 23.792 6.64458C22.8119 7.52499 21.5361 8.42378 20.3342 9.39595C19.8536 9.81776 19.6317 10.093 19.5946 10.6616C19.5575 11.0834 19.8536 11.6887 20.0569 12.0006C20.2048 12.2207 21.499 13.9815 21.9428 14.7518C22.5159 15.7423 22.8119 16.3109 23.2555 17.3748C24.0322 19.2274 24.3464 20.3645 24.6239 22.3456C24.7164 21.887 24.7349 21.6301 24.7718 21.1533C24.8457 19.686 24.6608 18.8423 24.328 17.4114C23.8472 15.3387 23.0891 14.2016 22.1461 12.3672H22.1463Z" fill="white"/>
<path d="M0.802337 45.1987H0.837538C0.851394 45.255 0.878544 45.3005 0.918613 45.3356C0.95887 45.3707 1.01411 45.3891 1.08432 45.3908C1.14311 45.3908 1.19217 45.3739 1.23149 45.3403C1.271 45.3065 1.29066 45.2628 1.29066 45.2091C1.29066 45.1597 1.27325 45.1172 1.23823 45.0815C1.20322 45.0459 1.14293 45.0102 1.05717 44.9745C0.991075 44.9461 0.936588 44.916 0.894085 44.8841C0.851394 44.8523 0.818627 44.8137 0.795971 44.7686C0.773315 44.7234 0.761893 44.6692 0.761893 44.606C0.761893 44.5392 0.776685 44.4775 0.806269 44.421C0.835853 44.3646 0.882101 44.3193 0.944639 44.2853C1.00718 44.2513 1.08488 44.2342 1.17738 44.2342C1.22887 44.2342 1.28017 44.242 1.33166 44.2576C1.38297 44.2732 1.42341 44.2933 1.45281 44.3174C1.44401 44.3447 1.43446 44.3735 1.42435 44.4036C1.41424 44.4337 1.40506 44.4634 1.39645 44.4924H1.36986C1.35619 44.4502 1.33185 44.4144 1.29721 44.3848C1.26239 44.3555 1.21876 44.3406 1.16596 44.3406C1.03377 44.3406 0.967857 44.3993 0.967857 44.5167C0.967857 44.5839 1.0201 44.6426 1.12439 44.6932L1.25621 44.7582C1.35451 44.805 1.42154 44.859 1.4573 44.9203C1.49307 44.9816 1.51104 45.0481 1.51104 45.1198C1.50935 45.1809 1.49512 45.2351 1.46854 45.2823C1.44195 45.3295 1.40581 45.3694 1.36012 45.4019C1.31444 45.4344 1.26351 45.459 1.20715 45.4749C1.15079 45.4909 1.0935 45.4991 1.03508 45.4991C0.923856 45.4955 0.829112 45.4699 0.751221 45.4222C0.775375 45.344 0.792413 45.2693 0.802524 45.1978L0.802337 45.1987Z" fill="white"/>
<path d="M1.85059 45.4671V44.2645H2.53008C2.52577 44.2825 2.5209 44.309 2.51566 44.3445C2.51885 44.3622 2.5224 44.3863 2.52652 44.4173C2.40463 44.4021 2.28779 44.3945 2.17601 44.3945H2.1174V44.7706H2.34846C2.41848 44.7706 2.47559 44.7652 2.51959 44.7546C2.51735 44.7726 2.5151 44.7886 2.51323 44.8027C2.51136 44.8169 2.50986 44.8287 2.50873 44.8384C2.51267 44.8618 2.51641 44.8861 2.51959 44.9112C2.46305 44.8995 2.39133 44.8936 2.30408 44.8936H2.11722V45.3393C2.25727 45.3393 2.39489 45.3312 2.52989 45.3148C2.52353 45.3473 2.51866 45.3752 2.51547 45.3979C2.51978 45.4177 2.52334 45.4408 2.52633 45.4671H1.85059Z" fill="white"/>
<path d="M2.81909 44.8999C2.81909 44.8209 2.83145 44.7429 2.85598 44.6662C2.88051 44.5893 2.92076 44.5187 2.97656 44.4543C3.03236 44.3898 3.108 44.3375 3.20331 44.2975C3.29861 44.2574 3.4132 44.2366 3.54746 44.2349C3.71185 44.2349 3.85678 44.2706 3.98223 44.3417C3.96968 44.3672 3.95845 44.3986 3.94852 44.4359C3.93841 44.4732 3.93242 44.5015 3.93055 44.521H3.90583C3.86258 44.456 3.80903 44.4097 3.74518 44.3826C3.68133 44.3555 3.61786 44.3417 3.55494 44.3417C3.49203 44.3417 3.4308 44.3544 3.37725 44.3796C3.3237 44.4049 3.27746 44.4417 3.23851 44.4901C3.19956 44.5386 3.16886 44.5977 3.14676 44.6677C3.12467 44.7377 3.11212 44.8161 3.10969 44.9032C3.10969 45.0007 3.12748 45.0869 3.16324 45.1616C3.19881 45.2364 3.24787 45.2942 3.31003 45.3351C3.3722 45.3759 3.44148 45.3969 3.51768 45.398C3.59221 45.3947 3.66523 45.3765 3.73694 45.3434V44.9298C3.78469 44.9367 3.82869 44.9402 3.86857 44.9402C3.90845 44.9402 3.95526 44.9367 4.00376 44.9298V45.4194C3.83506 45.4733 3.67609 45.5002 3.52705 45.5002C3.44429 45.5002 3.36153 45.4898 3.27895 45.469C3.19638 45.4482 3.12017 45.4142 3.05052 45.3672C2.98087 45.3202 2.92488 45.2578 2.88275 45.18C2.84044 45.1021 2.81947 45.0089 2.81947 44.8999H2.81909Z" fill="white"/>
<path d="M4.4231 45.0165V44.2652C4.47103 44.2713 4.51503 44.2745 4.55491 44.2745C4.59479 44.2745 4.6416 44.2713 4.68991 44.2652V44.9435C4.68991 45.0056 4.69497 45.0637 4.70527 45.1183C4.71556 45.1727 4.72998 45.2145 4.74852 45.2435C4.80844 45.3326 4.89457 45.3774 5.00672 45.3774C5.06963 45.3774 5.12094 45.3683 5.16101 45.3499C5.20089 45.3315 5.2374 45.3009 5.27017 45.2578C5.305 45.2097 5.3269 45.1516 5.33626 45.0839C5.34544 45.0161 5.35012 44.9418 5.35012 44.8611V44.2654C5.35817 44.2663 5.36978 44.2674 5.38551 44.2687C5.40105 44.27 5.4121 44.2713 5.41865 44.2724C5.4267 44.2713 5.43831 44.2702 5.45404 44.2689C5.46958 44.2678 5.48175 44.2667 5.49074 44.2654V44.9073C5.49074 45.0115 5.48231 45.1012 5.46565 45.1764C5.44898 45.2515 5.41584 45.3113 5.36641 45.3559C5.33121 45.3874 5.29545 45.4138 5.25912 45.4348C5.2228 45.4558 5.18086 45.472 5.13292 45.4835C5.08518 45.495 5.02919 45.5007 4.96534 45.5007C4.77866 45.5007 4.63599 45.4524 4.5375 45.356C4.46148 45.274 4.42347 45.1608 4.42347 45.0171L4.4231 45.0165Z" fill="white"/>
<path d="M5.92432 45.4794V44.2652H6.37126C6.45495 44.2652 6.51712 44.2724 6.55756 44.2867C6.59819 44.301 6.63658 44.3263 6.67309 44.3627C6.72158 44.4078 6.74574 44.4706 6.74574 44.5514C6.74574 44.6493 6.71746 44.7232 6.66111 44.7728C6.60475 44.8226 6.54052 44.8558 6.46844 44.8728C6.51094 44.9433 6.54914 45.0052 6.58303 45.0583C6.61692 45.1112 6.66466 45.1854 6.72627 45.2808C6.78787 45.3761 6.83037 45.4424 6.85396 45.4797C6.79498 45.4719 6.74162 45.4682 6.69425 45.4682C6.64688 45.4682 6.59145 45.4721 6.5306 45.4797C6.49577 45.4188 6.45477 45.3462 6.40702 45.2621C6.35946 45.1779 6.32164 45.1118 6.29393 45.0637C6.26622 45.0156 6.23588 44.9645 6.2033 44.9108H6.19113V45.4799C6.13908 45.4721 6.09489 45.4684 6.05838 45.4684C6.02187 45.4684 5.97805 45.4723 5.92432 45.4799V45.4794ZM6.19113 44.8345C6.20031 44.8356 6.21398 44.8362 6.23195 44.8362C6.38886 44.8362 6.46881 44.7528 6.47199 44.586C6.47199 44.5221 6.46207 44.4738 6.44241 44.4409C6.42275 44.408 6.39728 44.3869 6.36602 44.377C6.33475 44.3674 6.29711 44.3623 6.25311 44.3623H6.19113V44.8343V44.8345Z" fill="white"/>
<path d="M7.18408 44.2645C7.21292 44.2663 7.25654 44.2693 7.31515 44.2738C7.37357 44.2693 7.41738 44.2663 7.44622 44.2645V45.4786C7.39922 45.4708 7.35316 45.4671 7.30822 45.4671C7.26871 45.4671 7.22733 45.471 7.18408 45.4786V44.2645Z" fill="white"/>
<path d="M7.90766 45.4671V44.2645H8.51207C8.60662 44.2645 8.69519 44.2853 8.77757 44.3269C8.85996 44.3685 8.92643 44.4316 8.97661 44.5163C9.02698 44.601 9.05207 44.7034 9.05207 44.8234C9.05151 44.9465 9.02604 45.0568 8.97567 45.1545C8.92531 45.2522 8.85004 45.3286 8.74986 45.3841C8.64969 45.4395 8.52761 45.4671 8.38381 45.4671H7.90747H7.90766ZM8.16979 45.3627H8.33363C8.61486 45.3627 8.75604 45.1867 8.75735 44.8345C8.75735 44.6647 8.71972 44.5447 8.64445 44.4744C8.56918 44.4041 8.47144 44.369 8.3516 44.369H8.16998V45.3627H8.16979Z" fill="white"/>
<path d="M9.3036 45.4745L9.81027 44.2487C9.82 44.25 9.83068 44.2509 9.8421 44.2514C9.85352 44.252 9.86475 44.2526 9.8758 44.2533C9.91568 44.2513 9.9389 44.2498 9.94527 44.2487L10.4411 45.4745C10.4209 45.4734 10.3935 45.4723 10.3593 45.471C10.325 45.4699 10.2984 45.4688 10.2791 45.4675C10.2638 45.4686 10.2402 45.4699 10.2082 45.4712C10.1761 45.4725 10.1518 45.4736 10.1351 45.4745C10.0984 45.3538 10.057 45.2323 10.011 45.1101H9.59494C9.58839 45.1287 9.57378 45.1686 9.55132 45.2297C9.52885 45.2908 9.51181 45.3386 9.49982 45.3729C9.48803 45.4073 9.47754 45.4411 9.46856 45.4747C9.45844 45.4736 9.44384 45.4725 9.42474 45.4712C9.40564 45.4701 9.39066 45.469 9.37962 45.4677C9.37231 45.4688 9.35996 45.4701 9.34254 45.4714C9.32513 45.4727 9.31202 45.4738 9.30322 45.4747L9.3036 45.4745ZM9.96998 44.9987L9.81027 44.5887L9.64325 44.9987H9.96998Z" fill="white"/>
<path d="M10.7627 45.4671V44.2645H11.3671C11.4617 44.2645 11.5502 44.2853 11.6326 44.3269C11.715 44.3685 11.7815 44.4316 11.8316 44.5163C11.882 44.601 11.9071 44.7034 11.9071 44.8234C11.9065 44.9465 11.8811 45.0568 11.8307 45.1545C11.7803 45.252 11.7051 45.3286 11.6049 45.3841C11.5047 45.4395 11.3826 45.4671 11.239 45.4671H10.7627ZM11.0248 45.3627H11.1887C11.4699 45.3627 11.6111 45.1867 11.6124 44.8345C11.6124 44.6647 11.5748 44.5447 11.4995 44.4744C11.4242 44.4041 11.3265 44.369 11.2066 44.369H11.025V45.3627H11.0248Z" fill="white"/>
<path d="M13.1829 44.969C13.1509 44.9121 13.1193 44.8547 13.088 44.797C13.0567 44.7392 13.0223 44.6753 12.9848 44.6055C12.9474 44.5355 12.9128 44.4712 12.8811 44.4121C12.8495 44.3532 12.8227 44.304 12.8008 44.2648C12.8558 44.271 12.9096 44.2741 12.9624 44.2741C13.0185 44.2741 13.0708 44.271 13.1193 44.2648C13.1373 44.2994 13.1586 44.3421 13.1835 44.3936C13.2084 44.445 13.2335 44.4965 13.2586 44.5483C13.2839 44.6001 13.3056 44.6439 13.3237 44.68C13.3419 44.716 13.3621 44.7531 13.3842 44.7916C13.4061 44.763 13.4299 44.7245 13.4557 44.6766C13.4814 44.6287 13.5044 44.5834 13.5245 44.5405C13.5445 44.4976 13.5685 44.4454 13.5962 44.3837C13.6239 44.3222 13.642 44.2825 13.6507 44.2646C13.6862 44.2708 13.7128 44.2739 13.7304 44.2739C13.7506 44.2739 13.7819 44.2708 13.8244 44.2646C13.8094 44.291 13.7842 44.3349 13.7486 44.3962C13.713 44.4573 13.6752 44.523 13.6349 44.593C13.5949 44.6631 13.5612 44.7227 13.5342 44.7719C13.5072 44.8209 13.4792 44.8737 13.4499 44.93V45.4788C13.4355 45.4775 13.4131 45.4757 13.3822 45.4731C13.3515 45.4705 13.328 45.4684 13.3119 45.4673C13.2685 45.4712 13.2256 45.4751 13.1831 45.4788V44.9686L13.1829 44.969Z" fill="white"/>
<path d="M14.7564 45.1987H14.7916C14.8055 45.255 14.8326 45.3005 14.8727 45.3356C14.913 45.3707 14.9682 45.3891 15.0384 45.3908C15.0972 45.3908 15.1463 45.3739 15.1856 45.3403C15.2251 45.3065 15.2448 45.2628 15.2448 45.2091C15.2448 45.1597 15.2273 45.1172 15.1923 45.0815C15.1573 45.0459 15.097 45.0102 15.0113 44.9745C14.9452 44.9461 14.8907 44.916 14.8482 44.8841C14.8055 44.8523 14.7727 44.8137 14.7501 44.7686C14.7274 44.7234 14.716 44.6692 14.716 44.606C14.716 44.5392 14.7308 44.4775 14.7604 44.421C14.79 44.3646 14.8362 44.3193 14.8987 44.2853C14.9613 44.2513 15.039 44.2342 15.1315 44.2342C15.183 44.2342 15.2343 44.242 15.2858 44.2576C15.3371 44.2732 15.3775 44.2933 15.4069 44.3174C15.3981 44.3447 15.3886 44.3735 15.3785 44.4036C15.3683 44.4337 15.3592 44.4634 15.3506 44.4924H15.324C15.3103 44.4502 15.286 44.4144 15.2513 44.3848C15.2165 44.3555 15.1729 44.3406 15.1201 44.3406C14.9879 44.3406 14.922 44.3993 14.922 44.5167C14.922 44.5839 14.9742 44.6426 15.0785 44.6932L15.2103 44.7582C15.3086 44.805 15.3756 44.859 15.4114 44.9203C15.4472 44.9816 15.4651 45.0481 15.4651 45.1198C15.4635 45.1809 15.4492 45.2351 15.4226 45.2823C15.3961 45.3295 15.3599 45.3694 15.3142 45.4019C15.2685 45.4344 15.2176 45.459 15.1613 45.4749C15.1049 45.4909 15.0476 45.4991 14.9892 45.4991C14.878 45.4955 14.7832 45.4699 14.7053 45.4222C14.7295 45.344 14.7465 45.2693 14.7566 45.1978L14.7564 45.1987Z" fill="white"/>
<path d="M15.7262 44.8726C15.7285 44.7955 15.7427 44.7201 15.7687 44.646C15.7947 44.572 15.835 44.5039 15.8895 44.4415C15.944 44.3791 16.0146 44.3291 16.1011 44.2914C16.1876 44.2537 16.2906 44.2349 16.41 44.2349C16.5295 44.2349 16.6235 44.2515 16.7098 44.2847C16.7959 44.3178 16.8669 44.3635 16.9223 44.4216C16.9777 44.4797 17.0191 44.5468 17.0463 44.6226C17.0734 44.6983 17.0871 44.7791 17.0871 44.8648C17.0871 44.9636 17.0695 45.0516 17.0345 45.1287C16.9993 45.2058 16.9498 45.2714 16.8862 45.3252C16.8223 45.3791 16.7482 45.4205 16.6635 45.4495C16.5787 45.4785 16.4862 45.4954 16.3855 45.5004C16.2956 45.5004 16.2003 45.4831 16.0994 45.4485C15.9986 45.414 15.911 45.3516 15.8363 45.2613C15.7618 45.1711 15.7238 45.0498 15.7227 44.8973C15.7249 44.89 15.7262 44.882 15.7262 44.8728V44.8726ZM16.7899 44.8319C16.7899 44.7362 16.7749 44.6514 16.745 44.5767C16.715 44.5022 16.672 44.4441 16.6162 44.4023C16.5604 44.3605 16.4952 44.3397 16.4211 44.3397H16.4175C16.2818 44.3428 16.1816 44.398 16.117 44.505C16.0522 44.612 16.02 44.7517 16.02 44.9236C16.0226 45.0215 16.0406 45.106 16.0739 45.177C16.1072 45.248 16.1518 45.3014 16.2074 45.3375C16.263 45.3735 16.3235 45.3915 16.3889 45.3915C16.492 45.3915 16.5735 45.36 16.633 45.297C16.6926 45.2338 16.7336 45.1595 16.7562 45.0741C16.7787 44.9887 16.7899 44.908 16.7899 44.8323V44.8319Z" fill="white"/>
<path d="M17.4294 44.2648C17.4766 44.2674 17.5206 44.2706 17.561 44.2741C17.5648 44.2739 17.5824 44.2726 17.614 44.2702C17.6456 44.268 17.673 44.2661 17.6962 44.2648V45.3397C17.8119 45.3397 17.9486 45.3315 18.1064 45.3152C18.1016 45.3354 18.0967 45.3618 18.092 45.3947C18.096 45.4161 18.0997 45.4402 18.1029 45.4673H17.4292V44.2646L17.4294 44.2648Z" fill="white"/>
<path d="M18.4822 44.2645C18.511 44.2663 18.5546 44.2693 18.6132 44.2738C18.6717 44.2693 18.7155 44.2663 18.7443 44.2645V45.4786C18.6973 45.4708 18.6513 45.4671 18.6063 45.4671C18.5668 45.4671 18.5254 45.471 18.4822 45.4786V44.2645Z" fill="white"/>
<path d="M19.2056 45.4671V44.2645H19.81C19.9045 44.2645 19.9931 44.2853 20.0755 44.3269C20.1579 44.3685 20.2243 44.4316 20.2745 44.5163C20.3249 44.601 20.35 44.7034 20.35 44.8234C20.3494 44.9465 20.324 45.0568 20.2736 45.1545C20.2232 45.2522 20.1479 45.3286 20.0478 45.3841C19.9476 45.4395 19.8255 45.4671 19.6819 45.4671H19.2056ZM19.4677 45.3627H19.6315C19.9128 45.3627 20.0539 45.1867 20.0553 44.8345C20.0553 44.6647 20.0176 44.5447 19.9424 44.4744C19.8671 44.4041 19.7693 44.369 19.6495 44.369H19.4679V45.3627H19.4677Z" fill="white"/>
<path d="M20.6014 45.4745L21.1081 44.2487C21.1179 44.25 21.1285 44.2509 21.14 44.2514C21.1514 44.252 21.1626 44.2526 21.1737 44.2533C21.2135 44.2513 21.2368 44.2498 21.2431 44.2487L21.7389 45.4745C21.7187 45.4734 21.6914 45.4723 21.6571 45.471C21.6228 45.4699 21.5961 45.4688 21.577 45.4675C21.5616 45.4686 21.538 45.4699 21.506 45.4712C21.474 45.4725 21.4496 45.4736 21.433 45.4745C21.3963 45.3538 21.3549 45.2323 21.3088 45.1101H20.8928C20.8861 45.1287 20.8716 45.1686 20.8492 45.2297C20.8267 45.2908 20.8097 45.3386 20.7977 45.3729C20.7859 45.4073 20.7754 45.4411 20.7664 45.4747C20.7563 45.4736 20.7417 45.4725 20.7226 45.4712C20.7035 45.4701 20.6885 45.469 20.6775 45.4677C20.6702 45.4688 20.6578 45.4701 20.6404 45.4714C20.623 45.4727 20.6099 45.4738 20.6011 45.4747L20.6014 45.4745ZM21.2678 44.9987L21.1081 44.5887L20.9411 44.9987H21.2678Z" fill="white"/>
<path d="M22.0396 45.4794V44.2652H22.4865C22.5702 44.2652 22.6324 44.2724 22.6728 44.2867C22.7134 44.301 22.7518 44.3263 22.7883 44.3627C22.8368 44.4078 22.861 44.4706 22.861 44.5514C22.861 44.6493 22.8327 44.7232 22.7763 44.7728C22.72 44.8226 22.6558 44.8558 22.5837 44.8728C22.6262 44.9433 22.6644 45.0052 22.6983 45.0583C22.7322 45.1112 22.7799 45.1854 22.8415 45.2808C22.9031 45.3761 22.9456 45.4424 22.9692 45.4797C22.9102 45.4719 22.8569 45.4682 22.8095 45.4682C22.7621 45.4682 22.7067 45.4721 22.6458 45.4797C22.611 45.4188 22.57 45.3462 22.5223 45.2621C22.4747 45.1779 22.4369 45.1118 22.4092 45.0637C22.3815 45.0156 22.3511 44.9645 22.3185 44.9108H22.3064V45.4799C22.2543 45.4721 22.2101 45.4684 22.1736 45.4684C22.1371 45.4684 22.0933 45.4723 22.0396 45.4799V45.4794ZM22.3064 44.8345C22.3155 44.8356 22.3292 44.8362 22.3472 44.8362C22.5041 44.8362 22.584 44.7528 22.5872 44.586C22.5872 44.5221 22.5773 44.4738 22.5576 44.4409C22.538 44.408 22.5125 44.3869 22.4813 44.377C22.45 44.3674 22.4123 44.3623 22.3683 44.3623H22.3064V44.8343V44.8345Z" fill="white"/>
<path d="M23.2993 44.2645C23.3282 44.2663 23.3718 44.2693 23.4304 44.2738C23.4888 44.2693 23.5326 44.2663 23.5615 44.2645V45.4786C23.5145 45.4708 23.4684 45.4671 23.4235 45.4671C23.3839 45.4671 23.3426 45.471 23.2993 45.4786V44.2645Z" fill="white"/>
<path d="M24.0229 45.4671V44.2645H24.6274C24.7219 44.2645 24.8105 44.2853 24.8929 44.3269C24.9752 44.3685 25.0417 44.4316 25.0919 44.5163C25.1423 44.601 25.1674 44.7034 25.1674 44.8234C25.1668 44.9465 25.1413 45.0568 25.091 45.1545C25.0406 45.2522 24.9653 45.3286 24.8652 45.3841C24.765 45.4395 24.6429 45.4671 24.4993 45.4671H24.0229ZM24.2851 45.3627H24.4489C24.7302 45.3627 24.8713 45.1867 24.8726 44.8345C24.8726 44.6647 24.835 44.5447 24.7597 44.4744C24.6845 44.4041 24.5867 44.369 24.4669 44.369H24.2853V45.3627H24.2851Z" fill="white"/>
<path d="M25.4186 45.4745L25.9253 44.2487C25.935 44.25 25.9457 44.2509 25.9571 44.2514C25.9685 44.252 25.9797 44.2526 25.9908 44.2533C26.0307 44.2513 26.0539 44.2498 26.0603 44.2487L26.5561 45.4745C26.5358 45.4734 26.5085 45.4723 26.4742 45.471C26.44 45.4699 26.4132 45.4688 26.3941 45.4675C26.3788 45.4686 26.3552 45.4699 26.3231 45.4712C26.2911 45.4725 26.2668 45.4736 26.2501 45.4745C26.2134 45.3538 26.172 45.2323 26.126 45.1101H25.7099C25.7032 45.1287 25.6888 45.1686 25.6663 45.2297C25.6438 45.2908 25.6268 45.3386 25.6148 45.3729C25.603 45.4073 25.5925 45.4411 25.5835 45.4747C25.5734 45.4736 25.5588 45.4725 25.5397 45.4712C25.5206 45.4701 25.5057 45.469 25.4946 45.4677C25.4873 45.4688 25.4749 45.4701 25.4575 45.4714C25.4401 45.4727 25.427 45.4738 25.4182 45.4747L25.4186 45.4745ZM26.085 44.9987L25.9253 44.5887L25.7582 44.9987H26.085Z" fill="white"/>
<path d="M26.8779 45.4671V44.2645H27.4823C27.5769 44.2645 27.6655 44.2853 27.7478 44.3269C27.8302 44.3685 27.8967 44.4316 27.9469 44.5163C27.9972 44.601 28.0223 44.7034 28.0223 44.8234C28.0218 44.9465 27.9963 45.0568 27.9459 45.1545C27.8956 45.252 27.8203 45.3286 27.7201 45.3841C27.62 45.4395 27.4979 45.4671 27.3543 45.4671H26.8779ZM27.1401 45.3627H27.3039C27.5851 45.3627 27.7263 45.1867 27.7276 44.8345C27.7276 44.6647 27.69 44.5447 27.6147 44.4744C27.5394 44.4041 27.4417 44.369 27.3219 44.369H27.1403V45.3627H27.1401Z" fill="white"/>
<path d="M29.0069 45.1987H29.0421C29.056 45.255 29.0831 45.3005 29.1232 45.3356C29.1635 45.3707 29.2187 45.3891 29.2889 45.3908C29.3477 45.3908 29.3968 45.3739 29.4361 45.3403C29.4756 45.3065 29.4952 45.2628 29.4952 45.2091C29.4952 45.1597 29.4778 45.1172 29.4428 45.0815C29.4078 45.0459 29.3475 45.0102 29.2618 44.9745C29.1957 44.9461 29.1412 44.916 29.0987 44.8841C29.056 44.8523 29.0232 44.8137 29.0006 44.7686C28.9777 44.7234 28.9665 44.6692 28.9665 44.606C28.9665 44.5392 28.9813 44.4775 29.0109 44.421C29.0404 44.3646 29.0867 44.3193 29.1492 44.2853C29.2118 44.2513 29.2895 44.2342 29.382 44.2342C29.4335 44.2342 29.4848 44.242 29.5363 44.2576C29.5876 44.2732 29.628 44.2933 29.6574 44.3174C29.6486 44.3447 29.6391 44.3735 29.6289 44.4036C29.619 44.4337 29.6097 44.4634 29.601 44.4924H29.5745C29.5608 44.4502 29.5364 44.4144 29.5018 44.3848C29.467 44.3555 29.4233 44.3406 29.3707 44.3406C29.2385 44.3406 29.1726 44.3993 29.1726 44.5167C29.1726 44.5839 29.2249 44.6426 29.3292 44.6932L29.4608 44.7582C29.5591 44.805 29.6261 44.859 29.6619 44.9203C29.6977 44.9816 29.7156 45.0481 29.7156 45.1198C29.7139 45.1809 29.6997 45.2351 29.6731 45.2823C29.6465 45.3295 29.6104 45.3694 29.5647 45.4019C29.519 45.4344 29.4681 45.459 29.4117 45.4749C29.3554 45.4909 29.2981 45.4991 29.2397 45.4991C29.1284 45.4955 29.0337 45.4699 28.9558 45.4222C28.98 45.344 28.997 45.2693 29.0071 45.1978L29.0069 45.1987Z" fill="white"/>
<path d="M29.9769 44.8726C29.9792 44.7955 29.9934 44.7201 30.0195 44.646C30.0455 44.572 30.0857 44.5039 30.1402 44.4415C30.1947 44.3791 30.2653 44.3291 30.3518 44.2914C30.4383 44.2537 30.5413 44.2349 30.6607 44.2349C30.7802 44.2349 30.8742 44.2515 30.9605 44.2847C31.0466 44.3178 31.1176 44.3635 31.173 44.4216C31.2285 44.4797 31.2698 44.5468 31.297 44.6226C31.3241 44.6983 31.3378 44.7791 31.3378 44.8648C31.3378 44.9636 31.3202 45.0516 31.2852 45.1287C31.25 45.2058 31.2006 45.2714 31.1369 45.3252C31.073 45.3791 30.9989 45.4205 30.9143 45.4495C30.8294 45.4785 30.737 45.4954 30.6362 45.5004C30.5463 45.5004 30.451 45.4831 30.3501 45.4485C30.2494 45.414 30.1618 45.3516 30.087 45.2613C30.0125 45.1711 29.9745 45.0498 29.9734 44.8973C29.9756 44.89 29.9769 44.882 29.9769 44.8728V44.8726ZM31.0407 44.8319C31.0407 44.7362 31.0257 44.6514 30.9957 44.5767C30.9658 44.5022 30.9227 44.4441 30.8669 44.4023C30.8111 44.3605 30.7459 44.3397 30.6718 44.3397H30.6682C30.5325 44.3428 30.4323 44.398 30.3677 44.505C30.3031 44.612 30.2707 44.7517 30.2707 44.9236C30.2733 45.0215 30.2913 45.106 30.3247 45.177C30.358 45.248 30.4025 45.3014 30.4582 45.3375C30.5138 45.3735 30.5742 45.3915 30.6396 45.3915C30.7428 45.3915 30.8242 45.36 30.8838 45.297C30.9433 45.2338 30.9845 45.1595 31.007 45.0741C31.0294 44.9887 31.0407 44.908 31.0407 44.8323V44.8319Z" fill="white"/>
<path d="M31.5818 44.9108C31.584 44.7338 31.6245 44.5951 31.7029 44.4942C31.7814 44.3934 31.8726 44.325 31.9767 44.289C32.0808 44.2529 32.181 44.2349 32.2778 44.2349C32.3646 44.2349 32.4422 44.2444 32.5103 44.2635C32.5783 44.2827 32.6271 44.3022 32.6567 44.322C32.6436 44.3698 32.6294 44.4303 32.614 44.5035H32.591C32.5519 44.4498 32.5064 44.4093 32.4549 44.3822C32.4032 44.3551 32.35 44.3415 32.2954 44.3415C32.2162 44.3415 32.1448 44.3631 32.0812 44.406C32.0175 44.4489 31.9675 44.5113 31.9312 44.593C31.8949 44.6748 31.8767 44.771 31.8767 44.8819C31.8767 44.9801 31.8928 45.0676 31.925 45.1443C31.9572 45.221 32.0055 45.2812 32.0703 45.325C32.1349 45.3689 32.2135 45.3908 32.306 45.3908C32.3575 45.3908 32.4131 45.3791 32.4727 45.3555C32.5322 45.3319 32.5818 45.3001 32.6212 45.2602L32.6464 45.2708L32.6056 45.4231C32.5152 45.4744 32.3978 45.5 32.2532 45.5C32.1501 45.5 32.0568 45.4844 31.9731 45.453C31.8896 45.4216 31.8186 45.3785 31.7604 45.3237C31.7022 45.2689 31.6578 45.2058 31.6275 45.1343C31.5971 45.063 31.5818 44.9883 31.5818 44.9105V44.9108Z" fill="white"/>
<path d="M33.0315 44.2645C33.0603 44.2663 33.104 44.2693 33.1626 44.2738C33.221 44.2693 33.2648 44.2663 33.2936 44.2645V45.4786C33.2466 45.4708 33.2006 45.4671 33.1556 45.4671C33.1161 45.4671 33.0747 45.471 33.0315 45.4786V44.2645Z" fill="white"/>
<path d="M33.6264 45.4745L34.133 44.2487C34.1428 44.25 34.1534 44.2509 34.1649 44.2514C34.1763 44.252 34.1875 44.2526 34.1986 44.2533C34.2384 44.2513 34.2617 44.2498 34.268 44.2487L34.7638 45.4745C34.7436 45.4734 34.7163 45.4723 34.682 45.471C34.6477 45.4699 34.621 45.4688 34.6019 45.4675C34.5865 45.4686 34.5629 45.4699 34.5309 45.4712C34.4989 45.4725 34.4745 45.4736 34.4579 45.4745C34.4212 45.3538 34.3798 45.2323 34.3337 45.1101H33.9177C33.911 45.1287 33.8965 45.1686 33.8741 45.2297C33.8516 45.2908 33.8346 45.3386 33.8226 45.3729C33.8106 45.4073 33.8003 45.4411 33.7913 45.4747C33.7812 45.4736 33.7666 45.4725 33.7475 45.4712C33.7284 45.4699 33.7134 45.469 33.7024 45.4677C33.6951 45.4688 33.6827 45.4701 33.6653 45.4714C33.6479 45.4727 33.6348 45.4738 33.626 45.4747L33.6264 45.4745ZM34.2927 44.9987L34.133 44.5887L33.966 44.9987H34.2927Z" fill="white"/>
<path d="M35.0739 44.2648C35.1211 44.2674 35.1651 44.2706 35.2055 44.2741C35.2093 44.2739 35.2269 44.2726 35.2585 44.2702C35.2902 44.268 35.3175 44.2661 35.3407 44.2648V45.3397C35.4564 45.3397 35.5931 45.3315 35.751 45.3152C35.7461 45.3354 35.7412 45.3618 35.7366 45.3947C35.7405 45.4161 35.7442 45.4402 35.7474 45.4673H35.0737V44.2646L35.0739 44.2648Z" fill="white"/>
</g>
<defs>
<clipPath id="clip0_805_919">
<rect width="35" height="45" fill="white" transform="translate(0.750977 0.5)"/>
</clipPath>
</defs>
</svg>
