<svg width="79" height="46" viewBox="0 0 79 46" fill="none" xmlns="http://www.w3.org/2000/svg">
<g clip-path="url(#clip0_35_4246)">
<path d="M13.4745 1.71583L13.8126 2.35918C13.631 3.39079 13.3153 5.09126 13.156 5.84797C12.7704 5.87064 11.7311 5.84797 11.3008 5.77995C11.189 4.54144 11.0521 3.64586 10.9152 3.02519C10.3732 2.63408 9.46795 2.38185 8.40344 2.38185C7.45349 2.38185 6.57059 2.63408 6.05091 3.02519C5.77989 3.46164 5.55358 3.98879 5.55358 4.67748C5.55358 8.51203 14.0389 7.50025 14.0389 12.7575C14.0389 15.4443 11.7534 17.2581 8.04302 17.2581C5.75754 17.2581 3.58382 16.456 2.49975 15.858L2.4327 15.6285C2.41035 14.5714 2.4327 13.2422 2.49975 12.2304C2.90768 12.1624 4.08394 12.1142 4.46951 12.1397C4.69582 13.2648 4.85508 13.9535 5.03669 14.6649C5.64857 15.1013 6.95895 15.4216 8.11287 15.4216C9.17737 15.4216 9.85631 15.26 10.443 14.9625C10.7141 14.5714 10.9851 13.9989 10.9851 13.2422C10.9851 9.63717 2.56681 10.7396 2.56681 5.30098C2.56681 2.44987 5.30491 0.5 8.67725 0.5C10.6219 0.5 12.2983 0.981799 13.4745 1.71583Z" fill="white"/>
<path d="M29.0369 17.003L27.0001 14.2483C24.9186 11.4255 22.3146 8.14358 20.2331 5.52486C20.2778 9.63432 20.37 14.5458 20.5963 14.9596C20.8226 15.2799 22.1581 15.5349 23.1751 15.7617L22.9488 16.9095H16.4528L16.2265 15.7617L18.2409 15.1637C18.3303 14.3843 18.4002 12.2956 18.4002 8.96547C18.3778 5.0629 18.3555 3.13571 18.1292 2.81262C17.766 2.53771 16.8607 2.21462 16.1594 1.98506L16.3857 0.837245C17.8107 0.837245 19.4647 0.791899 20.7751 0.769226C22.3369 3.38511 26.1842 8.25128 29.3973 12.3381C29.375 7.61077 29.2604 3.20089 29.0117 2.78995C28.8301 2.49236 27.517 2.21746 26.6369 1.98789L26.8855 0.840079H33.334L33.5827 1.98789L31.5459 2.60856C31.3643 4.39972 31.2525 9.83838 31.2525 16.7706L29.0341 17.0002L29.0369 17.003Z" fill="white"/>
<path d="M37.581 15.1665C37.6481 14.7754 37.7179 12.0206 37.7179 10.8728V6.7407C37.7179 5.31797 37.7179 2.99967 37.5363 2.74743C37.3323 2.47253 36.293 2.19762 35.5442 1.99073L35.7929 0.842912H38.8942C39.6849 0.842912 42.1296 0.704041 43.2388 0.704041C49.5057 0.704041 51.6794 4.51592 51.6794 8.82943C51.6794 14.3389 48.1506 17.0937 43.8284 17.0937C42.3336 17.0937 40.4337 16.9095 39.0534 16.9095H35.7956L35.547 15.7617L37.5838 15.1637L37.581 15.1665ZM40.8416 14.9851C41.1797 15.328 44.0323 15.7192 45.6389 15.1013C47.5164 14.0924 48.5586 11.9555 48.6033 8.8351C48.6033 6.21922 47.6086 4.1985 46.5665 3.32559C45.6389 2.7531 44.4849 2.45269 43.0153 2.45269C42.2218 2.45269 41.5205 2.49803 40.7969 2.61423C40.7298 3.07336 40.66 5.73459 40.66 6.8824V11.0145C40.66 12.3919 40.66 14.594 40.8416 14.9851Z" fill="white"/>
<path d="M55.3312 15.1665C55.3983 14.7754 55.4682 12.0207 55.4682 10.8729V6.74074C55.4682 5.31802 55.4682 2.99971 55.2865 2.74748C55.0826 2.47257 54.0432 2.19766 53.2944 1.99077L53.5431 0.842957H60.3325L60.5811 1.99077L58.5443 2.58877C58.4773 2.97988 58.4074 5.73463 58.4074 6.88245V11.0146C58.4074 12.4373 58.4074 14.7556 58.589 15.0078C58.793 15.2827 59.8352 15.5577 60.5811 15.7645L60.3325 16.9124H53.5431L53.2944 15.7645L55.3312 15.1665Z" fill="white"/>
<path d="M64.8475 15.1665C64.9145 14.7754 64.9844 12.0206 64.9844 10.8728V6.74069C64.9844 5.31797 64.9844 2.95432 64.7804 2.72476C64.5541 2.44985 63.5343 2.17494 62.8107 1.99072L63.0593 0.842909H68.9658C71.6368 0.842909 73.7854 0.797563 75.5736 0.658691C75.7328 0.865581 76.0038 1.27936 76.1156 1.46074C75.9563 2.56321 75.6406 4.32886 75.4814 5.38599C75.0511 5.40866 74.1458 5.36331 73.6709 5.27262L73.1959 2.51787C72.4722 2.42718 71.4524 2.40167 70.5248 2.40167C69.5972 2.40167 68.8037 2.42434 68.0578 2.44701C68.0131 2.92881 67.9208 5.70624 67.9208 6.85406V8.57719L72.9668 8.37031L73.3524 8.8521C73.2853 9.24321 73.1707 9.95457 73.0813 10.3684L67.9208 10.2068V11.0089C67.9208 12.3862 67.8985 14.7726 68.1248 15.0475C68.3958 15.3224 69.8236 15.5293 70.8182 15.7588L70.5695 16.9066H63.0565L62.8079 15.7588L64.8447 15.1608L64.8475 15.1665Z" fill="white"/>
<path d="M1.4826 27.1151C1.23673 27.0443 1.04115 26.9479 0.893066 26.8346L1.15291 26.2479C1.2954 26.3528 1.46583 26.4378 1.66141 26.503C1.85699 26.5682 2.05257 26.5993 2.25094 26.5993C2.46887 26.5993 2.63092 26.5653 2.7343 26.5001C2.83768 26.435 2.89076 26.3471 2.89076 26.2366C2.89076 26.1572 2.86003 26.0892 2.79856 26.0353C2.7371 25.9815 2.65886 25.939 2.56107 25.9078C2.46329 25.8766 2.33476 25.8398 2.16992 25.8029C1.91566 25.7434 1.70891 25.6811 1.54686 25.6187C1.38481 25.5592 1.2479 25.46 1.13055 25.324C1.01321 25.1879 0.957328 25.0094 0.957328 24.7855C0.957328 24.5899 1.01041 24.4114 1.11379 24.2527C1.21717 24.094 1.37643 23.9693 1.58597 23.8758C1.79552 23.7822 2.05257 23.7369 2.35711 23.7369C2.56946 23.7369 2.77621 23.7624 2.98017 23.8134C3.18134 23.8644 3.36015 23.9381 3.51103 24.0345L3.27354 24.6268C2.9662 24.4511 2.65886 24.3632 2.35153 24.3632C2.13639 24.3632 1.97713 24.3972 1.87375 24.4681C1.77038 24.5389 1.72009 24.6325 1.72009 24.7458C1.72009 24.8592 1.77876 24.947 1.8989 25.0037C2.01904 25.0604 2.19786 25.1143 2.44373 25.1709C2.69798 25.2333 2.90473 25.2928 3.06679 25.3552C3.22884 25.4175 3.36574 25.5139 3.48309 25.6442C3.59764 25.7746 3.65632 25.9532 3.65632 26.1799C3.65632 26.3726 3.60323 26.5483 3.49706 26.707C3.39089 26.8657 3.23163 26.9904 3.01929 27.084C2.80694 27.1775 2.5499 27.2228 2.24535 27.2228C1.98272 27.2228 1.72847 27.186 1.4826 27.1151Z" fill="white"/>
<path d="M4.65381 23.7964H5.42215V27.1661H4.65381V23.7964Z" fill="white"/>
<path d="M7.01482 27.1151C6.76895 27.0443 6.57337 26.9479 6.42529 26.8346L6.68513 26.2479C6.82763 26.3528 6.99806 26.4378 7.19364 26.503C7.38922 26.5682 7.5848 26.5993 7.78317 26.5993C8.0011 26.5993 8.16315 26.5653 8.26653 26.5001C8.36991 26.435 8.42299 26.3471 8.42299 26.2366C8.42299 26.1572 8.39226 26.0892 8.33079 26.0353C8.26932 25.9815 8.19109 25.939 8.0933 25.9078C7.99551 25.8766 7.86699 25.8398 7.70214 25.8029C7.44789 25.7434 7.24114 25.6811 7.07909 25.6187C6.91703 25.5592 6.78013 25.46 6.66278 25.324C6.54543 25.1879 6.48955 25.0094 6.48955 24.7855C6.48955 24.5899 6.54264 24.4114 6.64602 24.2527C6.74939 24.094 6.90865 23.9693 7.1182 23.8758C7.32775 23.7822 7.5848 23.7369 7.88934 23.7369C8.10168 23.7369 8.30844 23.7624 8.5124 23.8134C8.71357 23.8644 8.89238 23.9381 9.04326 24.0345L8.80577 24.6268C8.49843 24.4511 8.19109 24.3632 7.88375 24.3632C7.66862 24.3632 7.50936 24.3972 7.40598 24.4681C7.3026 24.5389 7.25231 24.6325 7.25231 24.7458C7.25231 24.8592 7.31099 24.947 7.43113 25.0037C7.55127 25.0604 7.73008 25.1143 7.97595 25.1709C8.23021 25.2333 8.43696 25.2928 8.59901 25.3552C8.76106 25.4175 8.89797 25.5139 9.01532 25.6442C9.12987 25.7746 9.18854 25.9532 9.18854 26.1799C9.18854 26.3726 9.13546 26.5483 9.02929 26.707C8.92311 26.8657 8.76386 26.9904 8.55151 27.084C8.33917 27.1775 8.08213 27.2228 7.77758 27.2228C7.51495 27.2228 7.26069 27.186 7.01482 27.1151Z" fill="white"/>
<path d="M10.8286 24.4312H9.76685V23.7964H12.6614V24.4312H11.5969V27.1661H10.8286V24.4312Z" fill="white"/>
<path d="M16.1204 26.5398V27.1661H13.5471V23.7964H16.0589V24.4227H14.3127V25.1539H15.8549V25.7604H14.3127V26.5398H16.1204Z" fill="white"/>
<path d="M20.2304 27.1661L20.2248 25.1454L19.2469 26.8119H18.9004L17.9281 25.1879V27.1661H17.2073V23.7964H17.8443L19.0876 25.8908L20.3114 23.7964H20.9428L20.9512 27.1661H20.2304Z" fill="white"/>
<path d="M24.4046 26.4434H22.8623L22.5689 27.1661H21.781L23.2618 23.7964H24.0218L25.5082 27.1661H24.7007L24.4073 26.4434H24.4046ZM24.1615 25.8511L23.6334 24.5616L23.1054 25.8511H24.1587H24.1615Z" fill="white"/>
<path d="M31.1911 23.7964V27.1661H30.5596L28.9028 25.1199V27.1661H28.1428V23.7964H28.7799L30.4311 25.8426V23.7964H31.1911Z" fill="white"/>
<path d="M34.6416 26.4434H33.0993L32.806 27.1661H32.0181L33.4989 23.7964H34.2588L35.7452 27.1661H34.9378L34.6444 26.4434H34.6416ZM34.3985 25.8511L33.8733 24.5616L33.3452 25.8511H34.3985Z" fill="white"/>
<path d="M37.187 26.9989C36.9132 26.8487 36.698 26.6418 36.5416 26.3783C36.3851 26.1147 36.3069 25.8143 36.3069 25.4799C36.3069 25.1454 36.3851 24.8478 36.5416 24.5814C36.698 24.3179 36.9132 24.111 37.187 23.9608C37.4608 23.8106 37.7681 23.7369 38.109 23.7369C38.3968 23.7369 38.6566 23.7879 38.8885 23.8899C39.1204 23.9919 39.316 24.1393 39.4753 24.332L38.9807 24.794C38.7572 24.5304 38.4778 24.4001 38.1453 24.4001C37.9386 24.4001 37.757 24.4454 37.5949 24.5361C37.4329 24.6268 37.3071 24.7543 37.2177 24.9187C37.1283 25.0831 37.0836 25.2673 37.0836 25.477C37.0836 25.6867 37.1283 25.871 37.2177 26.0353C37.3071 26.1997 37.4329 26.3273 37.5949 26.4179C37.757 26.5086 37.9386 26.554 38.1453 26.554C38.4778 26.554 38.7572 26.4208 38.9807 26.1544L39.4753 26.6163C39.316 26.8119 39.1204 26.9621 38.8857 27.0641C38.651 27.1662 38.3912 27.2172 38.1034 27.2172C37.7653 27.2172 37.458 27.1435 37.1842 26.9933L37.187 26.9989Z" fill="white"/>
<path d="M40.47 23.7964H41.2383V27.1661H40.47V23.7964Z" fill="white"/>
<path d="M43.1774 26.9961C42.9008 26.8459 42.6829 26.6362 42.5264 26.3726C42.37 26.109 42.2917 25.8114 42.2917 25.4799C42.2917 25.1483 42.37 24.8507 42.5264 24.5871C42.6829 24.3235 42.9008 24.1138 43.1774 23.9636C43.454 23.8134 43.7642 23.7369 44.1106 23.7369C44.4571 23.7369 44.7644 23.8134 45.041 23.9636C45.3176 24.1138 45.5328 24.3235 45.692 24.5871C45.8513 24.8507 45.9295 25.1483 45.9295 25.4799C45.9295 25.8114 45.8513 26.109 45.692 26.3726C45.5328 26.6362 45.3176 26.8459 45.041 26.9961C44.7644 27.1463 44.4571 27.2228 44.1106 27.2228C43.7642 27.2228 43.454 27.1463 43.1774 26.9961ZM44.6415 26.4208C44.8007 26.3301 44.9237 26.2026 45.0131 26.0382C45.1025 25.8738 45.1472 25.6896 45.1472 25.4799C45.1472 25.2701 45.1025 25.0859 45.0131 24.9215C44.9237 24.7572 44.798 24.6296 44.6415 24.5389C44.4822 24.4482 44.3062 24.4029 44.1106 24.4029C43.9151 24.4029 43.7362 24.4482 43.5798 24.5389C43.4205 24.6296 43.2976 24.7572 43.2082 24.9215C43.1188 25.0859 43.0741 25.2701 43.0741 25.4799C43.0741 25.6896 43.1188 25.8738 43.2082 26.0382C43.2976 26.2026 43.4233 26.3301 43.5798 26.4208C43.739 26.5115 43.9151 26.5568 44.1106 26.5568C44.3062 26.5568 44.485 26.5115 44.6415 26.4208Z" fill="white"/>
<path d="M50.0282 23.7964V27.1661H49.3968L47.7399 25.1199V27.1661H46.98V23.7964H47.617L49.2683 25.8426V23.7964H50.0282Z" fill="white"/>
<path d="M53.4788 26.4434H51.9365L51.6431 27.1661H50.8552L52.336 23.7964H53.096L54.5824 27.1661H53.7749L53.4816 26.4434H53.4788ZM53.2357 25.8511L52.7104 24.5616L52.1824 25.8511H53.2357Z" fill="white"/>
<path d="M55.4011 23.7964H56.1695V26.5313H57.8347V27.1661H55.4011V23.7964Z" fill="white"/>
<path d="M62.763 23.9466C62.981 24.0458 63.1458 24.1875 63.2632 24.3689C63.3805 24.5503 63.4392 24.7685 63.4392 25.0179C63.4392 25.2673 63.3805 25.4798 63.2632 25.6641C63.1458 25.8483 62.9782 25.99 62.763 26.0892C62.5479 26.1884 62.2909 26.2366 61.9975 26.2366H61.3269V27.1661H60.5586V23.7964H61.9975C62.2909 23.7964 62.5479 23.8474 62.763 23.9466ZM62.4809 25.4487C62.601 25.3466 62.6625 25.2049 62.6625 25.0179C62.6625 24.8308 62.6038 24.6835 62.4809 24.5814C62.3607 24.4794 62.1847 24.4284 61.9528 24.4284H61.3269V25.5989H61.9528C62.1847 25.5989 62.3607 25.5479 62.4809 25.4458V25.4487Z" fill="white"/>
<path d="M66.4819 26.4434H64.9397L64.6463 27.1661H63.8584L65.3392 23.7964H66.0992L67.5856 27.1661H66.7781L66.4847 26.4434H66.4819ZM66.2417 25.8511L65.7164 24.5616L65.1883 25.8511H66.2417Z" fill="white"/>
<path d="M70.522 27.1661L69.8822 26.2281H69.1753V27.1661H68.407V23.7964H69.8459C70.1393 23.7964 70.3963 23.8474 70.6114 23.9466C70.8294 24.0458 70.9942 24.1875 71.1116 24.3689C71.2289 24.5531 71.2876 24.7685 71.2876 25.0179C71.2876 25.2673 71.2289 25.4827 71.1088 25.6641C70.9914 25.8454 70.821 25.9843 70.6031 26.0807L71.3491 27.1633H70.522V27.1661ZM70.3265 24.5843C70.2063 24.4822 70.0303 24.4312 69.8012 24.4312H69.1753V25.6074H69.8012C70.0331 25.6074 70.2091 25.5564 70.3265 25.4543C70.4466 25.3523 70.5081 25.2078 70.5081 25.0207C70.5081 24.8337 70.4494 24.6863 70.3265 24.5843Z" fill="white"/>
<path d="M74.5567 26.4434H73.0144L72.721 27.1661H71.9331L73.4139 23.7964H74.1739L75.6603 27.1661H74.8528L74.5594 26.4434H74.5567ZM74.3136 25.8511L73.7855 24.5616L73.2575 25.8511H74.3108H74.3136Z" fill="white"/>
<path d="M2.91603 32.1004V32.7267H0.342773V29.3569H2.85456V29.9833H1.10832V30.7145H2.6506V31.321H1.10832V32.1004H2.91603Z" fill="white"/>
<path d="M4.00293 29.3569H4.77127V32.0919H6.43649V32.7267H4.00293V29.3569Z" fill="white"/>
<path d="M9.16064 29.3569H10.6694C11.0298 29.3569 11.3483 29.4278 11.6249 29.5667C11.9015 29.7055 12.1167 29.9039 12.2703 30.1562C12.424 30.4084 12.4995 30.706 12.4995 31.0432C12.4995 31.3805 12.424 31.6752 12.2703 31.9275C12.1167 32.1797 11.9015 32.3781 11.6249 32.517C11.3483 32.6558 11.0298 32.7267 10.6694 32.7267H9.16064V29.3569ZM10.6331 32.0862C10.9656 32.0862 11.231 31.9927 11.4294 31.8056C11.6277 31.6186 11.7255 31.3635 11.7255 31.0432C11.7255 30.723 11.6277 30.4679 11.4294 30.2809C11.231 30.0938 10.9656 30.0003 10.6331 30.0003H9.93178V32.089H10.6331V32.0862Z" fill="white"/>
<path d="M16.1287 32.1004V32.7267H13.5554V29.3569H16.0672V29.9833H14.321V30.7145H15.8632V31.321H14.321V32.1004H16.1287Z" fill="white"/>
<path d="M17.5454 32.6757C17.2996 32.6048 17.104 32.5085 16.9531 32.3951L17.213 31.8084C17.3555 31.9133 17.5259 31.9983 17.7215 32.0635C17.917 32.1287 18.1126 32.1599 18.311 32.1599C18.5289 32.1599 18.691 32.1259 18.7944 32.0607C18.8977 31.9955 18.9508 31.9076 18.9508 31.7971C18.9508 31.7178 18.9201 31.6497 18.8586 31.5959C18.7972 31.542 18.7189 31.4995 18.6211 31.4684C18.5233 31.4372 18.3948 31.4003 18.23 31.3635C17.9757 31.304 17.769 31.2416 17.6069 31.1793C17.4449 31.1198 17.308 31.0206 17.1906 30.8845C17.0761 30.7485 17.0174 30.5699 17.0174 30.346C17.0174 30.1505 17.0705 29.9719 17.1738 29.8132C17.2772 29.6545 17.4365 29.5298 17.646 29.4363C17.8556 29.3428 18.1126 29.2974 18.4172 29.2974C18.6295 29.2974 18.8363 29.3229 19.0402 29.3739C19.2414 29.425 19.4202 29.4986 19.5711 29.595L19.3336 30.1873C19.0263 30.0116 18.7189 29.9238 18.4116 29.9238C18.1964 29.9238 18.0372 29.9578 17.9338 30.0286C17.8304 30.0995 17.7801 30.193 17.7801 30.3064C17.7801 30.4197 17.8388 30.5076 17.959 30.5643C18.0791 30.621 18.2579 30.6748 18.501 30.7315C18.7552 30.7938 18.962 30.8533 19.1241 30.9157C19.2861 30.9781 19.423 31.0744 19.5404 31.2048C19.6549 31.3351 19.7136 31.5137 19.7136 31.7404C19.7136 31.9331 19.6605 32.1089 19.5543 32.2676C19.4482 32.4263 19.2889 32.551 19.0766 32.6445C18.8642 32.738 18.6072 32.7834 18.3026 32.7834C18.04 32.7834 17.7857 32.7465 17.5399 32.6757H17.5454Z" fill="white"/>
<path d="M22.907 32.004H21.3647L21.0714 32.7267H20.2834L21.7643 29.3569H22.5242L24.0106 32.7267H23.2032L22.9098 32.004H22.907ZM22.6639 31.4117L22.1359 30.1221L21.6078 31.4117H22.6611H22.6639Z" fill="white"/>
<path d="M26.9444 32.7267L26.3046 31.7886H25.5977V32.7267H24.8293V29.3569H26.2682C26.5616 29.3569 26.8187 29.4079 27.0338 29.5071C27.2517 29.6063 27.4166 29.748 27.5339 29.9294C27.6513 30.1108 27.7099 30.329 27.7099 30.5784C27.7099 30.8278 27.6513 31.0432 27.5311 31.2246C27.4138 31.406 27.2433 31.5449 27.0254 31.6412L27.7714 32.7239H26.9444V32.7267ZM26.7516 30.1448C26.6315 30.0428 26.4554 29.9918 26.2235 29.9918H25.5977V31.1679H26.2235C26.4554 31.1679 26.6315 31.1169 26.7516 31.0149C26.8717 30.9129 26.9332 30.7683 26.9332 30.5813C26.9332 30.3942 26.8745 30.2468 26.7516 30.1448Z" fill="white"/>
<path d="M30.909 32.7267L30.2692 31.7886H29.5623V32.7267H28.7939V29.3569H30.2328C30.5262 29.3569 30.7833 29.4079 30.9984 29.5071C31.2163 29.6063 31.3812 29.748 31.4985 29.9294C31.6159 30.1136 31.6745 30.329 31.6745 30.5784C31.6745 30.8278 31.6159 31.0432 31.4957 31.2246C31.3784 31.406 31.2079 31.5449 30.99 31.6412L31.736 32.7239H30.909V32.7267ZM30.7134 30.1448C30.5933 30.0428 30.4172 29.9918 30.1881 29.9918H29.5623V31.1679H30.1881C30.42 31.1679 30.5961 31.1169 30.7134 31.0149C30.8336 30.9129 30.895 30.7683 30.895 30.5813C30.895 30.3942 30.8363 30.2468 30.7134 30.1448Z" fill="white"/>
<path d="M33.4291 32.5566C33.1525 32.4064 32.9346 32.1967 32.7782 31.9331C32.6217 31.6696 32.5435 31.372 32.5435 31.0404C32.5435 30.7088 32.6217 30.4112 32.7782 30.1477C32.9346 29.8841 33.1525 29.6744 33.4291 29.5242C33.7058 29.3739 34.0159 29.2974 34.3623 29.2974C34.7088 29.2974 35.0161 29.3739 35.2927 29.5242C35.5693 29.6744 35.7845 29.8841 35.9437 30.1477C36.103 30.4112 36.1812 30.7088 36.1812 31.0404C36.1812 31.372 36.103 31.6696 35.9437 31.9331C35.7845 32.1967 35.5693 32.4064 35.2927 32.5566C35.0161 32.7069 34.7088 32.7834 34.3623 32.7834C34.0159 32.7834 33.7058 32.7069 33.4291 32.5566ZM34.896 31.9813C35.0552 31.8906 35.1782 31.7631 35.2676 31.5987C35.357 31.4343 35.4017 31.2501 35.4017 31.0404C35.4017 30.8307 35.357 30.6465 35.2676 30.4821C35.1782 30.3177 35.0525 30.1902 34.896 30.0995C34.7367 30.0088 34.5607 29.9634 34.3651 29.9634C34.1696 29.9634 33.9907 30.0088 33.8343 30.0995C33.675 30.1902 33.5521 30.3177 33.4627 30.4821C33.3733 30.6465 33.3286 30.8307 33.3286 31.0404C33.3286 31.2501 33.3733 31.4343 33.4627 31.5987C33.5521 31.7631 33.6778 31.8906 33.8343 31.9813C33.9935 32.072 34.1696 32.1174 34.3651 32.1174C34.5607 32.1174 34.7395 32.072 34.896 31.9813Z" fill="white"/>
<path d="M37.2346 29.3569H38.003V32.0919H39.6682V32.7267H37.2346V29.3569Z" fill="white"/>
<path d="M40.5762 29.3569H41.3445V32.0919H43.0097V32.7267H40.5762V29.3569Z" fill="white"/>
<path d="M44.5351 32.5566C44.2585 32.4064 44.0406 32.1967 43.8841 31.9331C43.7276 31.6696 43.6494 31.372 43.6494 31.0404C43.6494 30.7088 43.7276 30.4112 43.8841 30.1477C44.0406 29.8841 44.2585 29.6744 44.5351 29.5242C44.8117 29.3739 45.1218 29.2974 45.4683 29.2974C45.8147 29.2974 46.1221 29.3739 46.3987 29.5242C46.6753 29.6744 46.8904 29.8841 47.0497 30.1477C47.2089 30.4112 47.2872 30.7088 47.2872 31.0404C47.2872 31.372 47.2089 31.6696 47.0497 31.9331C46.8904 32.1967 46.6753 32.4064 46.3987 32.5566C46.1221 32.7069 45.812 32.7834 45.4683 32.7834C45.1246 32.7834 44.8117 32.7069 44.5351 32.5566ZM46.0019 31.9813C46.1612 31.8906 46.2841 31.7631 46.3735 31.5987C46.463 31.4343 46.5077 31.2501 46.5077 31.0404C46.5077 30.8307 46.463 30.6465 46.3735 30.4821C46.2841 30.3177 46.1584 30.1902 46.0019 30.0995C45.8427 30.0088 45.6667 29.9634 45.4711 29.9634C45.2755 29.9634 45.0967 30.0088 44.9402 30.0995C44.781 30.1902 44.658 30.3177 44.5686 30.4821C44.4792 30.6465 44.4345 30.8307 44.4345 31.0404C44.4345 31.2501 44.4792 31.4343 44.5686 31.5987C44.658 31.7631 44.7838 31.8906 44.9402 31.9813C45.0995 32.072 45.2755 32.1174 45.4711 32.1174C45.6667 32.1174 45.8455 32.072 46.0019 31.9813Z" fill="white"/>
<path d="M50.1594 29.3569H50.9278V32.7267H50.1594V29.3569Z" fill="white"/>
<path d="M55.2362 29.3569V32.7267H54.6048L52.948 30.6805V32.7267H52.188V29.3569H52.825L54.4763 31.4032V29.3569H55.2362Z" fill="white"/>
<path d="M57.1865 29.9918H56.1248V29.3569H59.0193V29.9918H57.9548V32.7267H57.1865V29.9918Z" fill="white"/>
<path d="M62.478 32.1004V32.7267H59.9048V29.3569H62.4166V29.9833H60.6703V30.7145H62.2126V31.321H60.6703V32.1004H62.478Z" fill="white"/>
<path d="M65.803 30.9894H66.5043V32.3554C66.3227 32.4943 66.1159 32.5992 65.8784 32.6728C65.6409 32.7465 65.4034 32.7834 65.1632 32.7834C64.8167 32.7834 64.5094 32.7097 64.2328 32.5595C63.9561 32.4093 63.741 32.2024 63.5846 31.9388C63.4281 31.6752 63.3499 31.3748 63.3499 31.0404C63.3499 30.706 63.4281 30.4084 63.5846 30.142C63.741 29.8784 63.9589 29.6715 64.2383 29.5213C64.5177 29.3711 64.8307 29.2974 65.1771 29.2974C65.4677 29.2974 65.7331 29.3456 65.9706 29.4476C66.2081 29.5468 66.4065 29.6914 66.5685 29.8812L66.074 30.3432C65.8365 30.091 65.5515 29.9634 65.2162 29.9634C65.0039 29.9634 64.8167 30.0088 64.6519 30.0995C64.487 30.1902 64.3585 30.3149 64.2663 30.4792C64.1741 30.6436 64.1294 30.8307 64.1294 31.0432C64.1294 31.2558 64.1741 31.4372 64.2663 31.6016C64.3585 31.7659 64.4842 31.8935 64.6491 31.9842C64.8111 32.0748 64.9983 32.1202 65.2079 32.1202C65.4286 32.1202 65.6297 32.072 65.8058 31.9757V30.9894H65.803Z" fill="white"/>
<path d="M69.8067 32.7267L69.1669 31.7886H68.46V32.7267H67.6917V29.3569H69.1305C69.4239 29.3569 69.681 29.4079 69.8961 29.5071C70.114 29.6063 70.2789 29.748 70.3962 29.9294C70.5136 30.1108 70.5722 30.329 70.5722 30.5784C70.5722 30.8278 70.5136 31.0432 70.3934 31.2246C70.2761 31.406 70.1057 31.5449 69.8877 31.6412L70.6337 32.7239H69.8067V32.7267ZM69.6139 30.1448C69.4938 30.0428 69.3177 29.9918 69.0858 29.9918H68.46V31.1679H69.0858C69.3177 31.1679 69.4938 31.1169 69.6139 31.0149C69.734 30.9129 69.7955 30.7683 69.7955 30.5813C69.7955 30.3942 69.7368 30.2468 69.6139 30.1448Z" fill="white"/>
<path d="M73.8413 32.004H72.299L72.0057 32.7267H71.2178L72.6986 29.3569H73.4586L74.945 32.7267H74.1375L73.8441 32.004H73.8413ZM73.5983 31.4117L73.073 30.1221L72.5449 31.4117H73.5983Z" fill="white"/>
<path d="M75.7637 29.3569H76.532V32.0919H78.1972V32.7267H75.7637V29.3569Z" fill="white"/>
<path d="M18.1377 34.9174H19.6464C20.0069 34.9174 20.3254 34.9883 20.602 35.1271C20.8786 35.266 21.0937 35.4644 21.2474 35.7166C21.4011 35.9689 21.4765 36.2665 21.4765 36.6037C21.4765 36.941 21.3983 37.2357 21.2474 37.488C21.0937 37.7402 20.8786 37.9386 20.602 38.0774C20.3254 38.2163 20.0069 38.2872 19.6464 38.2872H18.1377V34.9174ZM19.6101 37.6467C19.9426 37.6467 20.208 37.5531 20.4064 37.3661C20.6048 37.179 20.7026 36.924 20.7026 36.6037C20.7026 36.2835 20.6048 36.0284 20.4064 35.8413C20.208 35.6543 19.9426 35.5608 19.6101 35.5608H18.9088V37.6495H19.6101V37.6467Z" fill="white"/>
<path d="M25.1057 37.6608V38.2872H22.5325V34.9174H25.0443V35.5438H23.298V36.275H24.8403V36.8815H23.298V37.6608H25.1057Z" fill="white"/>
<path d="M28.0115 34.9174H28.7798V37.6523H30.445V38.2872H28.0115V34.9174Z" fill="white"/>
<path d="M33.5689 37.5645H32.0266L31.7332 38.2872H30.9453L32.4261 34.9174H33.1861L34.6725 38.2872H33.865L33.5717 37.5645H33.5689ZM33.3258 36.9721L32.8005 35.6826L32.2725 36.9721H33.3258Z" fill="white"/>
<path d="M38.0784 35.5438V36.4337H39.6151V37.06H38.0784V38.2872H37.3101V34.9174H39.8218V35.5438H38.0812H38.0784Z" fill="white"/>
<path d="M42.8672 37.5645H41.3249L41.0316 38.2872H40.2437L41.7245 34.9174H42.4844L43.9708 38.2872H43.1634L42.87 37.5645H42.8672ZM42.6241 36.9721L42.0961 35.6826L41.568 36.9721H42.6213H42.6241Z" fill="white"/>
<path d="M47.8126 38.2872L47.8071 36.2665L46.8292 37.9329H46.4827L45.5104 36.309V38.2872H44.7896V34.9174H45.4266L46.6699 37.0118L47.8937 34.9174H48.5251L48.5335 38.2872H47.8126Z" fill="white"/>
<path d="M49.7964 34.9174H50.5647V38.2872H49.7964V34.9174Z" fill="white"/>
<path d="M51.8274 34.9174H52.5957V37.6523H54.261V38.2872H51.8274V34.9174Z" fill="white"/>
<path d="M55.1692 34.9174H55.9375V38.2872H55.1692V34.9174Z" fill="white"/>
<path d="M59.388 37.5645H57.8457L57.5523 38.2872H56.7644L58.2452 34.9174H59.0052L60.4916 38.2872H59.6841L59.3907 37.5645H59.388ZM59.1449 36.9721L58.6196 35.6826L58.0915 36.9721H59.1449Z" fill="white"/>
<path d="M22.3621 45.2477H56.1776" stroke="white" stroke-width="1.79" stroke-miterlimit="10"/>
</g>
<defs>
<clipPath id="clip0_35_4246">
<rect width="77.8571" height="45" fill="white" transform="translate(0.342773 0.5)"/>
</clipPath>
</defs>
</svg>
