<svg width="165" height="30" viewBox="0 0 165 30" fill="none" xmlns="http://www.w3.org/2000/svg">
<mask id="mask0_805_953" style="mask-type:luminance" maskUnits="userSpaceOnUse" x="0" y="0" width="165" height="30">
<path d="M164.053 0.0528564H0.0620117V29.9471H164.053V0.0528564Z" fill="white"/>
</mask>
<g mask="url(#mask0_805_953)">
<path d="M22.3205 22.2942C22.6365 19.0998 21.9874 17.0414 21.1589 15.1281C19.6983 12.0874 17.8449 10.5244 21.1845 6.82605C16.316 10.4048 16.7687 10.5842 18.0328 12.4547C19.314 14.1203 21.7226 17.8699 22.3119 22.2942H22.3205Z" fill="white"/>
<path d="M2.68505 11.6514C3.1719 11.3182 3.65021 11.1218 3.90645 11.1218C4.17977 11.2499 4.41038 11.5489 4.6837 11.7026C4.76057 11.7538 4.83744 11.7966 4.93139 11.7966C5.20471 11.7026 5.79406 11.1901 6.17841 10.857C6.28091 10.7716 6.28091 10.7545 6.15279 10.7374C5.77697 10.6947 4.92285 10.7118 4.26518 10.7374C4.22247 10.6947 4.21393 10.6435 4.25664 10.5922C6.22112 8.93524 9.3045 10.0029 12.6185 9.24273C13.0028 9.53313 11.585 10.5752 10.0817 11.6001C10.9359 11.3695 11.8498 11.0022 12.7808 10.5495C13.8826 9.95165 15.215 9.05482 16.6414 8.06404C19.9639 5.62125 22.2786 3.23825 24.1833 2.20476C25.6524 1.58125 26.7201 1.64104 27.7194 2.42683C29.7778 4.04112 29.2226 8.73879 29.0176 10.8997C28.6162 15.3753 27.429 20.8588 25.3193 25.1123C24.2516 27.4697 21.5697 28.3921 19.5796 28.4348C21.5099 25.8298 21.7405 23.0368 20.7754 20.5513C19.5454 17.0152 15.7873 14.1198 11.1921 13.3852C8.56141 12.9496 5.92218 12.8557 3.8552 12.8984C3.5648 12.9325 3.01816 12.9582 2.95837 13.4535C2.65089 13.0436 2.4886 12.6592 2.41173 12.3774C2.3434 12.087 2.4459 11.8393 2.67651 11.6514M3.20607 4.71588C3.43668 3.38345 3.93207 2.72578 4.58975 2.34142C6.39194 1.47876 7.36564 2.20476 8.82619 3.25533C11.0298 4.80983 13.8143 7.17575 14.4976 8.0982C7.14357 9.02065 5.42678 7.70531 3.22315 10.0712C2.99254 7.58573 3.00962 5.88603 3.20607 4.6988M15.7446 28.6996C14.2755 28.8363 12.9345 28.7936 11.7985 28.6228C10.3294 28.5032 9.08243 27.7088 8.05748 26.5131C7.31439 25.471 6.6738 24.2326 6.12716 22.9258C4.77765 19.2616 3.91499 15.8622 3.67583 14.1796C3.59042 14.1796 5.11076 14.0002 6.7763 14.1283C9.12513 14.1796 12.3793 14.3418 11.1152 16.964C14.6684 14.9568 17.5553 17.69 18.5205 18.9114C18.8621 19.2103 19.8187 21.0211 19.9554 23.0453C19.9212 25.8554 18.9305 28.2555 15.7531 28.6996M3.76125 29.3061C7.75854 30.4079 20.1518 29.8271 26.1905 29.494C27.5998 29.3402 29.4191 29.3402 30.538 27.7003C30.948 27.1878 31.1529 26.607 31.4433 25.1123C31.7508 22.046 31.9131 18.7149 31.8448 14.897C31.7508 11.267 31.6654 7.06471 31.1273 4.09237C30.5721 1.31647 28.8297 0.573388 25.7976 0.359857C17.6664 -0.101369 13.7374 0.00966697 6.4859 0.325692C1.95051 0.701506 0.549747 1.78624 0.284969 7.33803C-0.0823032 13.1888 0.0116502 19.1676 0.575371 24.6767C0.857231 28.4092 2.51423 29.0327 3.76979 29.2975L3.76125 29.3061Z" fill="white"/>
<path d="M16.1623 18.1688C14.9067 17.0499 13.0704 16.4605 11.8575 17.3574C11.2084 18.0151 11.123 18.63 11.439 19.6977C11.5415 20.0137 11.6269 20.3639 11.6355 20.7055C11.6696 21.6536 10.8924 22.2259 10.4141 23.7291C10.8411 23.2423 11.9686 22.9348 12.481 23.9256C12.6946 23.8914 13.0362 23.9683 13.0618 24.4637C13.3608 23.4473 12.0967 23.8316 12.686 22.6871C11.9771 23.2508 11.9344 22.5504 11.234 22.8494C11.1828 22.6529 11.3707 22.26 11.5757 22.0038C12.8227 20.2101 14.2747 21.4999 15.0519 20.0564C13.0618 21.4572 10.9863 18.8094 12.0027 17.8528C12.7031 17.1438 14.0697 17.5624 14.7957 17.9894C15.1971 18.1688 16.2733 19.0571 16.82 20.3895C17.0848 21.0899 17.3581 23.5156 16.2221 24.6516C15.5986 25.2153 15.1971 25.3947 14.3601 25.1555C12.054 24.4808 12.259 26.4965 10.5763 25.2751C10.4482 25.7449 10.7984 26.2317 11.3792 26.4452C12.054 26.5734 12.5408 26.1634 12.8398 26.095C13.1643 25.9498 13.2925 26.1548 12.8825 26.4367C12.7287 26.5563 12.686 26.71 12.9764 26.71C13.0533 26.7613 13.3095 26.7271 13.5829 26.6929C13.8647 26.6331 14.1551 26.5819 14.3089 26.599C14.4968 26.6161 14.6078 26.7442 14.2405 26.9748C14.0868 27.0773 13.6256 27.2908 13.1729 27.3164C13.4889 27.4616 14.2405 27.5727 15.0263 27.5043C17.247 27.2396 18.1182 24.7285 18.1695 22.7213C18.1695 20.9361 17.4862 19.3816 16.1708 18.1773" fill="white"/>
<path d="M39.8897 22.8152L38.8903 23.285C38.7622 22.9946 38.5402 22.6188 38.0191 22.6188C37.6092 22.6188 37.37 22.875 37.37 23.2081C37.37 24.2245 39.9665 24.0793 39.9665 25.9926C39.9665 27.0773 39.2149 27.8631 37.9679 27.8631C36.7209 27.8631 36.1572 26.9406 35.9863 26.4367L37.0027 25.9242C37.165 26.3342 37.4981 26.71 38.0362 26.71C38.4804 26.71 38.7451 26.4709 38.7451 26.078C38.7451 25.0274 36.1657 25.1982 36.1657 23.2252C36.1657 22.1917 36.9002 21.4742 38.0448 21.4742C39.2491 21.4742 39.7445 22.3711 39.8897 22.8238V22.8152Z" fill="white"/>
<path d="M41.1196 21.5853H44.1945V22.7042H42.3239V24.0793H43.9297V25.1811H42.3239V26.6417H44.2713V27.752H41.1196V21.5853Z" fill="white"/>
<path d="M45.5269 21.5853H47.3291C48.6359 21.5853 49.3533 22.4052 49.3533 23.4216C49.3533 24.1733 48.9946 24.7455 48.448 25.053L49.8658 27.752H48.5334L47.3718 25.3434H46.7312V27.752H45.5269V21.5853ZM47.2949 24.2843C47.7305 24.2843 48.1148 24.0024 48.1148 23.4558C48.1148 22.9604 47.7817 22.6529 47.2351 22.6529H46.7312V24.2843H47.2949Z" fill="white"/>
<path d="M52.5052 27.7435L50.3015 21.5768H51.6254L53.1543 26.283L54.6832 21.5768H56.0071L53.812 27.7435H52.5052Z" fill="white"/>
<path d="M56.9294 21.5853H58.1338V27.752H56.9294V21.5853Z" fill="white"/>
<path d="M59.2612 24.6601C59.2612 22.8408 60.5766 21.4657 62.3788 21.4657C63.1731 21.4657 63.771 21.739 64.1554 22.0294L63.8137 23.1227C63.5233 22.9092 62.9852 22.6273 62.3788 22.6273C61.294 22.6273 60.5168 23.4985 60.5168 24.6601C60.5168 25.8217 61.294 26.6929 62.3788 26.6929C63.0279 26.6929 63.5831 26.394 63.8649 26.189L64.2066 27.2737C63.8479 27.547 63.25 27.8545 62.3788 27.8545C60.5083 27.8545 59.2612 26.4709 59.2612 24.6601Z" fill="white"/>
<path d="M65.3254 21.5853H66.5297V27.752H65.3254V21.5853Z" fill="white"/>
<path d="M67.6572 24.6601C67.6572 22.8665 68.9299 21.4657 70.7662 21.4657C72.6026 21.4657 73.8752 22.8665 73.8752 24.6601C73.8752 26.4538 72.6026 27.8545 70.7662 27.8545C68.9299 27.8545 67.6572 26.4709 67.6572 24.6601ZM68.9128 24.6601C68.9128 25.8388 69.69 26.6929 70.7662 26.6929C71.8424 26.6929 72.6197 25.8388 72.6197 24.6601C72.6197 23.4814 71.8424 22.6273 70.7662 22.6273C69.69 22.6273 68.9128 23.4985 68.9128 24.6601Z" fill="white"/>
<path d="M78.5217 22.8152L77.5224 23.285C77.3943 22.9946 77.1722 22.6188 76.6512 22.6188C76.2412 22.6188 76.0021 22.875 76.0021 23.2081C76.0021 24.2245 78.5986 24.0793 78.5986 25.9926C78.5986 27.0773 77.847 27.8631 76.6 27.8631C75.353 27.8631 74.7892 26.9406 74.6184 26.4367L75.6348 25.9242C75.7971 26.3342 76.1302 26.71 76.6683 26.71C77.1124 26.71 77.3772 26.4709 77.3772 26.078C77.3772 25.0274 74.7978 25.1982 74.7978 23.2252C74.7978 22.1917 75.5323 21.4742 76.6768 21.4742C77.8812 21.4742 78.3765 22.3711 78.5217 22.8238V22.8152Z" fill="white"/>
<path d="M82.1687 21.5853H84.0734C85.2435 21.5853 86.0379 22.3454 86.0379 23.507C86.0379 24.6686 85.2094 25.4544 84.0819 25.4544H83.373V27.752H82.1687V21.5853ZM83.9111 24.3782C84.4407 24.3782 84.7994 24.0281 84.7994 23.507C84.7994 22.986 84.4321 22.6615 83.9282 22.6615H83.373V24.3782H83.9111Z" fill="white"/>
<path d="M89.4802 27.8631C87.9342 27.8631 87.0715 26.8894 87.0715 25.4374V21.5938H88.2758V25.4374C88.2758 26.2232 88.7114 26.71 89.4802 26.71C90.2489 26.71 90.6845 26.2146 90.6845 25.4374V21.5938H91.8888V25.4374C91.8888 26.8894 91.0261 27.8631 89.4802 27.8631ZM88.9164 21.2522H89.8987L90.7272 19.9796H89.4887L88.9164 21.2522Z" fill="white"/>
<path d="M93.3149 21.5853H95.2111C96.3983 21.5853 97.1756 22.2174 97.1756 23.2167C97.1756 23.7804 96.8937 24.3014 96.4581 24.5406C97.0218 24.7883 97.372 25.3093 97.372 25.9413C97.372 27.1371 96.4239 27.7435 95.3221 27.7435H93.3149V21.5768V21.5853ZM95.2026 24.0708C95.6211 24.0708 95.9456 23.7804 95.9456 23.3448C95.9456 22.9092 95.6382 22.653 95.1855 22.653H94.5193V24.0708H95.2026ZM95.2453 26.6844C95.7321 26.6844 96.1165 26.3769 96.1165 25.873C96.1165 25.3691 95.7321 25.0787 95.2453 25.0787H94.5107V26.6759H95.2453V26.6844Z" fill="white"/>
<path d="M98.4995 21.5853H99.7038V26.6331H101.651V27.752H98.4995V21.5853Z" fill="white"/>
<path d="M102.685 21.5853H103.889V27.752H102.685V21.5853Z" fill="white"/>
<path d="M105.017 24.6601C105.017 22.8408 106.332 21.4657 108.134 21.4657C108.928 21.4657 109.526 21.739 109.911 22.0294L109.569 23.1227C109.279 22.9092 108.741 22.6273 108.134 22.6273C107.049 22.6273 106.272 23.4985 106.272 24.6601C106.272 25.8217 107.049 26.6929 108.134 26.6929C108.783 26.6929 109.338 26.394 109.62 26.189L109.962 27.2737C109.603 27.547 109.005 27.8545 108.134 27.8545C106.264 27.8545 105.017 26.4709 105.017 24.6601Z" fill="white"/>
<path d="M110.756 24.6601C110.756 22.8665 112.029 21.4657 113.865 21.4657C115.702 21.4657 116.974 22.8665 116.974 24.6601C116.974 26.4538 115.702 27.8545 113.865 27.8545C112.029 27.8545 110.756 26.4709 110.756 24.6601ZM112.02 24.6601C112.02 25.8388 112.798 26.6929 113.874 26.6929C114.95 26.6929 115.727 25.8388 115.727 24.6601C115.727 23.4814 114.95 22.6273 113.874 22.6273C112.798 22.6273 112.02 23.4985 112.02 24.6601Z" fill="white"/>
<path d="M121.629 22.8152L120.63 23.285C120.502 22.9946 120.28 22.6188 119.759 22.6188C119.349 22.6188 119.11 22.875 119.11 23.2081C119.11 24.2245 121.706 24.0793 121.706 25.9926C121.706 27.0773 120.954 27.8631 119.707 27.8631C118.46 27.8631 117.897 26.9406 117.726 26.4367L118.742 25.9242C118.905 26.3342 119.238 26.71 119.776 26.71C120.22 26.71 120.485 26.4709 120.485 26.078C120.485 25.0274 117.905 25.1982 117.905 23.2252C117.905 22.1917 118.64 21.4742 119.784 21.4742C120.989 21.4742 121.484 22.3711 121.629 22.8238V22.8152Z" fill="white"/>
<path d="M125.276 21.5853H126.865C128.821 21.5853 130.034 22.7383 130.034 24.6686C130.034 26.599 128.812 27.752 126.865 27.752H125.276V21.5853ZM126.908 26.6673C128.044 26.6673 128.778 25.9925 128.778 24.6601C128.778 23.3277 128.044 22.6615 126.908 22.6615H126.481V26.6673H126.908Z" fill="white"/>
<path d="M131.17 21.5853H134.245V22.7042H132.374V24.0793H133.98V25.1811H132.374V26.6417H134.321V27.752H131.17V21.5853Z" fill="white"/>
<path d="M141.513 22.8152L140.514 23.285C140.386 22.9946 140.164 22.6188 139.643 22.6188C139.233 22.6188 138.994 22.875 138.994 23.2081C138.994 24.2245 141.59 24.0793 141.59 25.9926C141.59 27.0773 140.838 27.8631 139.591 27.8631C138.344 27.8631 137.781 26.9406 137.61 26.4367L138.626 25.9242C138.789 26.3342 139.122 26.71 139.66 26.71C140.104 26.71 140.369 26.4709 140.369 26.078C140.369 25.0274 137.789 25.1982 137.789 23.2252C137.789 22.1917 138.524 21.4742 139.668 21.4742C140.873 21.4742 141.368 22.3711 141.513 22.8238V22.8152Z" fill="white"/>
<path d="M143.973 26.1634L143.452 27.7435H142.239L144.357 21.5768H145.622L147.74 27.7435H146.527L146.006 26.1634H143.973ZM144.99 22.9178L144.298 25.1385H145.69L144.99 22.9178Z" fill="white"/>
<path d="M148.679 21.5853H149.884V26.6331H151.831V27.752H148.679V21.5853Z" fill="white"/>
<path d="M152.668 25.4288V21.5853H153.872V25.4288C153.872 26.2146 154.308 26.7015 155.077 26.7015C155.845 26.7015 156.281 26.2061 156.281 25.4288V21.5853H157.485V25.4288C157.485 26.8808 156.623 27.8545 155.077 27.8545C153.531 27.8545 152.668 26.8808 152.668 25.4288Z" fill="white"/>
<path d="M158.903 21.5853H160.492C162.448 21.5853 163.661 22.7383 163.661 24.6686C163.661 26.599 162.439 27.752 160.492 27.752H158.903V21.5853ZM160.534 26.6673C161.67 26.6673 162.405 25.9925 162.405 24.6601C162.405 23.3277 161.67 22.6615 160.534 22.6615H160.107V26.6673H160.534Z" fill="white"/>
<path d="M36.0546 4.3491C36.029 3.58893 35.9949 2.82022 35.9521 2.05151C36.1486 2.07714 36.3621 2.09422 36.5842 2.1113C36.8148 2.12838 37.071 2.13693 37.3614 2.13693C37.6518 2.13693 37.9081 2.12838 38.1387 2.1113C38.3693 2.09422 38.5828 2.0686 38.7708 2.05151C38.7195 2.82022 38.6853 3.58893 38.6683 4.3491C38.6426 5.10927 38.6341 5.98047 38.6341 6.96272V9.37134C38.6341 10.3536 38.6426 11.2248 38.6683 11.985C38.6939 12.7451 38.728 13.4967 38.7708 14.2313C38.5743 14.2057 38.3608 14.1971 38.1387 14.1971H36.5927C36.3621 14.1971 36.1486 14.2057 35.9607 14.2313C36.0034 13.4967 36.0461 12.7537 36.0632 11.985C36.0888 11.2248 36.0973 10.3536 36.0973 9.37134V6.96272C36.0973 5.98047 36.0888 5.10927 36.0632 4.3491H36.0546Z" fill="white"/>
<path d="M42.7084 10.2596C42.6145 11.5835 42.5205 12.9074 42.4351 14.2313C42.2984 14.2057 42.1618 14.1971 42.0251 14.1971H41.2222C41.0856 14.1971 40.9575 14.2057 40.8208 14.2313C41.1881 12.1985 41.5126 10.1742 41.803 8.16703C42.0849 6.15984 42.3497 4.11849 42.5974 2.05151C42.7255 2.07714 42.8451 2.09422 42.9476 2.1113C43.0586 2.12838 43.1782 2.13693 43.2978 2.13693C43.4002 2.13693 43.5113 2.12838 43.6223 2.1113C43.7419 2.09422 43.8529 2.0686 43.9811 2.05151C44.2885 2.76044 44.6131 3.4779 44.9548 4.21244C45.2879 4.94699 45.6295 5.67299 45.9712 6.399C46.3043 7.125 46.6459 7.84246 46.9876 8.5343C47.3207 9.23468 47.6538 9.89236 47.9613 10.5244C48.6446 9.20052 49.3364 7.81684 50.0197 6.36483C50.703 4.92136 51.3521 3.4779 51.9671 2.05151C52.249 2.1113 52.4966 2.13693 52.7102 2.13693C52.9066 2.13693 53.1458 2.1113 53.4362 2.05151C53.5558 3.06792 53.6753 4.1612 53.8035 5.33134C53.9401 6.50149 54.0682 7.64601 54.1878 8.76491C54.3159 9.88382 54.4355 10.9258 54.5636 11.891C54.6917 12.8647 54.8028 13.642 54.9053 14.2313C54.6747 14.2057 54.444 14.1971 54.2049 14.1971H52.8041C52.565 14.1971 52.3173 14.2057 52.0781 14.2313C52.0183 13.0184 51.9244 11.6946 51.7963 10.2767C51.6596 8.85887 51.5315 7.44957 51.3948 6.05735H51.3607C50.7115 7.44957 50.0624 8.8247 49.4304 10.1742C48.7983 11.5237 48.1748 12.8732 47.5598 14.2398C47.5 14.2313 47.4488 14.2228 47.3975 14.2142C47.3463 14.2142 47.295 14.2057 47.2353 14.2057C47.1755 14.2057 47.1242 14.2057 47.073 14.2142C47.0217 14.2142 46.9705 14.2313 46.9107 14.2398C46.2957 12.9159 45.6808 11.5921 45.0572 10.2682C44.4423 8.94428 43.8102 7.60331 43.1526 6.24525H43.1184C42.939 7.60331 42.8024 8.94428 42.7084 10.2682H42.6913L42.7084 10.2596Z" fill="white"/>
<path d="M60.0298 2.92275C59.5002 2.92275 59.0732 3.08503 58.7401 3.40106C58.407 3.71708 58.2361 4.0929 58.2361 4.51996C58.2361 4.94702 58.3643 5.31429 58.6205 5.59615C58.8767 5.86947 59.2013 6.12571 59.5942 6.34778C59.9871 6.56985 60.4056 6.79192 60.8498 6.99691C61.3024 7.2019 61.721 7.45814 62.1053 7.75708C62.4982 8.05602 62.8228 8.4233 63.079 8.8589C63.3353 9.28596 63.4634 9.84114 63.4634 10.5159C63.4634 11.1052 63.3523 11.6519 63.1388 12.1387C62.9253 12.6256 62.6093 13.0526 62.2078 13.3943C61.8064 13.7445 61.3281 14.0093 60.7729 14.1972C60.2177 14.3765 59.5942 14.4705 58.9024 14.4705C58.2874 14.4705 57.7322 14.4022 57.2454 14.2655C56.7585 14.1288 56.3912 13.958 56.135 13.7616C56.2546 13.3516 56.3485 12.9672 56.4254 12.6256C56.5108 12.2839 56.5792 11.9081 56.6304 11.5067H56.955C56.9977 11.7629 57.0916 12.0106 57.2112 12.2412C57.3393 12.4718 57.4931 12.6768 57.6981 12.8562C57.8945 13.0356 58.1251 13.1722 58.3984 13.2747C58.6718 13.3772 58.9792 13.4285 59.3294 13.4285C60.0127 13.4285 60.5252 13.2491 60.8498 12.8989C61.1743 12.5487 61.3366 12.1216 61.3366 11.6263C61.3366 11.1736 61.2085 10.8063 60.9608 10.5244C60.7131 10.2426 60.3971 9.98634 60.0127 9.77281C59.6369 9.55928 59.2184 9.34575 58.7742 9.13222C58.3216 8.92723 57.9116 8.67099 57.5358 8.38059C57.16 8.09019 56.8439 7.72292 56.5877 7.28731C56.3315 6.85171 56.2119 6.30507 56.2119 5.63032C56.2119 5.01535 56.3144 4.46871 56.5279 3.99894C56.7414 3.52917 57.0233 3.12774 57.382 2.81171C57.7408 2.49569 58.1507 2.24799 58.612 2.08571C59.0817 1.92343 59.5686 1.83801 60.0811 1.83801C60.696 1.83801 61.2427 1.91488 61.7039 2.06863C62.1737 2.22237 62.5665 2.4359 62.8997 2.70922C62.7972 2.98254 62.7032 3.24731 62.6349 3.49501C62.558 3.75125 62.4641 4.06727 62.353 4.46017H62.0968C61.7295 3.44376 61.0377 2.93983 60.0127 2.93983H59.9956L60.0298 2.92275Z" fill="white"/>
<path d="M68.6309 2.92275C68.1013 2.92275 67.6743 3.08503 67.3412 3.40106C67.008 3.71708 66.8372 4.0929 66.8372 4.51996C66.8372 4.94702 66.9653 5.31429 67.2216 5.59615C67.4778 5.86947 67.8024 6.12571 68.1953 6.34778C68.5882 6.56985 69.0067 6.79192 69.4508 6.99691C69.9035 7.2019 70.322 7.45814 70.7064 7.75708C71.0993 8.05602 71.4239 8.4233 71.6801 8.8589C71.9363 9.28596 72.0645 9.84114 72.0645 10.5159C72.0645 11.1052 71.9534 11.6519 71.7399 12.1387C71.5264 12.6256 71.2103 13.0526 70.8089 13.3943C70.4075 13.7445 69.9291 14.0093 69.374 14.1972C68.8188 14.3765 68.1953 14.4705 67.5034 14.4705C66.8885 14.4705 66.3333 14.4022 65.8464 14.2655C65.3596 14.1288 64.9923 13.958 64.7361 13.7616C64.8557 13.3516 64.9496 12.9672 65.0265 12.6256C65.1119 12.2839 65.1802 11.9081 65.2315 11.5067H65.556C65.5987 11.7629 65.6927 12.0106 65.8123 12.2412C65.9404 12.4718 66.0941 12.6768 66.2991 12.8562C66.4956 13.0356 66.7262 13.1722 66.9995 13.2747C67.2728 13.3772 67.5803 13.4285 67.9305 13.4285C68.6138 13.4285 69.1263 13.2491 69.4508 12.8989C69.7754 12.5487 69.9377 12.1216 69.9377 11.6263C69.9377 11.1736 69.8096 10.8063 69.5619 10.5244C69.3142 10.2426 68.9982 9.98634 68.6138 9.77281C68.238 9.55928 67.8195 9.34575 67.3753 9.13222C66.9226 8.92723 66.5127 8.67099 66.1368 8.38059C65.761 8.09019 65.445 7.72292 65.1888 7.28731C64.9325 6.85171 64.813 6.30507 64.813 5.63032C64.813 5.01535 64.9154 4.46871 65.129 3.99894C65.3425 3.52917 65.6244 3.12774 65.9831 2.81171C66.3418 2.49569 66.7518 2.24799 67.213 2.08571C67.6828 1.92343 68.1697 1.83801 68.6821 1.83801C69.2971 1.83801 69.8437 1.91488 70.305 2.06863C70.7747 2.22237 71.1676 2.4359 71.5007 2.70922C71.3982 2.98254 71.3043 3.24731 71.236 3.49501C71.1591 3.75125 71.0651 4.06727 70.9541 4.46017H70.6979C70.3306 3.44376 69.6387 2.93983 68.6138 2.93983H68.5967L68.6309 2.92275Z" fill="white"/>
<path d="M77.7188 9.33716V11.2931H73.4312V9.33716H77.7188Z" fill="white"/>
<path d="M79.9736 6.96272C79.9736 5.98047 79.965 5.10927 79.9394 4.3491C79.9138 3.58893 79.8796 2.82022 79.8369 2.05151C80.0334 2.07714 80.2469 2.09422 80.469 2.1113C80.6996 2.12838 80.9558 2.13693 81.2462 2.13693C81.7416 2.13693 82.2541 2.11984 82.7922 2.09422C83.3303 2.0686 83.8427 2.05151 84.3381 2.05151C84.8335 2.05151 85.3204 2.10276 85.7474 2.2138C86.1745 2.31629 86.5418 2.48712 86.8493 2.70065C87.1567 2.91418 87.3959 3.20458 87.5667 3.55477C87.729 3.90496 87.8144 4.31494 87.8144 4.80179C87.8144 5.28864 87.7205 5.69861 87.524 6.0488C87.3276 6.39899 87.0884 6.6894 86.8065 6.92001C86.5247 7.15062 86.2257 7.32999 85.8926 7.45811C85.5681 7.58622 85.2691 7.67164 85.0043 7.72288V7.75705C85.2691 7.76559 85.5766 7.83392 85.9353 7.94495C86.2941 8.05599 86.6272 8.23536 86.9518 8.46597C87.2678 8.70512 87.5496 9.00407 87.7717 9.37988C87.9938 9.74715 88.1048 10.1998 88.1048 10.7379C88.1048 11.3785 87.9938 11.9166 87.7717 12.3693C87.5496 12.822 87.2507 13.1893 86.8749 13.4711C86.4991 13.753 86.072 13.9494 85.5937 14.0605C85.1068 14.1715 84.6115 14.2313 84.099 14.2313C83.6378 14.2313 83.2107 14.2313 82.8178 14.2142C82.4249 14.2057 82.0064 14.1971 81.5708 14.1971H80.6142C80.2896 14.1971 80.0248 14.2057 79.8284 14.2313C79.8711 13.4967 79.9138 12.7537 79.9309 11.985C79.9565 11.2248 79.965 10.3536 79.965 9.37134V6.96272H79.9736ZM85.2691 5.13489C85.2691 4.85303 85.235 4.57972 85.1752 4.33202C85.1068 4.07578 85.0043 3.86225 84.8591 3.67435C84.7054 3.49498 84.5175 3.34124 84.2954 3.2302C84.0734 3.11917 83.7744 3.05938 83.4328 3.05938C83.1851 3.05938 83.0057 3.05938 82.9118 3.06792C82.8093 3.06792 82.7068 3.085 82.5957 3.11062C82.5701 3.54623 82.553 3.99037 82.5445 4.43451C82.5359 4.8872 82.5274 5.26301 82.5274 5.5705C82.5274 5.87798 82.5274 6.19401 82.5359 6.48441C82.5359 6.77481 82.5445 7.07375 82.5445 7.38123H83.3217C83.5609 7.38123 83.8 7.33853 84.0392 7.24458C84.2698 7.15062 84.4833 7.01396 84.6712 6.82606C84.8591 6.63815 85.0043 6.40754 85.1239 6.12568C85.2435 5.84382 85.2948 5.51071 85.2948 5.13489H85.2691ZM85.3887 10.8661C85.3887 10.0376 85.2093 9.42259 84.8506 9.01261C84.4919 8.60263 83.9623 8.39764 83.279 8.39764C83.1167 8.39764 82.9801 8.39764 82.869 8.40618C82.7495 8.40618 82.647 8.41472 82.5445 8.41472C82.5445 8.66242 82.5445 8.91865 82.5359 9.18343C82.5359 9.44821 82.5274 9.76424 82.5274 10.1315C82.5274 10.4134 82.5274 10.7038 82.5359 11.0027C82.5359 11.2931 82.5445 11.5921 82.5445 11.8739C82.5445 12.1558 82.5445 12.4206 82.553 12.6512C82.553 12.8818 82.5616 13.0782 82.5616 13.2405C82.7238 13.2491 82.869 13.2576 83.0142 13.2661C83.1509 13.2661 83.3132 13.2747 83.5182 13.2747C83.7659 13.2747 84.0136 13.2234 84.2442 13.1124C84.4748 13.0099 84.6712 12.8476 84.8421 12.6426C85.0129 12.4376 85.1495 12.1814 85.252 11.891C85.3545 11.6006 85.4058 11.2504 85.4058 10.8661H85.3887Z" fill="white"/>
<path d="M90.5136 4.3491C90.488 3.58893 90.4538 2.82022 90.4111 2.05151C90.6076 2.07714 90.8211 2.09422 91.0517 2.1113C91.2823 2.12838 91.5386 2.13693 91.829 2.13693C92.1194 2.13693 92.3756 2.12838 92.6062 2.1113C92.8368 2.09422 93.0504 2.0686 93.2383 2.05151C93.187 2.82022 93.1529 3.58893 93.1358 4.3491C93.1102 5.10927 93.1016 5.98047 93.1016 6.96272V9.37134C93.1016 10.3536 93.1102 11.2248 93.1358 11.985C93.1614 12.7451 93.1956 13.4967 93.2383 14.2313C93.0418 14.2057 92.8283 14.1971 92.6062 14.1971H91.0603C90.8297 14.1971 90.6161 14.2057 90.4282 14.2313C90.4709 13.4967 90.5136 12.7537 90.5307 11.985C90.5563 11.2248 90.5649 10.3536 90.5649 9.37134V6.96272C90.5649 5.98047 90.5563 5.10927 90.5307 4.3491H90.5136Z" fill="white"/>
<path d="M96.0227 4.3491C95.997 3.58893 95.9629 2.82022 95.9202 2.05151C96.4412 2.06005 96.9451 2.07714 97.449 2.10276C97.953 2.12838 98.4654 2.13693 98.9779 2.13693C99.832 2.13693 100.584 2.12838 101.241 2.1113C101.899 2.09422 102.343 2.0686 102.574 2.05151C102.523 2.23942 102.505 2.48712 102.505 2.7946C102.505 2.98251 102.505 3.12771 102.523 3.23874C102.531 3.34124 102.548 3.46082 102.574 3.58893C102.241 3.56331 101.873 3.54623 101.48 3.5206C101.088 3.49498 100.703 3.4779 100.327 3.45227C99.9516 3.42665 99.6185 3.40957 99.3196 3.40103C99.0206 3.39249 98.8071 3.38394 98.6875 3.38394C98.6363 4.03308 98.6192 4.67367 98.6106 5.31426C98.6021 5.95485 98.6021 6.59544 98.6021 7.24458C99.3452 7.23604 100.02 7.21895 100.618 7.19333C101.224 7.16771 101.848 7.14208 102.505 7.10792C102.471 7.30437 102.446 7.45811 102.437 7.56914C102.429 7.67164 102.42 7.78267 102.42 7.90225C102.42 7.9962 102.429 8.0987 102.446 8.19265C102.463 8.29515 102.48 8.44035 102.505 8.62825C101.199 8.52576 99.9004 8.46597 98.6021 8.46597C98.6021 8.84179 98.6021 9.22614 98.5936 9.60195C98.5936 9.97777 98.585 10.3621 98.585 10.7379C98.585 11.5066 98.6021 12.2412 98.6363 12.9501C99.2854 12.9501 99.9431 12.933 100.601 12.8989C101.25 12.8647 101.916 12.8049 102.582 12.7195C102.557 12.8476 102.54 12.9672 102.531 13.0697C102.523 13.1722 102.514 13.3259 102.514 13.5138C102.514 13.7017 102.514 13.8469 102.531 13.958C102.54 14.0605 102.557 14.1544 102.582 14.2228C102.275 14.2142 101.89 14.2057 101.438 14.1971C100.985 14.1971 100.362 14.1886 99.5758 14.1886H96.8512C96.5949 14.1886 96.3985 14.1886 96.2704 14.1971C96.1337 14.1971 96.0227 14.2142 95.9372 14.2228C95.98 13.4882 96.0227 12.7451 96.0397 11.9764C96.0654 11.2162 96.0739 10.345 96.0739 9.3628V6.95417C96.0739 5.97193 96.0654 5.10073 96.0397 4.34056L96.0227 4.3491Z" fill="white"/>
<path d="M104.965 5.57904C104.965 4.75908 104.957 4.07578 104.931 3.5206C104.905 2.96542 104.888 2.47003 104.88 2.05151C105.204 2.1113 105.461 2.13693 105.657 2.13693C105.853 2.13693 106.11 2.1113 106.434 2.05151C107.681 3.4779 108.92 4.8872 110.141 6.27088C111.363 7.65455 112.618 9.06386 113.899 10.4902V7.22749C113.899 6.64669 113.899 6.07443 113.891 5.51925C113.891 4.95553 113.882 4.44306 113.874 3.96475C113.874 3.49498 113.857 3.085 113.84 2.74335C113.822 2.4017 113.805 2.17109 113.78 2.05151C114.096 2.1113 114.361 2.13693 114.557 2.13693C114.753 2.13693 115.01 2.1113 115.334 2.05151C115.274 3.12771 115.232 4.10141 115.198 4.96407C115.163 5.83527 115.129 6.65523 115.112 7.42394C115.087 8.19265 115.078 8.95282 115.069 9.70445C115.069 10.4561 115.061 11.2589 115.061 12.1045V14.2313C114.83 14.2057 114.6 14.1971 114.361 14.1971C114.121 14.1971 113.882 14.2057 113.694 14.2313C111.328 11.3956 108.826 8.54284 106.178 5.66445C106.17 6.0061 106.161 6.34775 106.152 6.6894C106.152 7.03104 106.144 7.38123 106.144 7.73997V9.7984C106.144 10.5073 106.144 11.1052 106.152 11.6091C106.152 12.1045 106.17 12.523 106.178 12.8647C106.187 13.2063 106.204 13.4882 106.212 13.7017C106.221 13.9153 106.238 14.0946 106.246 14.2228C106.11 14.1971 105.973 14.1886 105.836 14.1886H105.444C105.179 14.1886 104.914 14.1971 104.649 14.2228C104.675 14.1288 104.7 13.7957 104.735 13.2149C104.769 12.6341 104.803 11.9252 104.846 11.0967C104.888 10.2596 104.922 9.3628 104.948 8.38056C104.974 7.40686 104.991 6.46732 104.991 5.5705L104.965 5.57904Z" fill="white"/>
<path d="M117.999 4.3491C117.974 3.58893 117.939 2.82022 117.897 2.05151C118.418 2.06005 118.922 2.07714 119.426 2.10276C119.93 2.12838 120.442 2.13693 120.954 2.13693C121.8 2.13693 122.56 2.12838 123.218 2.1113C123.876 2.09422 124.32 2.0686 124.55 2.05151C124.499 2.23942 124.482 2.48712 124.482 2.7946C124.482 2.98251 124.482 3.12771 124.499 3.23874C124.508 3.34124 124.525 3.46082 124.55 3.58893C124.217 3.56331 123.85 3.54623 123.457 3.5206C123.064 3.49498 122.68 3.4779 122.304 3.45227C121.928 3.42665 121.595 3.40957 121.296 3.40103C120.997 3.39249 120.784 3.38394 120.664 3.38394C120.613 4.03308 120.596 4.67367 120.587 5.31426C120.579 5.95485 120.579 6.59544 120.579 7.24458C121.322 7.23604 121.997 7.21895 122.594 7.19333C123.201 7.16771 123.824 7.14208 124.482 7.10792C124.448 7.30437 124.422 7.45811 124.414 7.56914C124.405 7.67164 124.397 7.78267 124.397 7.90225C124.397 7.9962 124.405 8.0987 124.422 8.19265C124.439 8.29515 124.456 8.44035 124.482 8.62825C123.175 8.52576 121.877 8.46597 120.579 8.46597C120.579 8.84179 120.579 9.22614 120.57 9.60195C120.57 9.97777 120.562 10.3621 120.562 10.7379C120.562 11.5066 120.579 12.2412 120.613 12.9501C121.262 12.9501 121.92 12.933 122.577 12.8989C123.226 12.8647 123.893 12.8049 124.559 12.7195C124.533 12.8476 124.516 12.9672 124.508 13.0697C124.499 13.1722 124.491 13.3259 124.491 13.5138C124.491 13.7017 124.491 13.8469 124.508 13.958C124.516 14.0605 124.533 14.1544 124.559 14.2228C124.251 14.2142 123.867 14.2057 123.414 14.1971C122.962 14.1971 122.338 14.1886 121.544 14.1886H118.819C118.563 14.1886 118.366 14.1886 118.238 14.1971C118.11 14.1971 117.991 14.2142 117.905 14.2228C117.948 13.4882 117.991 12.7451 118.008 11.9764C118.033 11.2162 118.042 10.345 118.042 9.3628V6.95417C118.042 5.97193 118.033 5.10073 118.008 4.34056L117.999 4.3491Z" fill="white"/>
<path d="M129.786 2.92275C129.257 2.92275 128.83 3.08503 128.496 3.40106C128.163 3.71708 127.992 4.0929 127.992 4.51996C127.992 4.94702 128.121 5.31429 128.377 5.59615C128.633 5.86947 128.958 6.12571 129.351 6.34778C129.743 6.56985 130.162 6.79192 130.606 6.99691C131.059 7.2019 131.469 7.45814 131.862 7.75708C132.255 8.05602 132.579 8.4233 132.835 8.8589C133.092 9.28596 133.22 9.84114 133.22 10.5159C133.22 11.1052 133.109 11.6519 132.895 12.1387C132.682 12.6256 132.366 13.0526 131.964 13.3943C131.563 13.7445 131.084 14.0093 130.529 14.1972C129.974 14.3765 129.351 14.4705 128.659 14.4705C128.044 14.4705 127.489 14.4022 127.002 14.2655C126.515 14.1288 126.148 13.958 125.891 13.7616C126.002 13.3516 126.105 12.9672 126.182 12.6256C126.267 12.2839 126.335 11.9081 126.387 11.5067H126.711C126.754 11.7629 126.848 12.0106 126.968 12.2412C127.096 12.4718 127.249 12.6768 127.454 12.8562C127.651 13.0356 127.89 13.1722 128.155 13.2747C128.428 13.3772 128.736 13.4285 129.086 13.4285C129.769 13.4285 130.282 13.2491 130.606 12.8989C130.931 12.5487 131.093 12.1216 131.093 11.6263C131.093 11.1736 130.965 10.8063 130.717 10.5244C130.469 10.2426 130.153 9.98634 129.769 9.77281C129.393 9.55928 128.975 9.34575 128.531 9.13222C128.086 8.92723 127.668 8.67099 127.292 8.38059C126.916 8.09019 126.6 7.72292 126.344 7.28731C126.096 6.86025 125.968 6.30507 125.968 5.63032C125.968 5.01535 126.071 4.46871 126.284 3.99894C126.498 3.52917 126.78 3.12774 127.138 2.81171C127.489 2.49569 127.907 2.24799 128.368 2.08571C128.83 1.92343 129.325 1.83801 129.837 1.83801C130.452 1.83801 130.999 1.91488 131.46 2.06863C131.93 2.22237 132.323 2.4359 132.656 2.70922C132.554 2.98254 132.468 3.24731 132.391 3.49501C132.314 3.75125 132.22 4.06727 132.109 4.46017H131.853C131.486 3.44376 130.794 2.93983 129.769 2.93983H129.752L129.786 2.92275Z" fill="white"/>
<path d="M137.413 3.9989C137.413 3.71704 137.396 3.51205 137.371 3.37539C137.2 3.37539 136.986 3.37539 136.739 3.39247C136.482 3.40102 136.218 3.4181 135.927 3.43518C135.637 3.45226 135.346 3.47789 135.047 3.50351C134.749 3.52913 134.475 3.5633 134.219 3.59746C134.245 3.46935 134.262 3.34123 134.279 3.20457C134.296 3.07645 134.304 2.94833 134.304 2.81167C134.304 2.67501 134.296 2.55543 134.279 2.41878C134.262 2.29066 134.245 2.16254 134.219 2.02588C134.612 2.03442 134.962 2.0515 135.278 2.06004C135.594 2.06858 135.919 2.07713 136.243 2.08567C136.568 2.08567 136.927 2.09421 137.311 2.10275C137.695 2.10275 138.156 2.11129 138.695 2.11129C139.233 2.11129 139.694 2.11129 140.078 2.10275C140.463 2.10275 140.813 2.09421 141.137 2.08567C141.453 2.08567 141.769 2.06858 142.077 2.06004C142.376 2.0515 142.709 2.03442 143.068 2.02588C143.042 2.154 143.025 2.28212 143.008 2.41878C142.991 2.54689 142.982 2.67501 142.982 2.81167C142.982 2.94833 142.991 3.06791 143.008 3.20457C143.025 3.33269 143.042 3.4608 143.068 3.59746C142.837 3.5633 142.581 3.52913 142.29 3.50351C142.009 3.47789 141.718 3.45226 141.436 3.43518C141.154 3.4181 140.89 3.40102 140.642 3.39247C140.394 3.38393 140.181 3.37539 140.01 3.37539C140.001 3.43518 139.993 3.51205 139.984 3.62309C139.984 3.72558 139.976 3.8537 139.976 3.99036V9.36279C139.976 10.345 139.984 11.2162 140.01 11.9764C140.036 12.7366 140.07 13.4882 140.112 14.2227C139.916 14.1971 139.702 14.1886 139.48 14.1886H137.934C137.704 14.1886 137.49 14.1971 137.302 14.2227C137.345 13.4882 137.388 12.7451 137.405 11.9764C137.43 11.2162 137.439 10.345 137.439 9.36279V4.92989C137.439 4.58825 137.439 4.27222 137.43 3.99036L137.413 3.9989Z" fill="white"/>
<path d="M153.385 14.2313C153.112 14.2057 152.847 14.1972 152.608 14.1972H151.148C150.9 14.1972 150.661 14.2057 150.413 14.2313C150.225 13.6505 150.037 13.0612 149.841 12.4547C149.644 11.8483 149.439 11.2504 149.226 10.644C148.859 10.6355 148.491 10.6269 148.124 10.6184C147.757 10.6184 147.389 10.6098 147.022 10.6098C146.723 10.6098 146.424 10.6098 146.125 10.6184C145.826 10.6184 145.527 10.6355 145.229 10.644C144.998 11.2504 144.784 11.8483 144.596 12.4547C144.4 13.0612 144.221 13.6505 144.067 14.2313C143.93 14.2057 143.794 14.1972 143.665 14.1972H142.846C142.709 14.1972 142.564 14.2057 142.401 14.2313C142.538 13.9238 142.717 13.4968 142.948 12.9587C143.179 12.412 143.435 11.7971 143.708 11.1138C143.981 10.4305 144.28 9.68739 144.596 8.91014C144.912 8.12435 145.229 7.33002 145.545 6.52714C145.861 5.72427 146.168 4.92993 146.476 4.15268C146.774 3.37543 147.056 2.64943 147.304 1.97467C147.424 2.00029 147.526 2.01738 147.629 2.03446C147.731 2.05154 147.842 2.06008 147.953 2.06008C148.064 2.06008 148.175 2.05154 148.278 2.03446C148.38 2.01738 148.491 1.99175 148.602 1.97467C148.97 2.98253 149.362 4.05873 149.781 5.20325C150.2 6.34778 150.618 7.47522 151.045 8.57703C151.472 9.67885 151.882 10.7294 152.284 11.7202C152.685 12.711 153.052 13.5566 153.385 14.2399V14.2313ZM147.295 5.38262C146.997 6.09154 146.715 6.79192 146.45 7.48376C146.185 8.1756 145.929 8.88452 145.673 9.60198H148.824C148.577 8.87598 148.32 8.1756 148.073 7.48376C147.825 6.79192 147.569 6.09154 147.287 5.38262H147.295Z" fill="white"/>
<path d="M157.707 8.64534V9.37134C157.707 10.3536 157.716 11.2248 157.742 11.985C157.767 12.7451 157.801 13.4967 157.844 14.2313C157.648 14.2057 157.434 14.1971 157.212 14.1971H155.666C155.435 14.1971 155.222 14.2057 155.034 14.2313C155.077 13.4967 155.119 12.7537 155.136 11.985C155.162 11.2248 155.171 10.3536 155.171 9.37134V6.96272C155.171 5.98047 155.162 5.10927 155.136 4.3491C155.111 3.58893 155.077 2.82022 155.034 2.05151C155.23 2.07714 155.444 2.09422 155.666 2.1113C155.897 2.12838 156.153 2.13693 156.443 2.13693C156.751 2.13693 157.109 2.11984 157.502 2.09422C157.895 2.0686 158.391 2.05151 158.971 2.05151C159.407 2.05151 159.783 2.06006 160.09 2.08568C160.398 2.1113 160.663 2.14547 160.893 2.18817C161.115 2.23942 161.312 2.29921 161.474 2.37608C161.645 2.45295 161.799 2.5469 161.944 2.6494C162.285 2.90564 162.559 3.2302 162.764 3.61456C162.969 3.99891 163.063 4.4516 163.063 4.98969C163.063 5.85236 162.832 6.55274 162.379 7.09937C161.918 7.64601 161.26 8.03037 160.398 8.25244C160.953 9.2603 161.542 10.2596 162.166 11.2589C162.798 12.2583 163.43 13.2491 164.062 14.2313C163.797 14.2057 163.541 14.1971 163.285 14.1971H161.73C161.474 14.1971 161.209 14.2057 160.944 14.2313L157.861 8.64534H157.707ZM160.423 5.38259C160.423 4.86157 160.372 4.4516 160.27 4.14411C160.167 3.83663 160.005 3.60602 159.8 3.44373C159.595 3.28145 159.313 3.17895 158.971 3.12771C158.63 3.085 158.228 3.05938 157.759 3.05938C157.724 4.66513 157.707 6.27088 157.707 7.88517C157.776 7.89371 157.844 7.90225 157.904 7.91079C157.972 7.91079 158.023 7.91933 158.083 7.91933C158.843 7.91933 159.424 7.7058 159.826 7.28728C160.227 6.86876 160.423 6.23671 160.423 5.38259Z" fill="white"/>
<path d="M164.054 17.2549H35.7986V18.5361H164.054V17.2549Z" fill="white"/>
</g>
</svg>
